{
.appVersion = "1199";
DisplayStrings = (
"/lslash",
"0"
);
copyright = "Copyright (c) 2011, Dan Sayers (i@iotic.com)";
customParameters = (
{
name = license;
value = "This Font Software is licensed under the SIL Open Font License, Version 1.1. This license is available with a FAQ at: http://scripts.sil.org/OFL";
},
{
name = licenseURL;
value = "http://scripts.sil.org/OFL";
},
{
name = vendorID;
value = DANS;
},
{
name = panose;
value = (
2,
0,
6,
3,
0,
0,
0,
0,
0,
4
);
},
{
name = fsType;
value = (
);
},
{
name = "Disable Last Change";
value = 1;
},
{
name = "Use Line Breaks";
value = 1;
},
{
name = "Use Typo Metrics";
value = 1;
},
{
name = Axes;
value = (
{
Name = Weight;
Tag = wght;
}
);
}
);
date = "2011-11-13 19:02:34 +0000";
designer = "Dan Sayers";
designerURL = iotic.com;
disablesNiceNames = 1;
familyName = "Averia Serif Libre";
fontMaster = (
{
ascender = 1622;
capHeight = 700;
custom = Italic;
customParameters = (
{
name = typoAscender;
value = 1890;
},
{
name = typoDescender;
value = -426;
},
{
name = typoLineGap;
value = 0;
},
{
name = winAscent;
value = 1890;
},
{
name = winDescent;
value = 465;
},
{
name = hheaAscender;
value = 1890;
},
{
name = hheaDescender;
value = -426;
},
{
name = strikeoutPosition;
value = 530;
},
{
name = strikeoutSize;
value = 102;
},
{
name = "Axis Location";
value = (
{
Axis = Weight;
Location = 300;
}
);
}
);
descender = -426;
id = "92A672BF-229C-4BEC-8D25-4DDBB2A38145";
italicAngle = 6.85;
userData = {
GSCornerRadius = 15;
};
weight = Light;
weightValue = 300;
widthValue = 5;
xHeight = 500;
},
{
ascender = 1622;
capHeight = 700;
custom = Italic;
customParameters = (
{
name = typoAscender;
value = 1622;
},
{
name = typoDescender;
value = -426;
},
{
name = typoLineGap;
value = 0;
},
{
name = winAscent;
value = 1833;
},
{
name = winDescent;
value = 466;
},
{
name = hheaAscender;
value = 1833;
},
{
name = hheaDescender;
value = -426;
},
{
name = strikeoutPosition;
value = 530;
},
{
name = strikeoutSize;
value = 102;
},
{

glyphs = (
{
glyphname = A;
layers = (
{
anchors = (
{
name = bottom;
position = "{694, -2}";
},
{
name = top;
position = "{899, 1390}";
}
);
layerId = "5CBF0BAD-1756-4F16-9711-93DC239D102B";
paths = (
{
closed = 1;
nodes = (
"563 644 OFFCURVE",
"794 1043 OFFCURVE",
"816 1043 CURVE SMOOTH",
"832 1043 OFFCURVE",
"908 672 OFFCURVE",
"908 615 CURVE SMOOTH",
"908 587 OFFCURVE",
"897 582 OFFCURVE",
"771 582 CURVE SMOOTH",
"579 582 OFFCURVE",
"563 587 OFFCURVE",
"563 607 CURVE SMOOTH"
);
},
{
closed = 1;
nodes = (
"6 0 OFFCURVE",
"45 -13 OFFCURVE",
"254 -14 CURVE SMOOTH",
"379 -15 OFFCURVE",
"419 -6 OFFCURVE",
"419 28 CURVE SMOOTH",
"419 98 OFFCURVE",
"373 109 OFFCURVE",
"373 189 CURVE SMOOTH",
"373 251 OFFCURVE",
"434 392 OFFCURVE",
"472 416 CURVE SMOOTH",
"499 433 OFFCURVE",
"629 438 OFFCURVE",
"740 438 CURVE SMOOTH",
"817 438 OFFCURVE",
"906 431 OFFCURVE",
"932 405 CURVE SMOOTH",
"957 380 OFFCURVE",
"972 303 OFFCURVE",
"972 220 CURVE SMOOTH",
"972 184 OFFCURVE",
"884 70 OFFCURVE",
"884 48 CURVE SMOOTH",
"884 12 OFFCURVE",
"957 -6 OFFCURVE",
"1041 -6 CURVE SMOOTH",
"1319 -5 OFFCURVE",
"1372 12 OFFCURVE",
"1372 63 CURVE SMOOTH",
"1372 94 OFFCURVE",
"1254 131 OFFCURVE",
"1237 209 CURVE SMOOTH",
"1212 323 OFFCURVE",
"1088 953 OFFCURVE",
"1015 1232 CURVE SMOOTH",
"986 1341 OFFCURVE",
"961 1370 OFFCURVE",
"890 1370 CURVE SMOOTH",
"812 1370 OFFCURVE",
"740 1268 OFFCURVE",
"608 977 CURVE SMOOTH",
"540 827 OFFCURVE",
"403 587 OFFCURVE",
"213 258 CURVE SMOOTH",
"159 165 OFFCURVE",
"6 85 OFFCURVE",
"6 48 CURVE SMOOTH"
);
}
);
width = 1474;
},
{
anchors = (
{
name = bottom;
position = "{540, -3}";
},
{
name = top;
position = "{912, 1391}";
}
);
layerId = "92A672BF-229C-4BEC-8D25-4DDBB2A38145";
paths = (
{
closed = 1;
nodes = (
"533 622 OFFCURVE",
"808 1154 OFFCURVE",
"823 1154 CURVE SMOOTH",
"839 1154 OFFCURVE",
"938 641 OFFCURVE",
"932 591 CURVE SMOOTH",
"931 582 OFFCURVE",
"862 584 OFFCURVE",
"771 584 CURVE SMOOTH",
"559 584 OFFCURVE",
"526 576 OFFCURVE",
"529 595 CURVE SMOOTH"
);
},
{
closed = 1;
nodes = (
"4 27 OFFCURVE",
"91 13 OFFCURVE",
"271 13 CURVE SMOOTH",
"336 13 OFFCURVE",
"370 25 OFFCURVE",
"374 48 CURVE SMOOTH",
"378 73 OFFCURVE",
"305 130 OFFCURVE",
"311 173 CURVE SMOOTH",
"315 200 OFFCURVE",
"336 251 OFFCURVE",
"378 324 CURVE SMOOTH",
"466 477 OFFCURVE",
"492 486 OFFCURVE",
"758 486 CURVE SMOOTH",
"881 486 OFFCURVE",
"932 477 OFFCURVE",
"956 436 CURVE SMOOTH",
"976 402 OFFCURVE",
"1020 224 OFFCURVE",
"1012 174 CURVE SMOOTH",
"1005 129 OFFCURVE",
"930 73 OFFCURVE",
"925 41 CURVE SMOOTH",
"921 17 OFFCURVE",
"978 5 OFFCURVE",
"1094 5 CURVE SMOOTH",
"1294 5 OFFCURVE",
"1367 8 OFFCURVE",
"1372 44 CURVE SMOOTH",
"1377 81 OFFCURVE",
"1270 117 OFFCURVE",
"1249 186 CURVE SMOOTH",
"1227 260 OFFCURVE",
"1097 867 OFFCURVE",
"1067 1028 CURVE SMOOTH",
"1037 1189 OFFCURVE",
"993 1391 OFFCURVE",
"903 1391 CURVE SMOOTH",
"776 1391 OFFCURVE",
"735 1218 OFFCURVE",
"637 1028 CURVE SMOOTH",
"606 968 OFFCURVE",
"200 243 OFFCURVE",
"189 223 CURVE SMOOTH",
"143 139 OFFCURVE",
"13 85 OFFCURVE",
"8 53 CURVE SMOOTH"
);
}
);
width = 1436;
}
);
note = uni0041;
unicode = 0041;
},
{
glyphname = AE;
layers = (
{
layerId = "92A672BF-229C-4BEC-8D25-4DDBB2A38145";
paths = (
{
closed = 1;
nodes = (
"1562 1 OFFCURVE",
"1687 25 OFFCURVE",
"1715 206 CURVE SMOOTH",
"1722 248 OFFCURVE",
"1711 262 OFFCURVE",
"1687 262 CURVE SMOOTH",
"1668 262 OFFCURVE",
"1537 123 OFFCURVE",
"1281 123 CURVE SMOOTH",
"1082 123 OFFCURVE",
"1070 248 OFFCURVE",
"1103 468 CURVE SMOOTH",
"1119 574 OFFCURVE",
"1177 634 OFFCURVE",
"1290 634 CURVE SMOOTH",
"1356 634 OFFCURVE",
"1451 553 OFFCURVE",
"1485 553 CURVE SMOOTH",
"1521 553 OFFCURVE",
"1550 601 OFFCURVE",
"1567 708 CURVE SMOOTH",
"1584 815 OFFCURVE",
"1571 866 OFFCURVE",
"1532 866 CURVE SMOOTH",
"1490 866 OFFCURVE",
"1382 785 OFFCURVE",
"1309 785 CURVE SMOOTH",
"1215 785 OFFCURVE",
"1157 838 OFFCURVE",
"1174 942 CURVE SMOOTH",
"1215 1201 OFFCURVE",
"1266 1270 OFFCURVE",
"1407 1270 CURVE SMOOTH",
"1682 1270 OFFCURVE",
"1735 1143 OFFCURVE",
"1770 1143 CURVE SMOOTH",
"1792 1143 OFFCURVE",
"1803 1164 OFFCURVE",
"1810 1206 CURVE SMOOTH",
"1829 1330 OFFCURVE",
"1762 1381 OFFCURVE",
"1595 1381 CURVE SMOOTH",
"1449 1381 OFFCURVE",
"1303 1380 OFFCURVE",
"1157 1380 CURVE SMOOTH",
"1036 1380 OFFCURVE",
"952 1374 OFFCURVE",
"907 1363 CURVE SMOOTH",
"861 1351 OFFCURVE",
"834 1332 OFFCURVE",
"826 1281 CURVE SMOOTH",
"822 1261 OFFCURVE",
"821 1238 OFFCURVE",
"812 1206 CURVE SMOOTH",
"798 1155 OFFCURVE",
"720 1052 OFFCURVE",
"116 221 CURVE SMOOTH",
"77 177 OFFCURVE",
"-56 93 OFFCURVE",
"-62 52 CURVE SMOOTH",
"-67 23 OFFCURVE",
"-12 8 OFFCURVE",
"101 8 CURVE SMOOTH",
"215 8 OFFCURVE",
"274 22 OFFCURVE",
"278 49 CURVE SMOOTH",
"283 78 OFFCURVE",
"249 123 OFFCURVE",
"256 166 CURVE SMOOTH",
"266 229 OFFCURVE",
"374 398 OFFCURVE",
"453 462 CURVE SMOOTH",
"509 508 OFFCURVE",
"606 531 OFFCURVE",
"742 531 CURVE SMOOTH",
"846 531 OFFCURVE",
"887 458 OFFCURVE",
"864 311 CURVE SMOOTH",
"842 171 OFFCURVE",
"775 145 OFFCURVE",
"766 92 CURVE SMOOTH",
"753 8 OFFCURVE",
"871 -1 OFFCURVE",
"1206 0 CURVE SMOOTH"
);
},
{
closed = 1;
nodes = (
"610 613 OFFCURVE",
"552 622 OFFCURVE",
"556 644 CURVE SMOOTH",
"561 679 OFFCURVE",
"942 1215 OFFCURVE",
"983 1215 CURVE SMOOTH",
"1015 1215 OFFCURVE",
"919 680 OFFCURVE",
"892 637 CURVE SMOOTH",
"882 622 OFFCURVE",
"763 616 OFFCURVE",
"724 615 CURVE SMOOTH"
);
}
);
width = 1942;
},
{
layerId = "5CBF0BAD-1756-4F16-9711-93DC239D102B";
paths = (
{
closed = 1;
nodes = (
"1696 0 OFFCURVE",
"1756 152 OFFCURVE",
"1756 214 CURVE SMOOTH",
"1756 277 OFFCURVE",
"1739 302 OFFCURVE",
"1715 302 CURVE SMOOTH",
"1681 302 OFFCURVE",
"1476 154 OFFCURVE",
"1312 154 CURVE SMOOTH",
"1193 154 OFFCURVE",
"1159 212 OFFCURVE",
"1159 379 CURVE SMOOTH",
"1159 513 OFFCURVE",
"1202 619 OFFCURVE",
"1346 619 CURVE SMOOTH",
"1440 619 OFFCURVE",
"1465 553 OFFCURVE",
"1515 553 CURVE SMOOTH",
"1587 553 OFFCURVE",
"1632 657 OFFCURVE",
"1630 730 CURVE SMOOTH",
"1630 803 OFFCURVE",
"1616 847 OFFCURVE",
"1557 847 CURVE SMOOTH",
"1536 847 OFFCURVE",
"1432 801 OFFCURVE",
"1361 801 CURVE SMOOTH",
"1301 801 OFFCURVE",
"1260 839 OFFCURVE",
"1260 907 CURVE SMOOTH",
"1260 947 OFFCURVE",
"1284 1234 OFFCURVE",
"1477 1234 CURVE SMOOTH",
"1688 1234 OFFCURVE",
"1729 1099 OFFCURVE",
"1808 1099 CURVE SMOOTH",
"1836 1099 OFFCURVE",
"1888 1183 OFFCURVE",
"1890 1231 CURVE SMOOTH",
"1896 1385 OFFCURVE",
"1816 1395 OFFCURVE",
"1658 1395 CURVE SMOOTH",
"1570 1395 OFFCURVE",
"1301 1395 OFFCURVE",
"1213 1395 CURVE SMOOTH",
"1111 1395 OFFCURVE",
"1013 1384 OFFCURVE",
"972 1374 CURVE SMOOTH",
"936 1365 OFFCURVE",
"855 1309 OFFCURVE",
"854 1274 CURVE SMOOTH",
"853 1240 OFFCURVE",
"848 1181 OFFCURVE",
"832 1152 CURVE SMOOTH",
"776 1050 OFFCURVE",
"261 283 OFFCURVE",
"160 203 CURVE SMOOTH",
"88 147 OFFCURVE",
"-31 75 OFFCURVE",
"-31 46 CURVE SMOOTH",
"-31 12 OFFCURVE",
"37 -3 OFFCURVE",
"223 -3 CURVE SMOOTH",
"325 -3 OFFCURVE",
"379 30 OFFCURVE",
"379 54 CURVE SMOOTH",
"379 101 OFFCURVE",
"362 113 OFFCURVE",
"367 189 CURVE SMOOTH",
"368 221 OFFCURVE",
"403 264 OFFCURVE",
"436 317 CURVE SMOOTH",
"485 395 OFFCURVE",
"557 511 OFFCURVE",
"742 511 CURVE SMOOTH",
"884 511 OFFCURVE",
"900 484 OFFCURVE",
"900 344 CURVE SMOOTH",
"900 231 OFFCURVE",
"781 107 OFFCURVE",
"781 73 CURVE SMOOTH",
"781 15 OFFCURVE",
"806 0 OFFCURVE",
"1536 0 CURVE SMOOTH"
);
},
{
closed = 1;
nodes = (
"726 649 OFFCURVE",
"669 657 OFFCURVE",
"670 677 CURVE SMOOTH",
"671 700 OFFCURVE",
"992 1138 OFFCURVE",
"1022 1142 CURVE SMOOTH",
"1039 1144 OFFCURVE",
"1004 954 OFFCURVE",
"961 736 CURVE SMOOTH",
"948 671 OFFCURVE",
"919 649 OFFCURVE",
"793 649 CURVE SMOOTH"
);
}
);
width = 1890;
}
);
note = uni00C6;
unicode = 00C6;
},
{
glyphname = B;
layers = (
{
layerId = "92A672BF-229C-4BEC-8D25-4DDBB2A38145";
paths = (
{
closed = 1;
nodes = (
"837 -11 OFFCURVE",
"1085 54 OFFCURVE",
"1131 345 CURVE SMOOTH",
"1178 641 OFFCURVE",
"890 718 OFFCURVE",
"892 734 CURVE SMOOTH",
"895 748 OFFCURVE",
"1125 844 OFFCURVE",
"1158 1051 CURVE",
"1199 1310 OFFCURVE",
"967 1390 OFFCURVE",
"659 1388 CURVE SMOOTH",
"270 1385 OFFCURVE",
"205 1385 OFFCURVE",
"198 1346 CURVE SMOOTH",
"191 1301 OFFCURVE",
"308 1292 OFFCURVE",
"314 1233 CURVE SMOOTH",
"321 1170 OFFCURVE",
"303 1020 OFFCURVE",
"256 725 CURVE SMOOTH",
"207 415 OFFCURVE",
"173 245 OFFCURVE",
"150 172 CURVE SMOOTH",
"128 102 OFFCURVE",
"6 64 OFFCURVE",
"1 32 CURVE SMOOTH",
"-2 9 OFFCURVE",
"211 2 OFFCURVE",
"325 0 CURVE SMOOTH"
);
},
{
closed = 1;
nodes = (
"377 86 OFFCURVE",
"359 105 OFFCURVE",
"381 248 CURVE SMOOTH",
"420 490 LINE SMOOTH",
"444 644 OFFCURVE",
"462 676 OFFCURVE",
"549 676 CURVE SMOOTH",
"839 676 OFFCURVE",
"967 593 OFFCURVE",
"932 364 CURVE SMOOTH",
"901 167 OFFCURVE",
"764 86 OFFCURVE",
"496 86 CURVE SMOOTH"
);
},
{
closed = 1;
nodes = (
"501 767 OFFCURVE",
"468 787 OFFCURVE",
"482 877 CURVE SMOOTH",
"522 1124 LINE SMOOTH",
"546 1270 OFFCURVE",
"575 1297 OFFCURVE",
"661 1297 CURVE",
"890 1297 OFFCURVE",
"997 1221 OFFCURVE",
"970 1051 CURVE SMOOTH",
"940 864 OFFCURVE",
"792 767 OFFCURVE",
"542 767 CURVE SMOOTH"
);
}
);
width = 1314;
},
{
layerId = "5CBF0BAD-1756-4F16-9711-93DC239D102B";
paths = (
{
closed = 1;
nodes = (
"1014 -9 OFFCURVE",
"1197 99 OFFCURVE",
"1247 414 CURVE SMOOTH",
"1286 660 OFFCURVE",
"1051 718 OFFCURVE",
"1054 740 CURVE SMOOTH",
"1058 770 OFFCURVE",
"1259 815 OFFCURVE",
"1297 1053 CURVE SMOOTH",
"1347 1368 OFFCURVE",
"1013 1395 OFFCURVE",
"612 1381 CURVE SMOOTH",
"290 1370 OFFCURVE",
"292 1360 OFFCURVE",
"285 1319 CURVE SMOOTH",
"268 1221 OFFCURVE",
"372 1254 OFFCURVE",
"381 1140 CURVE SMOOTH",
"384 1103 OFFCURVE",
"364 917 OFFCURVE",
"324 661 CURVE SMOOTH",
"277 362 OFFCURVE",
"235 231 OFFCURVE",
"193 179 CURVE SMOOTH",
"157 134 OFFCURVE",
"90 94 OFFCURVE",
"83 51 CURVE SMOOTH",
"75 0 OFFCURVE",
"131 -9 OFFCURVE",
"505 -9 CURVE SMOOTH"
);
},
{
closed = 1;
nodes = (
"533 133 OFFCURVE",
"492 143 OFFCURVE",
"500 195 CURVE SMOOTH",
"558 559 LINE SMOOTH",
"567 615 OFFCURVE",
"612 650 OFFCURVE",
"723 650 CURVE SMOOTH",
"920 650 OFFCURVE",
"998 540 OFFCURVE",
"976 405 CURVE SMOOTH",
"949 240 OFFCURVE",
"859 133 OFFCURVE",
"621 133 CURVE SMOOTH"
);
},
{
closed = 1;
nodes = (
"666 776 OFFCURVE",
"593 775 OFFCURVE",
"599 813 CURVE SMOOTH",
"651 1161 LINE SMOOTH",
"659 1217 OFFCURVE",
"678 1244 OFFCURVE",
"784 1244 CURVE SMOOTH",
"956 1244 OFFCURVE",
"1029 1158 OFFCURVE",
"1009 1037 CURVE SMOOTH",
"983 879 OFFCURVE",
"884 776 OFFCURVE",
"755 776 CURVE SMOOTH"
);
}
);
width = 1338;
}
);
unicode = 0042;
},
{
glyphname = C;
layers = (
{
layerId = "92A672BF-229C-4BEC-8D25-4DDBB2A38145";
paths = (
{
closed = 1;
nodes = (
"781 -15 OFFCURVE",
"985 29 OFFCURVE",
"1069 77 CURVE SMOOTH",
"1099 94 OFFCURVE",
"1184 219 OFFCURVE",
"1192 269 CURVE SMOOTH",
"1196 294 OFFCURVE",
"1202 313 OFFCURVE",
"1162 314 CURVE SMOOTH",
"1108 315 OFFCURVE",
"936 100 OFFCURVE",
"715 100 CURVE SMOOTH",
"381 100 OFFCURVE",
"280 357 OFFCURVE",
"339 731 CURVE SMOOTH",
"389 1048 OFFCURVE",
"581 1296 OFFCURVE",
"872 1296 CURVE SMOOTH",
"1152 1296 OFFCURVE",
"1186 1040 OFFCURVE",
"1236 1040 CURVE SMOOTH",
"1275 1040 OFFCURVE",
"1300 1078 OFFCURVE",
"1312 1153 CURVE SMOOTH",
"1328 1258 OFFCURVE",
"1329 1336 OFFCURVE",
"1294 1342 CURVE SMOOTH",
"1207 1357 OFFCURVE",
"954 1404 OFFCURVE",
"872 1404 CURVE SMOOTH",
"476 1404 OFFCURVE",
"169 1095 OFFCURVE",
"103 678 CURVE SMOOTH",
"40 279 OFFCURVE",
"237 -12 OFFCURVE",
"618 -15 CURVE SMOOTH"
);
}
);
width = 1361;
},
{
layerId = "5CBF0BAD-1756-4F16-9711-93DC239D102B";
paths = (
{
closed = 1;
nodes = (
"838 -23 OFFCURVE",
"948 -2 OFFCURVE",
"1045 40 CURVE SMOOTH",
"1138 80 OFFCURVE",
"1239 181 OFFCURVE",
"1252 264 CURVE SMOOTH",
"1257 295 OFFCURVE",
"1242 310 OFFCURVE",
"1210 310 CURVE SMOOTH",
"1175 310 OFFCURVE",
"927 143 OFFCURVE",
"791 143 CURVE SMOOTH",
"511 143 OFFCURVE",
"392 389 OFFCURVE",
"439 684 CURVE SMOOTH",
"487 984 OFFCURVE",
"635 1247 OFFCURVE",
"891 1247 CURVE SMOOTH",
"1073 1247 OFFCURVE",
"1242 1030 OFFCURVE",
"1296 1030 CURVE SMOOTH",
"1335 1030 OFFCURVE",
"1360 1064 OFFCURVE",
"1371 1131 CURVE SMOOTH",
"1390 1246 OFFCURVE",
"1378 1317 OFFCURVE",
"1337 1343 CURVE SMOOTH",
"1275 1382 OFFCURVE",
"1140 1403 OFFCURVE",
"929 1403 CURVE SMOOTH",
"541 1403 OFFCURVE",
"198 1102 OFFCURVE",
"137 717 CURVE SMOOTH",
"64 254 OFFCURVE",
"271 -23 OFFCURVE",
"715 -23 CURVE SMOOTH"
);
}
);
width = 1363;
}
);
unicode = 0043;
},
{
glyphname = Ccedilla;
layers = (
{
layerId = "92A672BF-229C-4BEC-8D25-4DDBB2A38145";
paths = (
{
closed = 1;
nodes = (
"683 -446 OFFCURVE",
"818 -367 OFFCURVE",
"833 -278 CURVE SMOOTH",
"847 -197 OFFCURVE",
"813 -170 OFFCURVE",
"775 -129 CURVE SMOOTH",
"758 -109 OFFCURVE",
"740 -85 OFFCURVE",
"727 -50 CURVE",
"911 -48 OFFCURVE",
"1206 59 OFFCURVE",
"1233 226 CURVE SMOOTH",
"1238 262 OFFCURVE",
"1230 272 OFFCURVE",
"1209 272 CURVE SMOOTH",
"1177 272 OFFCURVE",
"954 88 OFFCURVE",
"654 88 CURVE SMOOTH",
"374 88 OFFCURVE",
"324 322 OFFCURVE",
"371 622 CURVE SMOOTH",
"428 977 OFFCURVE",
"598 1187 OFFCURVE",
"832 1187 CURVE SMOOTH",
"1094 1187 OFFCURVE",
"1183 965 OFFCURVE",
"1275 965 CURVE SMOOTH",
"1312 965 OFFCURVE",
"1336 1003 OFFCURVE",
"1348 1079 CURVE SMOOTH",
"1360 1155 OFFCURVE",
"1342 1201 OFFCURVE",
"1299 1222 CURVE SMOOTH",
"1291 1226 OFFCURVE",
"1254 1231 OFFCURVE",
"1186 1238 CURVE SMOOTH",
"1132 1244 OFFCURVE",
"985 1306 OFFCURVE",
"826 1306 CURVE SMOOTH",
"475 1306 OFFCURVE",
"235 995 OFFCURVE",
"177 623 CURVE SMOOTH",
"119 258 OFFCURVE",
"273 -46 OFFCURVE",
"633 -46 CURVE",
"612 -73 OFFCURVE",
"601 -91 OFFCURVE",
"598 -114 CURVE SMOOTH",
"594 -137 OFFCURVE",
"673 -194 OFFCURVE",
"665 -248 CURVE SMOOTH",
"653 -322 OFFCURVE",
"592 -345 OFFCURVE",
"521 -345 CURVE SMOOTH",
"494 -345 OFFCURVE",
"477 -368 OFFCURVE",
"469 -414 CURVE SMOOTH",
"466 -436 OFFCURVE",
"479 -446 OFFCURVE",
"540 -446 CURVE SMOOTH"
);
}
);
width = 1456;
},
{
layerId = "5CBF0BAD-1756-4F16-9711-93DC239D102B";
paths = (
{
closed = 1;
nodes = (
"660 -456 OFFCURVE",
"764 -382 OFFCURVE",
"785 -241 CURVE SMOOTH",
"795 -174 OFFCURVE",
"765 -129 OFFCURVE",
"693 -104 CURVE SMOOTH",
"661 -93 OFFCURVE",
"647 -81 OFFCURVE",
"651 -34 CURVE",
"1043 -34 OFFCURVE",
"1265 93 OFFCURVE",
"1298 283 CURVE SMOOTH",
"1302 306 OFFCURVE",
"1292 318 OFFCURVE",
"1269 318 CURVE SMOOTH",
"1143 318 OFFCURVE",
"967 139 OFFCURVE",
"810 139 CURVE SMOOTH",
"542 139 OFFCURVE",
"356 380 OFFCURVE",
"407 700 CURVE SMOOTH",
"458 1020 OFFCURVE",
"692 1231 OFFCURVE",
"882 1231 CURVE SMOOTH",
"1072 1231 OFFCURVE",
"1253 1024 OFFCURVE",
"1367 1024 CURVE SMOOTH",
"1400 1024 OFFCURVE",
"1422 1070 OFFCURVE",
"1431 1127 CURVE SMOOTH",
"1443 1201 OFFCURVE",
"1432 1293 OFFCURVE",
"1391 1320 CURVE SMOOTH",
"1374 1331 OFFCURVE",
"1331 1346 OFFCURVE",
"1265 1361 CURVE SMOOTH",
"1171 1382 OFFCURVE",
"1034 1399 OFFCURVE",
"869 1399 CURVE SMOOTH",
"491 1399 OFFCURVE",
"154 1083 OFFCURVE",
"92 690 CURVE SMOOTH",
"28 282 OFFCURVE",
"171 2 OFFCURVE",
"562 -31 CURVE",
"537 -46 OFFCURVE",
"520 -82 OFFCURVE",
"512 -137 CURVE SMOOTH",
"504 -189 OFFCURVE",
"612 -190 OFFCURVE",
"602 -256 CURVE SMOOTH",
"592 -319 OFFCURVE",
"537 -337 OFFCURVE",
"426 -340 CURVE SMOOTH",
"393 -341 OFFCURVE",
"374 -359 OFFCURVE",
"368 -396 CURVE SMOOTH",
"361 -437 OFFCURVE",
"387 -456 OFFCURVE",
"478 -456 CURVE SMOOTH"
);
}
);
width = 1456;
}
);
note = uni00C7;
unicode = 00C7;
},
{
glyphname = D;
layers = (
{
layerId = "92A672BF-229C-4BEC-8D25-4DDBB2A38145";
paths = (
{
closed = 1;
nodes = (
"989 -5 OFFCURVE",
"1321 274 OFFCURVE",
"1389 703 CURVE SMOOTH",
"1456 1122 OFFCURVE",
"1245 1395 OFFCURVE",
"833 1395 CURVE SMOOTH",
"282 1382 OFFCURVE",
"219 1379 OFFCURVE",
"212 1335 CURVE SMOOTH",
"207 1303 OFFCURVE",
"290 1295 OFFCURVE",
"317 1269 CURVE SMOOTH",
"362 1227 OFFCURVE",
"308 914 OFFCURVE",
"267 656 CURVE SMOOTH",
"220 359 OFFCURVE",
"189 195 OFFCURVE",
"175 162 CURVE SMOOTH",
"146 97 OFFCURVE",
"22 83 OFFCURVE",
"14 31 CURVE SMOOTH",
"9 -2 OFFCURVE",
"100 9 OFFCURVE",
"554 -5 CURVE SMOOTH"
);
},
{
closed = 1;
nodes = (
"368 95 OFFCURVE",
"370 122 OFFCURVE",
"394 273 CURVE SMOOTH",
"507 968 LINE SMOOTH",
"549 1231 OFFCURVE",
"519 1302 OFFCURVE",
"693 1302 CURVE SMOOTH",
"1087 1302 OFFCURVE",
"1218 1102 OFFCURVE",
"1146 642 CURVE SMOOTH",
"1091 299 OFFCURVE",
"873 96 OFFCURVE",
"523 95 CURVE SMOOTH"
);
}
);
width = 1513;
},
{
layerId = "5CBF0BAD-1756-4F16-9711-93DC239D102B";
paths = (
{
closed = 1;
nodes = (
"988 0 OFFCURVE",
"1357 117 OFFCURVE",
"1449 704 CURVE SMOOTH",
"1508 1079 OFFCURVE",
"1379 1392 OFFCURVE",
"786 1392 CURVE SMOOTH",
"557 1392 OFFCURVE",
"275 1403 OFFCURVE",
"262 1322 CURVE SMOOTH",
"251 1255 OFFCURVE",
"353 1249 OFFCURVE",
"369 1189 CURVE SMOOTH",
"382 1139 OFFCURVE",
"374 1094 OFFCURVE",
"307 700 CURVE SMOOTH",
"273 501 OFFCURVE",
"232 258 OFFCURVE",
"217 221 CURVE SMOOTH",
"190 153 OFFCURVE",
"51 103 OFFCURVE",
"44 56 CURVE SMOOTH",
"37 6 OFFCURVE",
"81 -3 OFFCURVE",
"428 -2 CURVE SMOOTH"
);
},
{
closed = 1;
nodes = (
"494 135 OFFCURVE",
"484 161 OFFCURVE",
"502 273 CURVE SMOOTH",
"637 1093 LINE SMOOTH",
"655 1204 OFFCURVE",
"691 1250 OFFCURVE",
"807 1249 CURVE SMOOTH",
"1118 1246 OFFCURVE",
"1204 994 OFFCURVE",
"1150 650 CURVE SMOOTH",
"1099 327 OFFCURVE",
"901 135 OFFCURVE",
"608 135 CURVE SMOOTH"
);
}
);
width = 1499;
}
);
unicode = 0044;
},
{
glyphname = Eth;
layers = (
{
layerId = "92A672BF-229C-4BEC-8D25-4DDBB2A38145";
paths = (
{
closed = 1;
nodes = (
"992 -4 OFFCURVE",
"1323 250 OFFCURVE",
"1396 713 CURVE SMOOTH",
"1466 1150 OFFCURVE",
"1223 1386 OFFCURVE",
"765 1386 CURVE SMOOTH",
"612 1384 OFFCURVE",
"567 1383 OFFCURVE",
"335 1376 CURVE SMOOTH",
"261 1376 OFFCURVE",
"223 1365 OFFCURVE",
"219 1342 CURVE SMOOTH",
"214 1308 OFFCURVE",
"330 1238 OFFCURVE",
"333 1221 CURVE SMOOTH",
"340 1186 OFFCURVE",
"335 1114 OFFCURVE",
"317 1003 CURVE SMOOTH",
"296 849 OFFCURVE",
"290 796 OFFCURVE",
"268 780 CURVE SMOOTH",
"262 776 OFFCURVE",
"233 770 OFFCURVE",
"176 762 CURVE SMOOTH",
"137 757 OFFCURVE",
"116 739 OFFCURVE",
"111 709 CURVE SMOOTH",
"106 678 OFFCURVE",
"125 660 OFFCURVE",
"167 655 CURVE SMOOTH",
"209 649 OFFCURVE",
"236 642 OFFCURVE",
"246 633 CURVE SMOOTH",
"255 624 OFFCURVE",
"250 561 OFFCURVE",
"231 444 CURVE SMOOTH",
"199 264 OFFCURVE",
"183 194 OFFCURVE",
"167 163 CURVE SMOOTH",
"134 100 OFFCURVE",
"19 92 OFFCURVE",
"10 35 CURVE SMOOTH",
"3 -11 OFFCURVE",
"210 1 OFFCURVE",
"552 -4 CURVE SMOOTH"
);
},
{
closed = 1;
nodes = (
"400 84 OFFCURVE",
"378 110 OFFCURVE",
"399 245 CURVE SMOOTH",
"420 378 OFFCURVE",
"440 472 OFFCURVE",
"470 535 CURVE SMOOTH",
"485 566 OFFCURVE",
"503 591 OFFCURVE",
"525 608 CURVE SMOOTH",
"554 632 OFFCURVE",
"591 643 OFFCURVE",
"640 645 CURVE SMOOTH",
"726 648 OFFCURVE",
"772 667 OFFCURVE",
"776 692 CURVE SMOOTH",
"781 724 OFFCURVE",
"769 740 OFFCURVE",
"747 748 CURVE SMOOTH",
"681 773 OFFCURVE",
"524 739 OFFCURVE",
"506 806 CURVE SMOOTH",
"501 826 OFFCURVE",
"511 919 OFFCURVE",
"526 1017 CURVE SMOOTH",
"542 1123 OFFCURVE",
"565 1234 OFFCURVE",
"580 1260 CURVE SMOOTH",
"594 1283 OFFCURVE",
"627 1295 OFFCURVE",
"681 1295 CURVE SMOOTH",
"1051 1295 OFFCURVE",
"1205 1099 OFFCURVE",
"1143 712 CURVE SMOOTH",
"1075 281 OFFCURVE",
"875 84 OFFCURVE",
"511 84 CURVE SMOOTH"
);
}
);
width = 1526;
},
{
layerId = "5CBF0BAD-1756-4F16-9711-93DC239D102B";
paths = (
{
closed = 1;
nodes = (
"1018 -15 OFFCURVE",
"1378 243 OFFCURVE",
"1445 670 CURVE SMOOTH",
"1508 1069 OFFCURVE",
"1256 1395 OFFCURVE",
"863 1395 CURVE SMOOTH",
"646 1395 OFFCURVE",
"494 1378 OFFCURVE",
"310 1370 CURVE SMOOTH",
"265 1368 OFFCURVE",
"239 1352 OFFCURVE",
"234 1330 CURVE SMOOTH",
"224 1288 OFFCURVE",
"346 1230 OFFCURVE",
"352 1217 CURVE SMOOTH",
"369 1180 OFFCURVE",
"369 1072 OFFCURVE",
"357 987 CURVE SMOOTH",
"350 938 OFFCURVE",
"352 939 OFFCURVE",
"346 890 CURVE SMOOTH",
"341 851 OFFCURVE",
"312 826 OFFCURVE",
"264 816 CURVE SMOOTH",
"215 806 OFFCURVE",
"186 776 OFFCURVE",
"179 727 CURVE SMOOTH",
"174 694 OFFCURVE",
"196 671 OFFCURVE",
"246 657 CURVE SMOOTH",
"286 646 OFFCURVE",
"303 618 OFFCURVE",
"288 523 CURVE SMOOTH",
"280 470 OFFCURVE",
"272 425 OFFCURVE",
"264 385 CURVE SMOOTH",
"248 303 OFFCURVE",
"235 249 OFFCURVE",
"222 225 CURVE SMOOTH",
"183 153 OFFCURVE",
"56 103 OFFCURVE",
"49 61 CURVE SMOOTH",
"33 -38 OFFCURVE",
"210 -6 OFFCURVE",
"577 -10 CURVE SMOOTH"
);
},
{
closed = 1;
nodes = (
"473 118 OFFCURVE",
"443 145 OFFCURVE",
"452 199 CURVE SMOOTH",
"465 280 OFFCURVE",
"478 362 OFFCURVE",
"490 443 CURVE SMOOTH",
"499 503 OFFCURVE",
"527 596 OFFCURVE",
"555 619 CURVE SMOOTH",
"596 652 OFFCURVE",
"670 637 OFFCURVE",
"729 644 CURVE SMOOTH",
"769 649 OFFCURVE",
"800 663 OFFCURVE",
"807 709 CURVE SMOOTH",
"815 760 OFFCURVE",
"792 786 OFFCURVE",
"737 786 CURVE SMOOTH",
"642 786 OFFCURVE",
"594 780 OFFCURVE",
"574 804 CURVE SMOOTH",
"554 829 OFFCURVE",
"566 887 OFFCURVE",
"579 969 CURVE SMOOTH",
"588 1025 OFFCURVE",
"595 1129 OFFCURVE",
"604 1185 CURVE SMOOTH",
"611 1231 OFFCURVE",
"642 1254 OFFCURVE",
"695 1254 CURVE SMOOTH",
"1051 1254 OFFCURVE",
"1200 1031 OFFCURVE",
"1158 764 CURVE SMOOTH",
"1094 355 OFFCURVE",
"926 118 OFFCURVE",
"542 118 CURVE SMOOTH"
);
}
);
width = 1492;
}
);
note = uni00D0;
unicode = 00D0;
},
{
glyphname = E;
layers = (
{
anchors = (
{
name = top;
position = "{751, 1394}";
}
);
layerId = "92A672BF-229C-4BEC-8D25-4DDBB2A38145";
paths = (
{
closed = 1;
nodes = (
"827 -2 OFFCURVE",
"955 1 OFFCURVE",
"989 21 CURVE SMOOTH",
"1043 53 OFFCURVE",
"1075 99 OFFCURVE",
"1094 218 CURVE SMOOTH",
"1098 240 OFFCURVE",
"1092 280 OFFCURVE",
"1079 280 CURVE SMOOTH",
"1051 280 OFFCURVE",
"916 169 OFFCURVE",
"865 150 CURVE SMOOTH",
"807 129 OFFCURVE",
"700 116 OFFCURVE",
"608 119 CURVE SMOOTH",
"413 124 OFFCURVE",
"390 186 OFFCURVE",
"424 399 CURVE SMOOTH",
"451 568 OFFCURVE",
"474 659 OFFCURVE",
"625 659 CURVE SMOOTH",
"710 659 OFFCURVE",
"797 561 OFFCURVE",
"828 561 CURVE SMOOTH",
"865 561 OFFCURVE",
"923 609 OFFCURVE",
"938 703 CURVE SMOOTH",
"950 780 OFFCURVE",
"948 869 OFFCURVE",
"896 869 CURVE SMOOTH",
"881 869 OFFCURVE",
"739 781 OFFCURVE",
"708 782 CURVE SMOOTH",
"574 786 OFFCURVE",
"507 824 OFFCURVE",
"526 940 CURVE SMOOTH",
"558 1144 OFFCURVE",
"631 1273 OFFCURVE",
"747 1273 CURVE SMOOTH",
"857 1273 OFFCURVE",
"990 1273 OFFCURVE",
"1041 1235 CURVE SMOOTH",
"1066 1217 OFFCURVE",
"1100 1143 OFFCURVE",
"1123 1142 CURVE SMOOTH",
"1172 1140 OFFCURVE",
"1190 1158 OFFCURVE",
"1195 1191 CURVE SMOOTH",
"1225 1375 OFFCURVE",
"1182 1395 OFFCURVE",
"751 1394 CURVE SMOOTH",
"450 1394 OFFCURVE",
"240 1405 OFFCURVE",
"232 1353 CURVE SMOOTH",
"219 1273 OFFCURVE",
"328 1286 OFFCURVE",
"332 1236 CURVE SMOOTH",
"338 1163 OFFCURVE",
"312 1030 OFFCURVE",
"257 710 CURVE SMOOTH",
"212 446 OFFCURVE",
"171 218 OFFCURVE",
"148 171 CURVE SMOOTH",
"125 124 OFFCURVE",
"24 74 OFFCURVE",
"18 40 CURVE SMOOTH",
"10 -12 OFFCURVE",
"206 -2 OFFCURVE",
"479 -2 CURVE SMOOTH"
);
}
);
width = 1272;
},
{
anchors = (
{
name = top;
position = "{805, 1389}";
}
);
layerId = "5CBF0BAD-1756-4F16-9711-93DC239D102B";
paths = (
{
closed = 1;
nodes = (
"952 -9 OFFCURVE",
"1044 0 OFFCURVE",
"1094 37 CURVE SMOOTH",
"1152 80 OFFCURVE",
"1181 158 OFFCURVE",
"1191 219 CURVE SMOOTH",
"1200 273 OFFCURVE",
"1189 300 OFFCURVE",
"1161 300 CURVE SMOOTH",
"1120 300 OFFCURVE",
"1057 273 OFFCURVE",
"987 244 CURVE SMOOTH",
"896 206 OFFCURVE",
"776 161 OFFCURVE",
"697 161 CURVE SMOOTH",
"549 161 OFFCURVE",
"522 243 OFFCURVE",
"548 414 CURVE SMOOTH",
"570 561 OFFCURVE",
"595 626 OFFCURVE",
"753 626 CURVE SMOOTH",
"818 626 OFFCURVE",
"845 540 OFFCURVE",
"927 540 CURVE SMOOTH",
"987 540 OFFCURVE",
"1018 603 OFFCURVE",
"1038 741 CURVE SMOOTH",
"1049 816 OFFCURVE",
"1040 878 OFFCURVE",
"980 878 CURVE SMOOTH",
"960 878 OFFCURVE",
"817 794 OFFCURVE",
"740 794 CURVE SMOOTH",
"646 794 OFFCURVE",
"611 834 OFFCURVE",
"634 975 CURVE SMOOTH",
"659 1126 OFFCURVE",
"720 1232 OFFCURVE",
"841 1232 CURVE SMOOTH",
"914 1232 OFFCURVE",
"1007 1210 OFFCURVE",
"1087 1171 CURVE SMOOTH",
"1130 1150 OFFCURVE",
"1173 1105 OFFCURVE",
"1204 1105 CURVE SMOOTH",
"1252 1105 OFFCURVE",
"1284 1124 OFFCURVE",
"1298 1213 CURVE SMOOTH",
"1327 1395 OFFCURVE",
"1257 1397 OFFCURVE",
"815 1397 CURVE SMOOTH",
"300 1397 OFFCURVE",
"267 1377 OFFCURVE",
"260 1330 CURVE SMOOTH",
"252 1275 OFFCURVE",
"350 1242 OFFCURVE",
"357 1151 CURVE SMOOTH",
"360 1114 OFFCURVE",
"340 955 OFFCURVE",
"296 675 CURVE SMOOTH",
"252 395 OFFCURVE",
"210 212 OFFCURVE",
"190 198 CURVE SMOOTH",
"115 145 OFFCURVE",
"63 113 OFFCURVE",
"54 59 CURVE SMOOTH",
"47 15 OFFCURVE",
"84 -9 OFFCURVE",
"364 -9 CURVE SMOOTH"
);
}
);
width = 1278;
}
);
note = uni0045;
unicode = 0045;
},
{
glyphname = F;
layers = (
{
layerId = "92A672BF-229C-4BEC-8D25-4DDBB2A38145";
paths = (
{
closed = 1;
nodes = (
"414 -6 OFFCURVE",
"484 -2 OFFCURVE",
"490 32 CURVE SMOOTH",
"493 53 OFFCURVE",
"435 74 OFFCURVE",
"425 182 CURVE SMOOTH",
"419 235 OFFCURVE",
"423 349 OFFCURVE",
"441 449 CURVE SMOOTH",
"469 610 OFFCURVE",
"512 614 OFFCURVE",
"663 614 CURVE SMOOTH",
"712 614 OFFCURVE",
"814 553 OFFCURVE",
"833 553 CURVE SMOOTH",
"881 553 OFFCURVE",
"917 615 OFFCURVE",
"930 698 CURVE SMOOTH",
"947 801 OFFCURVE",
"936 853 OFFCURVE",
"899 853 CURVE SMOOTH",
"868 853 OFFCURVE",
"748 770 OFFCURVE",
"684 770 CURVE SMOOTH",
"524 770 OFFCURVE",
"498 807 OFFCURVE",
"528 999 CURVE SMOOTH",
"558 1190 OFFCURVE",
"602 1284 OFFCURVE",
"805 1284 CURVE SMOOTH",
"960 1284 OFFCURVE",
"1030 1269 OFFCURVE",
"1087 1203 CURVE SMOOTH",
"1109 1178 OFFCURVE",
"1130 1116 OFFCURVE",
"1154 1116 CURVE SMOOTH",
"1180 1116 OFFCURVE",
"1196 1138 OFFCURVE",
"1203 1182 CURVE SMOOTH",
"1231 1362 OFFCURVE",
"1161 1399 OFFCURVE",
"1050 1399 CURVE SMOOTH",
"318 1391 OFFCURVE",
"229 1391 OFFCURVE",
"224 1358 CURVE SMOOTH",
"218 1323 OFFCURVE",
"315 1283 OFFCURVE",
"325 1237 CURVE SMOOTH",
"333 1194 OFFCURVE",
"324 1090 OFFCURVE",
"298 925 CURVE SMOOTH",
"196 331 OFFCURVE",
"167 199 OFFCURVE",
"160 175 CURVE SMOOTH",
"149 140 OFFCURVE",
"33 94 OFFCURVE",
"30 63 CURVE SMOOTH",
"24 -2 OFFCURVE",
"143 -6 OFFCURVE",
"262 -6 CURVE SMOOTH"
);
}
);
width = 1194;
},
{
layerId = "5CBF0BAD-1756-4F16-9711-93DC239D102B";
paths = (
{
closed = 1;
nodes = (
"523 -11 OFFCURVE",
"570 -6 OFFCURVE",
"578 43 CURVE SMOOTH",
"583 73 OFFCURVE",
"551 133 OFFCURVE",
"541 204 CURVE SMOOTH",
"532 266 OFFCURVE",
"525 323 OFFCURVE",
"540 424 CURVE SMOOTH",
"557 541 OFFCURVE",
"607 581 OFFCURVE",
"735 581 CURVE SMOOTH",
"800 581 OFFCURVE",
"815 530 OFFCURVE",
"901 530 CURVE SMOOTH",
"947 530 OFFCURVE",
"975 623 OFFCURVE",
"985 686 CURVE SMOOTH",
"1003 801 OFFCURVE",
"987 859 OFFCURVE",
"936 859 CURVE SMOOTH",
"867 859 OFFCURVE",
"824 782 OFFCURVE",
"737 782 CURVE SMOOTH",
"641 782 OFFCURVE",
"604 853 OFFCURVE",
"626 994 CURVE SMOOTH",
"648 1137 OFFCURVE",
"715 1232 OFFCURVE",
"836 1232 CURVE SMOOTH",
"945 1232 OFFCURVE",
"981 1209 OFFCURVE",
"1064 1164 CURVE SMOOTH",
"1148 1119 OFFCURVE",
"1191 1096 OFFCURVE",
"1194 1096 CURVE SMOOTH",
"1232 1096 OFFCURVE",
"1258 1140 OFFCURVE",
"1274 1239 CURVE SMOOTH",
"1295 1371 OFFCURVE",
"1279 1390 OFFCURVE",
"756 1390 CURVE SMOOTH",
"275 1390 OFFCURVE",
"249 1365 OFFCURVE",
"242 1320 CURVE SMOOTH",
"236 1281 OFFCURVE",
"336 1194 OFFCURVE",
"338 1105 CURVE SMOOTH",
"339 1069 OFFCURVE",
"318 912 OFFCURVE",
"275 634 CURVE SMOOTH",
"257 517 OFFCURVE",
"234 378 OFFCURVE",
"208 218 CURVE SMOOTH",
"197 150 OFFCURVE",
"56 113 OFFCURVE",
"47 61 CURVE SMOOTH",
"36 0 OFFCURVE",
"81 -11 OFFCURVE",
"396 -11 CURVE SMOOTH"
);
}
);
width = 1194;
}
);
note = uni0046;
unicode = 0046;
},
{
glyphname = G;
layers = (
{
layerId = "92A672BF-229C-4BEC-8D25-4DDBB2A38145";
paths = (
{
closed = 1;
nodes = (
"839 -23 OFFCURVE",
"1162 29 OFFCURVE",
"1188 190 CURVE SMOOTH",
"1202 277 OFFCURVE",
"1235 396 OFFCURVE",
"1254 455 CURVE SMOOTH",
"1261 477 OFFCURVE",
"1325 532 OFFCURVE",
"1332 576 CURVE SMOOTH",
"1337 608 OFFCURVE",
"1275 625 OFFCURVE",
"1145 625 CURVE SMOOTH",
"1015 625 OFFCURVE",
"948 612 OFFCURVE",
"944 585 CURVE SMOOTH",
"936 537 OFFCURVE",
"1057 517 OFFCURVE",
"1038 401 CURVE SMOOTH",
"1002 170 OFFCURVE",
"919 102 OFFCURVE",
"748 102 CURVE SMOOTH",
"410 102 OFFCURVE",
"275 340 OFFCURVE",
"329 683 CURVE SMOOTH",
"381 1008 OFFCURVE",
"578 1298 OFFCURVE",
"865 1298 CURVE SMOOTH",
"1042 1298 OFFCURVE",
"1135 1263 OFFCURVE",
"1206 1129 CURVE SMOOTH",
"1234 1076 OFFCURVE",
"1268 1049 OFFCURVE",
"1286 1049 CURVE SMOOTH",
"1330 1049 OFFCURVE",
"1339 1089 OFFCURVE",
"1352 1168 CURVE SMOOTH",
"1368 1271 OFFCURVE",
"1363 1347 OFFCURVE",
"1317 1349 CURVE SMOOTH",
"1213 1353 OFFCURVE",
"1009 1401 OFFCURVE",
"913 1401 CURVE SMOOTH",
"513 1401 OFFCURVE",
"177 1117 OFFCURVE",
"112 711 CURVE SMOOTH",
"44 279 OFFCURVE",
"239 -20 OFFCURVE",
"655 -23 CURVE SMOOTH"
);
}
);
width = 1471;
},
{
layerId = "5CBF0BAD-1756-4F16-9711-93DC239D102B";
paths = (
{
closed = 1;
nodes = (
"973 -17 OFFCURVE",
"1217 28 OFFCURVE",
"1273 222 CURVE SMOOTH",
"1290 281 OFFCURVE",
"1313 386 OFFCURVE",
"1337 459 CURVE SMOOTH",
"1351 501 OFFCURVE",
"1404 545 OFFCURVE",
"1410 586 CURVE SMOOTH",
"1421 658 OFFCURVE",
"1285 662 OFFCURVE",
"1148 662 CURVE SMOOTH",
"1024 662 OFFCURVE",
"958 642 OFFCURVE",
"952 603 CURVE SMOOTH",
"946 565 OFFCURVE",
"1026 490 OFFCURVE",
"1011 397 CURVE SMOOTH",
"983 222 OFFCURVE",
"903 150 OFFCURVE",
"765 149 CURVE SMOOTH",
"533 147 OFFCURVE",
"388 371 OFFCURVE",
"441 706 CURVE SMOOTH",
"486 992 OFFCURVE",
"656 1235 OFFCURVE",
"911 1237 CURVE SMOOTH",
"1034 1238 OFFCURVE",
"1077 1215 OFFCURVE",
"1199 1111 CURVE SMOOTH",
"1260 1059 OFFCURVE",
"1300 1033 OFFCURVE",
"1319 1033 CURVE SMOOTH",
"1359 1033 OFFCURVE",
"1387 1084 OFFCURVE",
"1403 1186 CURVE SMOOTH",
"1426 1334 OFFCURVE",
"1350 1384 OFFCURVE",
"1219 1384 CURVE SMOOTH",
"1134 1384 OFFCURVE",
"986 1402 OFFCURVE",
"947 1402 CURVE SMOOTH",
"543 1402 OFFCURVE",
"198 1107 OFFCURVE",
"134 708 CURVE SMOOTH",
"65 275 OFFCURVE",
"265 -17 OFFCURVE",
"682 -17 CURVE SMOOTH"
);
}
);
width = 1457;
}
);
note = uni0047;
unicode = 0047;
},
{
glyphname = H;
layers = (
{
layerId = "92A672BF-229C-4BEC-8D25-4DDBB2A38145";
paths = (
{
closed = 1;
nodes = (
"392 -6 OFFCURVE",
"468 0 OFFCURVE",
"472 25 CURVE SMOOTH",
"475 44 OFFCURVE",
"412 114 OFFCURVE",
"405 146 CURVE SMOOTH",
"398 170 OFFCURVE",
"419 312 OFFCURVE",
"444 437 CURVE SMOOTH",
"463 532 OFFCURVE",
"484 616 OFFCURVE",
"501 631 CURVE SMOOTH",
"523 651 OFFCURVE",
"640 667 OFFCURVE",
"804 667 CURVE SMOOTH",
"969 667 OFFCURVE",
"1065 658 OFFCURVE",
"1092 639 CURVE SMOOTH",
"1119 620 OFFCURVE",
"1121 541 OFFCURVE",
"1099 402 CURVE SMOOTH",
"1077 263 OFFCURVE",
"1041 156 OFFCURVE",
"1020 131 CURVE SMOOTH",
"1006 114 OFFCURVE",
"945 55 OFFCURVE",
"943 38 CURVE SMOOTH",
"938 11 OFFCURVE",
"1011 -3 OFFCURVE",
"1160 -3 CURVE SMOOTH",
"1309 -3 OFFCURVE",
"1386 11 OFFCURVE",
"1391 40 CURVE SMOOTH",
"1395 67 OFFCURVE",
"1314 97 OFFCURVE",
"1298 127 CURVE SMOOTH",
"1266 183 OFFCURVE",
"1287 253 OFFCURVE",
"1387 842 CURVE SMOOTH",
"1423 1073 OFFCURVE",
"1447 1198 OFFCURVE",
"1457 1219 CURVE SMOOTH",
"1481 1270 OFFCURVE",
"1596 1296 OFFCURVE",
"1604 1345 CURVE SMOOTH",
"1608 1372 OFFCURVE",
"1564 1385 OFFCURVE",
"1471 1385 CURVE SMOOTH",
"1251 1385 OFFCURVE",
"1139 1373 OFFCURVE",
"1135 1348 CURVE SMOOTH",
"1132 1329 OFFCURVE",
"1145 1316 OFFCURVE",
"1194 1258 CURVE SMOOTH",
"1223 1209 OFFCURVE",
"1210 1146 OFFCURVE",
"1193 1054 CURVE SMOOTH",
"1162 880 OFFCURVE",
"1147 823 OFFCURVE",
"1116 803 CURVE SMOOTH",
"1091 787 OFFCURVE",
"928 779 OFFCURVE",
"782 779 CURVE SMOOTH",
"675 779 OFFCURVE",
"560 793 OFFCURVE",
"538 806 CURVE SMOOTH",
"524 814 OFFCURVE",
"522 895 OFFCURVE",
"534 999 CURVE SMOOTH",
"543 1084 OFFCURVE",
"565 1192 OFFCURVE",
"571 1227 CURVE SMOOTH",
"579 1279 OFFCURVE",
"675 1303 OFFCURVE",
"683 1351 CURVE SMOOTH",
"686 1375 OFFCURVE",
"632 1387 OFFCURVE",
"518 1387 CURVE SMOOTH",
"323 1387 OFFCURVE",
"223 1372 OFFCURVE",
"219 1346 CURVE SMOOTH",
"214 1316 OFFCURVE",
"329 1257 OFFCURVE",
"329 1194 CURVE SMOOTH",
"329 1147 OFFCURVE",
"308 974 OFFCURVE",
"260 675 CURVE SMOOTH",
"213 376 OFFCURVE",
"179 211 OFFCURVE",
"167 179 CURVE SMOOTH",
"149 131 OFFCURVE",
"17 91 OFFCURVE",
"10 45 CURVE SMOOTH",
"4 7 OFFCURVE",
"69 -5 OFFCURVE",
"230 -5 CURVE SMOOTH"
);
}
);
width = 1608;
},
{
layerId = "5CBF0BAD-1756-4F16-9711-93DC239D102B";
paths = (
{
closed = 1;
nodes = (
"493 0 OFFCURVE",
"603 20 OFFCURVE",
"610 63 CURVE SMOOTH",
"615 93 OFFCURVE",
"593 124 OFFCURVE",
"566 161 CURVE SMOOTH",
"534 205 OFFCURVE",
"520 261 OFFCURVE",
"548 440 CURVE SMOOTH",
"562 529 OFFCURVE",
"577 583 OFFCURVE",
"591 602 CURVE SMOOTH",
"611 630 OFFCURVE",
"670 642 OFFCURVE",
"862 642 CURVE SMOOTH",
"1017 642 OFFCURVE",
"1097 632 OFFCURVE",
"1118 613 CURVE SMOOTH",
"1140 593 OFFCURVE",
"1143 542 OFFCURVE",
"1131 461 CURVE SMOOTH",
"1116 362 OFFCURVE",
"1086 255 OFFCURVE",
"1046 197 CURVE SMOOTH",
"1016 154 OFFCURVE",
"962 98 OFFCURVE",
"955 55 CURVE SMOOTH",
"946 -3 OFFCURVE",
"1015 -9 OFFCURVE",
"1248 -9 CURVE SMOOTH",
"1414 -9 OFFCURVE",
"1477 6 OFFCURVE",
"1481 35 CURVE SMOOTH",
"1488 89 OFFCURVE",
"1425 124 OFFCURVE",
"1396 153 CURVE SMOOTH",
"1372 177 OFFCURVE",
"1381 271 OFFCURVE",
"1465 776 CURVE SMOOTH",
"1502 999 OFFCURVE",
"1527 1126 OFFCURVE",
"1544 1157 CURVE SMOOTH",
"1563 1191 OFFCURVE",
"1673 1262 OFFCURVE",
"1679 1295 CURVE SMOOTH",
"1696 1389 OFFCURVE",
"1594 1380 OFFCURVE",
"1426 1380 CURVE SMOOTH",
"1201 1380 OFFCURVE",
"1148 1361 OFFCURVE",
"1141 1316 CURVE SMOOTH",
"1137 1291 OFFCURVE",
"1198 1182 OFFCURVE",
"1206 1132 CURVE SMOOTH",
"1212 1096 OFFCURVE",
"1207 1038 OFFCURVE",
"1193 959 CURVE SMOOTH",
"1181 889 OFFCURVE",
"1171 840 OFFCURVE",
"1152 827 CURVE SMOOTH",
"1117 803 OFFCURVE",
"1052 797 OFFCURVE",
"892 797 CURVE SMOOTH",
"751 797 OFFCURVE",
"674 803 OFFCURVE",
"661 814 CURVE SMOOTH",
"639 832 OFFCURVE",
"635 899 OFFCURVE",
"655 1031 CURVE SMOOTH",
"666 1102 OFFCURVE",
"686 1143 OFFCURVE",
"751 1242 CURVE SMOOTH",
"783 1291 OFFCURVE",
"800 1324 OFFCURVE",
"803 1340 CURVE SMOOTH",
"809 1374 OFFCURVE",
"768 1391 OFFCURVE",
"574 1391 CURVE SMOOTH",
"347 1391 OFFCURVE",
"265 1370 OFFCURVE",
"260 1341 CURVE SMOOTH",
"246 1262 OFFCURVE",
"357 1229 OFFCURVE",
"363 1173 CURVE SMOOTH",
"366 1143 OFFCURVE",
"347 986 OFFCURVE",
"301 699 CURVE SMOOTH",
"255 412 OFFCURVE",
"236 291 OFFCURVE",
"214 225 CURVE SMOOTH",
"195 167 OFFCURVE",
"84 119 OFFCURVE",
"78 81 CURVE SMOOTH",
"68 19 OFFCURVE",
"82 0 OFFCURVE",
"261 0 CURVE SMOOTH"
);
}
);
width = 1601;
}
);
note = uni0048;
unicode = 0048;
},
{
glyphname = I;
layers = (
{
anchors = (
{
name = top;
position = "{534, 1388}";
}
);
layerId = "92A672BF-229C-4BEC-8D25-4DDBB2A38145";
paths = (
{
closed = 1;
nodes = (
"388 1 OFFCURVE",
"533 -15 OFFCURVE",
"541 38 CURVE SMOOTH",
"548 78 OFFCURVE",
"462 104 OFFCURVE",
"439 142 CURVE SMOOTH",
"423 168 OFFCURVE",
"421 293 OFFCURVE",
"495 700 CURVE SMOOTH",
"560 1052 OFFCURVE",
"579 1202 OFFCURVE",
"596 1238 CURVE SMOOTH",
"620 1286 OFFCURVE",
"729 1301 OFFCURVE",
"735 1337 CURVE SMOOTH",
"742 1379 OFFCURVE",
"691 1388 OFFCURVE",
"489 1387 CURVE SMOOTH",
"386 1386 OFFCURVE",
"220 1374 OFFCURVE",
"216 1347 CURVE SMOOTH",
"213 1330 OFFCURVE",
"288 1297 OFFCURVE",
"319 1257 CURVE SMOOTH",
"364 1202 OFFCURVE",
"340 977 OFFCURVE",
"285 703 CURVE SMOOTH",
"230 357 OFFCURVE",
"190 204 OFFCURVE",
"162 151 CURVE SMOOTH",
"136 100 OFFCURVE",
"20 79 OFFCURVE",
"13 34 CURVE SMOOTH",
"8 4 OFFCURVE",
"79 -1 OFFCURVE",
"269 1 CURVE SMOOTH"
);
}
);
width = 756;
},
{
anchors = (
{
name = top;
position = "{537, 1416}";
}
);
layerId = "5CBF0BAD-1756-4F16-9711-93DC239D102B";
paths = (
{
closed = 1;
nodes = (
"605 0 OFFCURVE",
"636 11 OFFCURVE",
"644 58 CURVE SMOOTH",
"651 97 OFFCURVE",
"541 160 OFFCURVE",
"534 228 CURVE SMOOTH",
"531 258 OFFCURVE",
"554 427 OFFCURVE",
"597 700 CURVE SMOOTH",
"663 1121 OFFCURVE",
"683 1176 OFFCURVE",
"726 1224 CURVE SMOOTH",
"758 1259 OFFCURVE",
"836 1311 OFFCURVE",
"842 1345 CURVE SMOOTH",
"850 1388 OFFCURVE",
"828 1394 OFFCURVE",
"581 1394 CURVE SMOOTH",
"280 1394 OFFCURVE",
"251 1382 OFFCURVE",
"244 1342 CURVE SMOOTH",
"240 1318 OFFCURVE",
"274 1284 OFFCURVE",
"319 1242 CURVE SMOOTH",
"381 1185 OFFCURVE",
"379 1146 OFFCURVE",
"310 705 CURVE SMOOTH",
"268 438 OFFCURVE",
"242 284 OFFCURVE",
"223 246 CURVE SMOOTH",
"180 160 OFFCURVE",
"54 108 OFFCURVE",
"46 58 CURVE SMOOTH",
"38 11 OFFCURVE",
"125 0 OFFCURVE",
"345 0 CURVE SMOOTH"
);
}
);
width = 791;
}
);
note = uni0049;
unicode = 0049;
},
{
glyphname = J;
layers = (
{
layerId = "92A672BF-229C-4BEC-8D25-4DDBB2A38145";
paths = (
{
closed = 1;
nodes = (
"356 -236 OFFCURVE",
"508 145 OFFCURVE",
"573 551 CURVE SMOOTH",
"664 1099 OFFCURVE",
"684 1211 OFFCURVE",
"695 1232 CURVE SMOOTH",
"710 1263 OFFCURVE",
"813 1300 OFFCURVE",
"819 1338 CURVE SMOOTH",
"826 1378 OFFCURVE",
"793 1393 OFFCURVE",
"730 1393 CURVE SMOOTH",
"473 1393 OFFCURVE",
"342 1378 OFFCURVE",
"337 1348 CURVE SMOOTH",
"331 1309 OFFCURVE",
"431 1273 OFFCURVE",
"444 1226 CURVE SMOOTH",
"458 1172 OFFCURVE",
"445 1062 OFFCURVE",
"386 654 CURVE SMOOTH",
"295 78 OFFCURVE",
"246 -76 OFFCURVE",
"18 -61 CURVE SMOOTH",
"-62 -61 OFFCURVE",
"-118 -103 OFFCURVE",
"-127 -158 CURVE SMOOTH",
"-135 -210 OFFCURVE",
"-84 -236 OFFCURVE",
"25 -236 CURVE SMOOTH"
);
}
);
width = 811;
},
{
layerId = "5CBF0BAD-1756-4F16-9711-93DC239D102B";
paths = (
{
closed = 1;
nodes = (
"515 -244 OFFCURVE",
"622 113 OFFCURVE",
"734 844 CURVE SMOOTH",
"753 968 OFFCURVE",
"770 1057 OFFCURVE",
"789 1111 CURVE SMOOTH",
"816 1187 OFFCURVE",
"912 1312 OFFCURVE",
"917 1347 CURVE SMOOTH",
"921 1377 OFFCURVE",
"875 1396 OFFCURVE",
"775 1394 CURVE SMOOTH",
"387 1386 OFFCURVE",
"362 1377 OFFCURVE",
"355 1333 CURVE SMOOTH",
"350 1302 OFFCURVE",
"393 1261 OFFCURVE",
"439 1194 CURVE SMOOTH",
"477 1139 OFFCURVE",
"478 1070 OFFCURVE",
"355 404 CURVE SMOOTH",
"312 171 OFFCURVE",
"254 25 OFFCURVE",
"101 1 CURVE SMOOTH",
"-1 -15 OFFCURVE",
"-59 -59 OFFCURVE",
"-71 -130 CURVE SMOOTH",
"-86 -217 OFFCURVE",
"-39 -244 OFFCURVE",
"92 -244 CURVE SMOOTH"
);
}
);
width = 859;
}
);
note = uni004A;
unicode = 004A;
},
{
glyphname = K;
layers = (
{
layerId = "92A672BF-229C-4BEC-8D25-4DDBB2A38145";
paths = (
{
closed = 1;
nodes = (
"1205 -1 OFFCURVE",
"1267 14 OFFCURVE",
"1271 43 CURVE SMOOTH",
"1275 69 OFFCURVE",
"1195 88 OFFCURVE",
"1074 278 CURVE SMOOTH",
"882 577 OFFCURVE",
"792 743 OFFCURVE",
"798 777 CURVE SMOOTH",
"804 819 OFFCURVE",
"887 900 OFFCURVE",
"987 1001 CURVE SMOOTH",
"1198 1214 OFFCURVE",
"1389 1299 OFFCURVE",
"1399 1358 CURVE SMOOTH",
"1403 1387 OFFCURVE",
"1350 1396 OFFCURVE",
"1236 1396 CURVE SMOOTH",
"1096 1396 OFFCURVE",
"1061 1361 OFFCURVE",
"1058 1341 CURVE SMOOTH",
"1054 1314 OFFCURVE",
"1049 1282 OFFCURVE",
"1034 1245 CURVE SMOOTH",
"1017 1203 OFFCURVE",
"989 1154 OFFCURVE",
"936 1098 CURVE SMOOTH",
"841 996 OFFCURVE",
"598 768 OFFCURVE",
"548 768 CURVE SMOOTH",
"517 768 OFFCURVE",
"506 798 OFFCURVE",
"515 858 CURVE SMOOTH",
"543 1032 OFFCURVE",
"559 1128 OFFCURVE",
"576 1175 CURVE SMOOTH",
"605 1262 OFFCURVE",
"672 1319 OFFCURVE",
"677 1349 CURVE SMOOTH",
"682 1380 OFFCURVE",
"643 1396 OFFCURVE",
"559 1396 CURVE SMOOTH",
"307 1396 OFFCURVE",
"231 1387 OFFCURVE",
"224 1344 CURVE SMOOTH",
"218 1304 OFFCURVE",
"328 1244 OFFCURVE",
"329 1212 CURVE SMOOTH",
"331 1165 OFFCURVE",
"305 972 OFFCURVE",
"261 695 CURVE SMOOTH",
"217 418 OFFCURVE",
"183 235 OFFCURVE",
"164 186 CURVE SMOOTH",
"145 137 OFFCURVE",
"25 88 OFFCURVE",
"17 37 CURVE SMOOTH",
"14 14 OFFCURVE",
"68 0 OFFCURVE",
"181 0 CURVE SMOOTH",
"373 0 OFFCURVE",
"471 17 OFFCURVE",
"475 43 CURVE SMOOTH",
"480 74 OFFCURVE",
"414 157 OFFCURVE",
"414 198 CURVE SMOOTH",
"414 234 OFFCURVE",
"420 304 OFFCURVE",
"436 409 CURVE SMOOTH",
"460 560 OFFCURVE",
"501 635 OFFCURVE",
"559 635 CURVE SMOOTH",
"617 635 OFFCURVE",
"704 516 OFFCURVE",
"821 279 CURVE SMOOTH",
"828 263 OFFCURVE",
"918 40 OFFCURVE",
"915 43 CURVE SMOOTH",
"946 6 OFFCURVE",
"985 -1 OFFCURVE",
"1085 -1 CURVE SMOOTH"
);
}
);
width = 1442;
},
{
layerId = "5CBF0BAD-1756-4F16-9711-93DC239D102B";
paths = (
{
closed = 1;
nodes = (
"1297 -2 OFFCURVE",
"1357 14 OFFCURVE",
"1365 60 CURVE SMOOTH",
"1369 84 OFFCURVE",
"1321 114 OFFCURVE",
"1232 215 CURVE SMOOTH",
"1179 275 OFFCURVE",
"863 715 OFFCURVE",
"868 744 CURVE SMOOTH",
"874 781 OFFCURVE",
"1034 927 OFFCURVE",
"1253 1093 CURVE SMOOTH",
"1402 1206 OFFCURVE",
"1517 1278 OFFCURVE",
"1522 1314 CURVE SMOOTH",
"1527 1347 OFFCURVE",
"1484 1371 OFFCURVE",
"1376 1371 CURVE SMOOTH",
"1265 1371 OFFCURVE",
"1083 1371 OFFCURVE",
"1072 1300 CURVE SMOOTH",
"1067 1268 OFFCURVE",
"1092 1216 OFFCURVE",
"1087 1185 CURVE SMOOTH",
"1082 1152 OFFCURVE",
"1064 1124 OFFCURVE",
"952 1023 CURVE SMOOTH",
"770 859 OFFCURVE",
"664 775 OFFCURVE",
"632 775 CURVE SMOOTH",
"613 775 OFFCURVE",
"626 871 OFFCURVE",
"645 967 CURVE SMOOTH",
"656 1023 OFFCURVE",
"682 1102 OFFCURVE",
"688 1132 CURVE SMOOTH",
"702 1204 OFFCURVE",
"813 1268 OFFCURVE",
"820 1310 CURVE SMOOTH",
"827 1350 OFFCURVE",
"740 1370 OFFCURVE",
"663 1372 CURVE SMOOTH",
"391 1379 OFFCURVE",
"300 1364 OFFCURVE",
"294 1322 CURVE SMOOTH",
"287 1272 OFFCURVE",
"370 1178 OFFCURVE",
"376 1109 CURVE SMOOTH",
"379 1074 OFFCURVE",
"360 956 OFFCURVE",
"319 697 CURVE SMOOTH",
"278 438 OFFCURVE",
"249 289 OFFCURVE",
"237 250 CURVE SMOOTH",
"217 185 OFFCURVE",
"100 102 OFFCURVE",
"93 61 CURVE SMOOTH",
"86 18 OFFCURVE",
"178 1 OFFCURVE",
"269 1 CURVE SMOOTH",
"526 1 OFFCURVE",
"588 17 OFFCURVE",
"596 74 CURVE SMOOTH",
"601 112 OFFCURVE",
"573 202 OFFCURVE",
"564 239 CURVE SMOOTH",
"554 282 OFFCURVE",
"546 344 OFFCURVE",
"555 400 CURVE SMOOTH",
"573 514 OFFCURVE",
"605 588 OFFCURVE",
"667 588 CURVE SMOOTH",
"760 588 OFFCURVE",
"861 395 OFFCURVE",
"915 222 CURVE SMOOTH",
"942 135 OFFCURVE",
"960 84 OFFCURVE",
"971 68 CURVE SMOOTH",
"1003 22 OFFCURVE",
"1042 -2 OFFCURVE",
"1092 -2 CURVE SMOOTH"
);
}
);
width = 1488;
}
);
note = uni004B;
unicode = 004B;
},
{
glyphname = L;
layers = (
{
layerId = "92A672BF-229C-4BEC-8D25-4DDBB2A38145";
paths = (
{
closed = 1;
nodes = (
"836 -2 OFFCURVE",
"966 1 OFFCURVE",
"1000 27 CURVE SMOOTH",
"1043 59 OFFCURVE",
"1076 147 OFFCURVE",
"1099 291 CURVE SMOOTH",
"1105 332 OFFCURVE",
"1096 353 OFFCURVE",
"1072 353 CURVE SMOOTH",
"1052 353 OFFCURVE",
"879 165 OFFCURVE",
"845 148 CURVE SMOOTH",
"807 129 OFFCURVE",
"731 122 OFFCURVE",
"651 120 CURVE SMOOTH",
"541 117 OFFCURVE",
"426 130 OFFCURVE",
"412 165 CURVE SMOOTH",
"403 186 OFFCURVE",
"423 348 OFFCURVE",
"471 651 CURVE SMOOTH",
"519 954 OFFCURVE",
"549 1160 OFFCURVE",
"583 1214 CURVE SMOOTH",
"616 1268 OFFCURVE",
"729 1309 OFFCURVE",
"735 1346 CURVE SMOOTH",
"740 1378 OFFCURVE",
"702 1388 OFFCURVE",
"486 1393 CURVE SMOOTH",
"292 1397 OFFCURVE",
"223 1401 OFFCURVE",
"218 1354 CURVE SMOOTH",
"214 1308 OFFCURVE",
"318 1308 OFFCURVE",
"334 1256 CURVE SMOOTH",
"348 1205 OFFCURVE",
"326 1112 OFFCURVE",
"238 583 CURVE SMOOTH",
"203 362 OFFCURVE",
"175 230 OFFCURVE",
"158 189 CURVE SMOOTH",
"131 127 OFFCURVE",
"15 68 OFFCURVE",
"11 39 CURVE SMOOTH",
"7 14 OFFCURVE",
"164 -1 OFFCURVE",
"484 -1 CURVE SMOOTH"
);
}
);
width = 1213;
},
{
layerId = "5CBF0BAD-1756-4F16-9711-93DC239D102B";
paths = (
{
closed = 1;
nodes = (
"947 1 OFFCURVE",
"1044 0 OFFCURVE",
"1079 28 CURVE SMOOTH",
"1100 45 OFFCURVE",
"1169 199 OFFCURVE",
"1183 299 CURVE SMOOTH",
"1191 355 OFFCURVE",
"1191 379 OFFCURVE",
"1153 379 CURVE SMOOTH",
"1070 379 OFFCURVE",
"967 240 OFFCURVE",
"841 176 CURVE SMOOTH",
"792 151 OFFCURVE",
"727 142 OFFCURVE",
"629 142 CURVE SMOOTH",
"541 142 OFFCURVE",
"518 188 OFFCURVE",
"515 217 CURVE SMOOTH",
"512 246 OFFCURVE",
"532 397 OFFCURVE",
"575 671 CURVE SMOOTH",
"618 944 OFFCURVE",
"650 1097 OFFCURVE",
"659 1129 CURVE SMOOTH",
"685 1223 OFFCURVE",
"817 1277 OFFCURVE",
"827 1340 CURVE SMOOTH",
"833 1378 OFFCURVE",
"793 1389 OFFCURVE",
"708 1389 CURVE SMOOTH",
"299 1389 OFFCURVE",
"246 1374 OFFCURVE",
"239 1333 CURVE SMOOTH",
"229 1277 OFFCURVE",
"325 1239 OFFCURVE",
"344 1193 CURVE SMOOTH",
"365 1143 OFFCURVE",
"330 894 OFFCURVE",
"295 688 CURVE SMOOTH",
"264 505 OFFCURVE",
"219 276 OFFCURVE",
"198 219 CURVE SMOOTH",
"182 176 OFFCURVE",
"65 106 OFFCURVE",
"57 58 CURVE SMOOTH",
"49 7 OFFCURVE",
"69 -2 OFFCURVE",
"387 -1 CURVE SMOOTH"
);
}
);
width = 1230;
}
);
note = uni004C;
unicode = 004C;
},
{
glyphname = Lslash;
layers = (
{
layerId = "92A672BF-229C-4BEC-8D25-4DDBB2A38145";
paths = (
{
closed = 1;
nodes = (
"818 5 LINE SMOOTH",
"1033 5 OFFCURVE",
"1088 61 OFFCURVE",
"1121 269 CURVE SMOOTH",
"1130 322 OFFCURVE",
"1122 347 OFFCURVE",
"1101 345 CURVE SMOOTH",
"1081 343 OFFCURVE",
"1048 316 OFFCURVE",
"1005 267 CURVE SMOOTH",
"913 162 OFFCURVE",
"845 104 OFFCURVE",
"647 104 CURVE SMOOTH",
"449 104 OFFCURVE",
"407 147 OFFCURVE",
"441 364 CURVE SMOOTH",
"453 439 OFFCURVE",
"485 559 OFFCURVE",
"540 608 CURVE SMOOTH",
"642 700 OFFCURVE",
"826 808 OFFCURVE",
"836 867 CURVE SMOOTH",
"839 889 OFFCURVE",
"828 896 OFFCURVE",
"808 894 CURVE SMOOTH",
"752 889 OFFCURVE",
"627 814 OFFCURVE",
"572 814 CURVE SMOOTH",
"533 814 OFFCURVE",
"533 903 OFFCURVE",
"546 994 CURVE SMOOTH",
"555 1064 OFFCURVE",
"573 1135 OFFCURVE",
"588 1170 CURVE SMOOTH",
"600 1196 OFFCURVE",
"715 1295 OFFCURVE",
"720 1326 CURVE SMOOTH",
"726 1370 OFFCURVE",
"642 1372 OFFCURVE",
"366 1372 CURVE SMOOTH",
"287 1372 OFFCURVE",
"245 1356 OFFCURVE",
"240 1325 CURVE SMOOTH",
"236 1295 OFFCURVE",
"334 1212 OFFCURVE",
"337 1195 CURVE SMOOTH",
"343 1168 OFFCURVE",
"336 1094 OFFCURVE",
"317 975 CURVE SMOOTH",
"298 856 OFFCURVE",
"277 779 OFFCURVE",
"266 743 CURVE SMOOTH",
"249 685 OFFCURVE",
"121 595 OFFCURVE",
"113 546 CURVE SMOOTH",
"106 499 OFFCURVE",
"195 505 OFFCURVE",
"214 476 CURVE SMOOTH",
"226 454 OFFCURVE",
"224 396 OFFCURVE",
"215 335 CURVE SMOOTH",
"206 274 OFFCURVE",
"189 210 OFFCURVE",
"172 178 CURVE SMOOTH",
"156 147 OFFCURVE",
"35 55 OFFCURVE",
"31 31 CURVE SMOOTH",
"28 9 OFFCURVE",
"66 -2 OFFCURVE",
"146 -2 CURVE SMOOTH"
);
}
);
width = 1252;
},
{
layerId = "5CBF0BAD-1756-4F16-9711-93DC239D102B";
paths = (
{
closed = 1;
nodes = (
"912 0 LINE SMOOTH",
"1087 0 OFFCURVE",
"1133 32 OFFCURVE",
"1171 287 CURVE SMOOTH",
"1179 341 OFFCURVE",
"1180 364 OFFCURVE",
"1147 364 CURVE SMOOTH",
"1074 364 OFFCURVE",
"955 227 OFFCURVE",
"892 189 CURVE SMOOTH",
"829 151 OFFCURVE",
"771 132 OFFCURVE",
"718 132 CURVE SMOOTH",
"554 132 OFFCURVE",
"490 189 OFFCURVE",
"516 354 CURVE SMOOTH",
"556 607 OFFCURVE",
"610 658 OFFCURVE",
"766 762 CURVE SMOOTH",
"844 814 OFFCURVE",
"885 852 OFFCURVE",
"889 877 CURVE SMOOTH",
"897 927 OFFCURVE",
"884 948 OFFCURVE",
"854 947 CURVE SMOOTH",
"795 945 OFFCURVE",
"689 859 OFFCURVE",
"639 859 CURVE SMOOTH",
"612 859 OFFCURVE",
"604 890 OFFCURVE",
"614 953 CURVE SMOOTH",
"624 1015 OFFCURVE",
"641 1076 OFFCURVE",
"679 1125 CURVE SMOOTH",
"733 1195 OFFCURVE",
"791 1238 OFFCURVE",
"794 1259 CURVE SMOOTH",
"800 1298 OFFCURVE",
"750 1317 OFFCURVE",
"645 1317 CURVE SMOOTH",
"296 1317 OFFCURVE",
"268 1310 OFFCURVE",
"262 1273 CURVE SMOOTH",
"255 1230 OFFCURVE",
"359 1174 OFFCURVE",
"374 1121 CURVE SMOOTH",
"381 1096 OFFCURVE",
"371 1001 OFFCURVE",
"359 919 CURVE SMOOTH",
"340 790 OFFCURVE",
"318 710 OFFCURVE",
"301 692 CURVE SMOOTH",
"212 597 OFFCURVE",
"145 525 OFFCURVE",
"137 476 CURVE SMOOTH",
"132 444 OFFCURVE",
"156 429 OFFCURVE",
"221 429 CURVE SMOOTH",
"267 429 OFFCURVE",
"278 405 OFFCURVE",
"266 330 CURVE SMOOTH",
"258 279 OFFCURVE",
"242 221 OFFCURVE",
"217 190 CURVE SMOOTH",
"134 87 OFFCURVE",
"66 64 OFFCURVE",
"59 30 CURVE SMOOTH",
"55 10 OFFCURVE",
"87 0 OFFCURVE",
"153 0 CURVE SMOOTH"
);
}
);
width = 1253;
}
);
note = uni0141;
unicode = 0141;
},
{
glyphname = M;
layers = (
{
layerId = "92A672BF-229C-4BEC-8D25-4DDBB2A38145";
paths = (
{
closed = 1;
nodes = (
"259 6 OFFCURVE",
"349 34 OFFCURVE",
"353 58 CURVE SMOOTH",
"360 106 OFFCURVE",
"338 129 OFFCURVE",
"333 216 CURVE SMOOTH",
"326 303 OFFCURVE",
"325 354 OFFCURVE",
"335 417 CURVE SMOOTH",
"401 836 OFFCURVE",
"458 1065 OFFCURVE",
"481 1067 CURVE SMOOTH",
"502 1069 OFFCURVE",
"547 928 OFFCURVE",
"617 650 CURVE SMOOTH",
"704 301 OFFCURVE",
"745 81 OFFCURVE",
"806 81 CURVE SMOOTH",
"864 81 OFFCURVE",
"897 136 OFFCURVE",
"1222 693 CURVE SMOOTH",
"1375 948 OFFCURVE",
"1456 1075 OFFCURVE",
"1465 1075 CURVE SMOOTH",
"1485 1014 OFFCURVE",
"1477 899 OFFCURVE",
"1440 644 CURVE SMOOTH",
"1430 571 OFFCURVE",
"1417 487 OFFCURVE",
"1401 389 CURVE SMOOTH",
"1379 248 OFFCURVE",
"1316 158 OFFCURVE",
"1302 100 CURVE SMOOTH",
"1282 10 OFFCURVE",
"1349 16 OFFCURVE",
"1460 17 CURVE SMOOTH",
"1580 18 OFFCURVE",
"1674 0 OFFCURVE",
"1683 55 CURVE SMOOTH",
"1687 79 OFFCURVE",
"1589 180 OFFCURVE",
"1588 216 CURVE SMOOTH",
"1584 329 OFFCURVE",
"1585 408 OFFCURVE",
"1657 865 CURVE SMOOTH",
"1668 934 OFFCURVE",
"1718 1195 OFFCURVE",
"1744 1230 CURVE SMOOTH",
"1767 1260 OFFCURVE",
"1831 1289 OFFCURVE",
"1836 1326 CURVE SMOOTH",
"1842 1360 OFFCURVE",
"1804 1377 OFFCURVE",
"1724 1377 CURVE SMOOTH",
"1596 1377 OFFCURVE",
"1542 1365 OFFCURVE",
"1469 1270 CURVE SMOOTH",
"1440 1233 OFFCURVE",
"916 402 OFFCURVE",
"890 403 CURVE SMOOTH",
"846 405 OFFCURVE",
"648 1201 OFFCURVE",
"642 1218 CURVE SMOOTH",
"598 1335 OFFCURVE",
"553 1374 OFFCURVE",
"428 1374 CURVE SMOOTH",
"321 1374 OFFCURVE",
"266 1361 OFFCURVE",
"262 1335 CURVE SMOOTH",
"259 1319 OFFCURVE",
"334 1236 OFFCURVE",
"344 1207 CURVE SMOOTH",
"355 1170 OFFCURVE",
"334 979 OFFCURVE",
"318 879 CURVE SMOOTH",
"309 824 OFFCURVE",
"219 383 OFFCURVE",
"167 220 CURVE SMOOTH",
"151 170 OFFCURVE",
"25 106 OFFCURVE",
"19 69 CURVE SMOOTH",
"12 24 OFFCURVE",
"92 7 OFFCURVE",
"174 6 CURVE SMOOTH"
);
}
);
width = 1902;
},
{
layerId = "5CBF0BAD-1756-4F16-9711-93DC239D102B";
paths = (
{
closed = 1;
nodes = (
"363 21 OFFCURVE",
"440 42 OFFCURVE",
"445 74 CURVE SMOOTH",
"451 113 OFFCURVE",
"451 167 OFFCURVE",
"457 230 CURVE SMOOTH",
"469 358 OFFCURVE",
"482 523 OFFCURVE",
"506 674 CURVE SMOOTH",
"535 857 OFFCURVE",
"559 949 OFFCURVE",
"580 949 CURVE SMOOTH",
"600 949 OFFCURVE",
"658 741 OFFCURVE",
"716 500 CURVE SMOOTH",
"812 101 OFFCURVE",
"834 59 OFFCURVE",
"898 59 CURVE SMOOTH",
"959 59 OFFCURVE",
"1001 83 OFFCURVE",
"1298 625 CURVE SMOOTH",
"1420 848 OFFCURVE",
"1485 959 OFFCURVE",
"1502 959 CURVE SMOOTH",
"1524 959 OFFCURVE",
"1472 716 OFFCURVE",
"1468 607 CURVE SMOOTH",
"1464 499 OFFCURVE",
"1446 375 OFFCURVE",
"1437 319 CURVE SMOOTH",
"1423 230 OFFCURVE",
"1282 123 OFFCURVE",
"1273 64 CURVE SMOOTH",
"1261 -13 OFFCURVE",
"1484 30 OFFCURVE",
"1641 30 CURVE SMOOTH",
"1721 30 OFFCURVE",
"1763 49 OFFCURVE",
"1770 87 CURVE SMOOTH",
"1775 116 OFFCURVE",
"1703 143 OFFCURVE",
"1679 208 CURVE SMOOTH",
"1658 264 OFFCURVE",
"1715 512 OFFCURVE",
"1733 660 CURVE SMOOTH",
"1776 1015 OFFCURVE",
"1782 1097 OFFCURVE",
"1824 1174 CURVE SMOOTH",
"1850 1222 OFFCURVE",
"1924 1262 OFFCURVE",
"1933 1321 CURVE SMOOTH",
"1937 1347 OFFCURVE",
"1867 1368 OFFCURVE",
"1722 1368 CURVE SMOOTH",
"1492 1368 OFFCURVE",
"1450 1222 OFFCURVE",
"1260 890 CURVE SMOOTH",
"1122 649 OFFCURVE",
"1053 537 OFFCURVE",
"1012 537 CURVE SMOOTH",
"981 537 OFFCURVE",
"894 841 OFFCURVE",
"857 1008 CURVE SMOOTH",
"790 1312 OFFCURVE",
"695 1381 OFFCURVE",
"439 1381 CURVE SMOOTH",
"369 1381 OFFCURVE",
"327 1363 OFFCURVE",
"321 1326 CURVE SMOOTH",
"315 1289 OFFCURVE",
"381 1150 OFFCURVE",
"385 1092 CURVE SMOOTH",
"392 995 OFFCURVE",
"350 800 OFFCURVE",
"301 569 CURVE SMOOTH",
"255 353 OFFCURVE",
"237 271 OFFCURVE",
"228 242 CURVE SMOOTH",
"213 195 OFFCURVE",
"117 115 OFFCURVE",
"109 68 CURVE SMOOTH",
"104 37 OFFCURVE",
"164 21 OFFCURVE",
"288 21 CURVE SMOOTH"
);
}
);
width = 1928;
}
);
note = uni004D;
unicode = 004D;
},
{
glyphname = N;
layers = (
{
anchors = (
{
name = top;
position = "{881, 1385}";
}
);
layerId = "92A672BF-229C-4BEC-8D25-4DDBB2A38145";
paths = (
{
closed = 1;
nodes = (
"337 0 OFFCURVE",
"385 19 OFFCURVE",
"391 56 CURVE SMOOTH",
"399 109 OFFCURVE",
"339 134 OFFCURVE",
"333 190 CURVE SMOOTH",
"324 271 OFFCURVE",
"352 500 OFFCURVE",
"384 700 CURVE SMOOTH",
"415 894 OFFCURVE",
"454 1101 OFFCURVE",
"467 1101 CURVE SMOOTH",
"492 1101 OFFCURVE",
"585 953 OFFCURVE",
"747 657 CURVE SMOOTH",
"908 360 OFFCURVE",
"1001 193 OFFCURVE",
"1026 154 CURVE SMOOTH",
"1084 65 OFFCURVE",
"1132 6 OFFCURVE",
"1174 6 CURVE SMOOTH",
"1228 6 OFFCURVE",
"1248 74 OFFCURVE",
"1297 367 CURVE SMOOTH",
"1353 700 LINE SMOOTH",
"1385 892 OFFCURVE",
"1427 1106 OFFCURVE",
"1454 1192 CURVE SMOOTH",
"1468 1239 OFFCURVE",
"1590 1287 OFFCURVE",
"1599 1342 CURVE SMOOTH",
"1602 1364 OFFCURVE",
"1542 1386 OFFCURVE",
"1413 1386 CURVE SMOOTH",
"1278 1386 OFFCURVE",
"1214 1369 OFFCURVE",
"1211 1346 CURVE SMOOTH",
"1207 1309 OFFCURVE",
"1271 1313 OFFCURVE",
"1300 1207 CURVE SMOOTH",
"1309 1174 OFFCURVE",
"1294 1078 OFFCURVE",
"1233 700 CURVE SMOOTH",
"1193 449 OFFCURVE",
"1169 366 OFFCURVE",
"1148 366 CURVE SMOOTH",
"1104 366 OFFCURVE",
"711 1139 OFFCURVE",
"581 1291 CURVE SMOOTH",
"525 1355 OFFCURVE",
"467 1382 OFFCURVE",
"310 1382 CURVE SMOOTH",
"261 1382 OFFCURVE",
"235 1372 OFFCURVE",
"230 1338 CURVE SMOOTH",
"225 1304 OFFCURVE",
"330 1257 OFFCURVE",
"335 1157 CURVE SMOOTH",
"338 1108 OFFCURVE",
"317 960 OFFCURVE",
"273 700 CURVE SMOOTH",
"239 501 OFFCURVE",
"209 295 OFFCURVE",
"172 195 CURVE SMOOTH",
"147 127 OFFCURVE",
"22 105 OFFCURVE",
"11 40 CURVE SMOOTH",
"7 12 OFFCURVE",
"80 5 OFFCURVE",
"175 3 CURVE SMOOTH"
);
}
);
width = 1592;
},
{
anchors = (
{
name = top;
position = "{912, 1374}";
}
);
layerId = "5CBF0BAD-1756-4F16-9711-93DC239D102B";
paths = (
{
closed = 1;
nodes = (
"411 7 OFFCURVE",
"475 25 OFFCURVE",
"482 64 CURVE SMOOTH",
"490 106 OFFCURVE",
"438 148 OFFCURVE",
"441 226 CURVE SMOOTH",
"447 371 OFFCURVE",
"451 534 OFFCURVE",
"480 715 CURVE SMOOTH",
"509 896 OFFCURVE",
"529 986 OFFCURVE",
"543 986 CURVE SMOOTH",
"575 986 OFFCURVE",
"662 853 OFFCURVE",
"801 587 CURVE SMOOTH",
"940 321 OFFCURVE",
"1018 179 OFFCURVE",
"1030 160 CURVE SMOOTH",
"1087 69 OFFCURVE",
"1141 17 OFFCURVE",
"1215 17 CURVE SMOOTH",
"1268 17 OFFCURVE",
"1294 37 OFFCURVE",
"1317 163 CURVE SMOOTH",
"1445 872 LINE SMOOTH",
"1470 1011 OFFCURVE",
"1478 1071 OFFCURVE",
"1487 1105 CURVE SMOOTH",
"1507 1180 OFFCURVE",
"1628 1206 OFFCURVE",
"1640 1279 CURVE SMOOTH",
"1649 1335 OFFCURVE",
"1575 1359 OFFCURVE",
"1334 1359 CURVE SMOOTH",
"1273 1359 OFFCURVE",
"1239 1344 OFFCURVE",
"1236 1314 CURVE SMOOTH",
"1235 1303 OFFCURVE",
"1243 1282 OFFCURVE",
"1263 1253 CURVE SMOOTH",
"1298 1202 OFFCURVE",
"1301 1079 OFFCURVE",
"1269 884 CURVE SMOOTH",
"1212 534 OFFCURVE",
"1177 498 OFFCURVE",
"1153 498 CURVE SMOOTH",
"1123 498 OFFCURVE",
"749 1189 OFFCURVE",
"709 1239 CURVE SMOOTH",
"636 1331 OFFCURVE",
"550 1376 OFFCURVE",
"442 1376 CURVE SMOOTH",
"304 1376 OFFCURVE",
"257 1364 OFFCURVE",
"246 1301 CURVE SMOOTH",
"235 1240 OFFCURVE",
"343 1200 OFFCURVE",
"353 1129 CURVE SMOOTH",
"370 1010 OFFCURVE",
"315 794 OFFCURVE",
"275 574 CURVE SMOOTH",
"222 282 OFFCURVE",
"211 239 OFFCURVE",
"198 204 CURVE SMOOTH",
"180 157 OFFCURVE",
"71 121 OFFCURVE",
"65 83 CURVE SMOOTH",
"53 7 OFFCURVE",
"117 7 OFFCURVE",
"230 7 CURVE SMOOTH"
);
}
);
width = 1562;
}
);
note = uni004E;
unicode = 004E;
},
{
glyphname = O;
layers = (
{
anchors = (
{
name = bottom;
position = "{625, -29}";
},
{
name = top;
position = "{853, 1416}";
}
);
layerId = "92A672BF-229C-4BEC-8D25-4DDBB2A38145";
paths = (
{
closed = 1;
nodes = (
"1033 -28 OFFCURVE",
"1349 299 OFFCURVE",
"1411 690 CURVE SMOOTH",
"1479 1124 OFFCURVE",
"1273 1412 OFFCURVE",
"902 1412 CURVE SMOOTH",
"479 1412 OFFCURVE",
"168 1126 OFFCURVE",
"100 699 CURVE SMOOTH",
"28 245 OFFCURVE",
"225 -28 OFFCURVE",
"650 -28 CURVE SMOOTH"
);
},
{
closed = 1;
nodes = (
"390 66 OFFCURVE",
"263 317 OFFCURVE",
"324 702 CURVE SMOOTH",
"385 1087 OFFCURVE",
"579 1320 OFFCURVE",
"841 1320 CURVE SMOOTH",
"1101 1320 OFFCURVE",
"1229 1070 OFFCURVE",
"1168 685 CURVE SMOOTH",
"1116 356 OFFCURVE",
"947 66 OFFCURVE",
"664 66 CURVE SMOOTH"
);
}
);
width = 1533;
},
{
anchors = (
{
name = bottom;
position = "{595, -33}";
},
{
name = top;
position = "{933, 1405}";
}
);
layerId = "5CBF0BAD-1756-4F16-9711-93DC239D102B";
paths = (
{
closed = 1;
nodes = (
"1119 -34 OFFCURVE",
"1437 263 OFFCURVE",
"1508 713 CURVE SMOOTH",
"1567 1089 OFFCURVE",
"1348 1406 OFFCURVE",
"983 1406 CURVE SMOOTH",
"539 1406 OFFCURVE",
"227 1123 OFFCURVE",
"157 682 CURVE SMOOTH",
"92 275 OFFCURVE",
"294 -34 OFFCURVE",
"685 -34 CURVE SMOOTH"
);
},
{
closed = 1;
nodes = (
"490 108 OFFCURVE",
"402 409 OFFCURVE",
"446 687 CURVE SMOOTH",
"504 1056 OFFCURVE",
"670 1267 OFFCURVE",
"898 1267 CURVE SMOOTH",
"1131 1267 OFFCURVE",
"1210 982 OFFCURVE",
"1166 706 CURVE SMOOTH",
"1103 308 OFFCURVE",
"954 108 OFFCURVE",
"714 108 CURVE SMOOTH"
);
}
);
width = 1533;
}
);
note = uni004F;
unicode = 004F;
},
{
glyphname = Oslash;
layers = (
{
layerId = "92A672BF-229C-4BEC-8D25-4DDBB2A38145";
paths = (
{
closed = 1;
nodes = (
"218 -68 OFFCURVE",
"329 -1 OFFCURVE",
"381 0 CURVE SMOOTH",
"423 1 OFFCURVE",
"486 -18 OFFCURVE",
"565 -18 CURVE SMOOTH",
"1001 -18 OFFCURVE",
"1315 291 OFFCURVE",
"1387 746 CURVE SMOOTH",
"1435 1050 OFFCURVE",
"1323 1170 OFFCURVE",
"1346 1312 CURVE SMOOTH",
"1350 1339 OFFCURVE",
"1359 1374 OFFCURVE",
"1353 1391 CURVE SMOOTH",
"1346 1415 OFFCURVE",
"1329 1421 OFFCURVE",
"1305 1419 CURVE SMOOTH",
"1255 1414 OFFCURVE",
"1182 1374 OFFCURVE",
"1129 1374 CURVE",
"1067 1379 OFFCURVE",
"1007 1385 OFFCURVE",
"946 1390 CURVE SMOOTH",
"499 1390 OFFCURVE",
"183 1089 OFFCURVE",
"112 640 CURVE SMOOTH",
"60 311 OFFCURVE",
"179 162 OFFCURVE",
"162 57 CURVE SMOOTH",
"156 33 OFFCURVE",
"135 21 OFFCURVE",
"132 -14 CURVE SMOOTH",
"128 -50 OFFCURVE",
"152 -68 OFFCURVE",
"184 -68 CURVE SMOOTH"
);
},
{
closed = 1;
nodes = (
"531 66 OFFCURVE",
"450 98 OFFCURVE",
"459 159 CURVE SMOOTH",
"462 178 OFFCURVE",
"677 448 OFFCURVE",
"857 700 CURVE SMOOTH",
"1009 913 OFFCURVE",
"1129 1116 OFFCURVE",
"1141 1116 CURVE SMOOTH",
"1173 1116 OFFCURVE",
"1177 980 OFFCURVE",
"1159 864 CURVE SMOOTH",
"1083 388 OFFCURVE",
"869 78 OFFCURVE",
"608 68 CURVE SMOOTH"
);
},
{
closed = 1;
nodes = (
"311 258 OFFCURVE",
"300 523 OFFCURVE",
"319 645 CURVE SMOOTH",
"390 1079 OFFCURVE",
"575 1310 OFFCURVE",
"857 1310 CURVE SMOOTH",
"981 1310 OFFCURVE",
"1078 1256 OFFCURVE",
"1065 1175 CURVE SMOOTH",
"1044 1044 OFFCURVE",
"418 258 OFFCURVE",
"378 258 CURVE SMOOTH"
);
}
);
width = 1543;
},
{
layerId = "5CBF0BAD-1756-4F16-9711-93DC239D102B";
paths = (
{
closed = 1;
nodes = (
"271 -66 OFFCURVE",
"341 -4 OFFCURVE",
"374 -4 CURVE SMOOTH",
"433 -4 OFFCURVE",
"538 -29 OFFCURVE",
"633 -25 CURVE SMOOTH",
"1181 0 OFFCURVE",
"1444 290 OFFCURVE",
"1509 700 CURVE SMOOTH",
"1555 991 OFFCURVE",
"1418 1162 OFFCURVE",
"1422 1185 CURVE SMOOTH",
"1432 1242 OFFCURVE",
"1422 1269 OFFCURVE",
"1432 1329 CURVE SMOOTH",
"1441 1385 OFFCURVE",
"1413 1404 OFFCURVE",
"1371 1404 CURVE SMOOTH",
"1297 1404 OFFCURVE",
"1270 1348 OFFCURVE",
"1184 1348 CURVE SMOOTH",
"1123 1348 OFFCURVE",
"1061 1404 OFFCURVE",
"981 1404 CURVE SMOOTH",
"549 1404 OFFCURVE",
"222 1073 OFFCURVE",
"154 643 CURVE SMOOTH",
"106 341 OFFCURVE",
"213 198 OFFCURVE",
"207 158 CURVE SMOOTH",
"199 106 OFFCURVE",
"162 23 OFFCURVE",
"157 -4 CURVE SMOOTH",
"153 -27 OFFCURVE",
"184 -66 OFFCURVE",
"226 -66 CURVE SMOOTH"
);
},
{
closed = 1;
nodes = (
"546 102 OFFCURVE",
"510 135 OFFCURVE",
"518 180 CURVE SMOOTH",
"523 210 OFFCURVE",
"719 397 OFFCURVE",
"879 603 CURVE SMOOTH",
"1042 813 OFFCURVE",
"1151 1024 OFFCURVE",
"1170 1024 CURVE SMOOTH",
"1177 1024 OFFCURVE",
"1176 1006 OFFCURVE",
"1176 971 CURVE SMOOTH",
"1176 596 OFFCURVE",
"1063 136 OFFCURVE",
"586 105 CURVE SMOOTH"
);
},
{
closed = 1;
nodes = (
"426 337 OFFCURVE",
"434 615 OFFCURVE",
"454 736 CURVE SMOOTH",
"498 1005 OFFCURVE",
"635 1237 OFFCURVE",
"880 1237 CURVE SMOOTH",
"992 1237 OFFCURVE",
"1080 1168 OFFCURVE",
"1069 1097 CURVE SMOOTH",
"1052 989 OFFCURVE",
"571 337 OFFCURVE",
"470 337 CURVE SMOOTH"
);
}
);
width = 1541;
}
);
note = uni00D8;
unicode = 00D8;
},
{
glyphname = OE;
layers = (
{
layerId = "92A672BF-229C-4BEC-8D25-4DDBB2A38145";
paths = (
{
closed = 1;
nodes = (
"732 -1 OFFCURVE",
"851 16 OFFCURVE",
"944 16 CURVE SMOOTH",
"998 16 OFFCURVE",
"1161 -5 OFFCURVE",
"1343 -8 CURVE SMOOTH",
"1543 -11 OFFCURVE",
"1758 9 OFFCURVE",
"1788 196 CURVE SMOOTH",
"1794 237 OFFCURVE",
"1791 259 OFFCURVE",
"1776 259 CURVE SMOOTH",
"1678 259 OFFCURVE",
"1615 114 OFFCURVE",
"1347 114 CURVE SMOOTH",
"1146 114 OFFCURVE",
"1139 242 OFFCURVE",
"1173 456 CURVE SMOOTH",
"1193 581 OFFCURVE",
"1259 644 OFFCURVE",
"1373 644 CURVE SMOOTH",
"1450 644 OFFCURVE",
"1547 559 OFFCURVE",
"1579 561 CURVE SMOOTH",
"1626 564 OFFCURVE",
"1642 609 OFFCURVE",
"1659 716 CURVE SMOOTH",
"1675 820 OFFCURVE",
"1658 868 OFFCURVE",
"1618 868 CURVE SMOOTH",
"1596 868 OFFCURVE",
"1479 791 OFFCURVE",
"1427 791 CURVE SMOOTH",
"1293 791 OFFCURVE",
"1243 831 OFFCURVE",
"1263 955 CURVE SMOOTH",
"1295 1158 OFFCURVE",
"1336 1267 OFFCURVE",
"1512 1267 CURVE SMOOTH",
"1742 1267 OFFCURVE",
"1816 1147 OFFCURVE",
"1873 1147 CURVE SMOOTH",
"1887 1147 OFFCURVE",
"1897 1164 OFFCURVE",
"1902 1198 CURVE SMOOTH",
"1916 1284 OFFCURVE",
"1893 1338 OFFCURVE",
"1832 1361 CURVE SMOOTH",
"1750 1392 OFFCURVE",
"1546 1374 OFFCURVE",
"1230 1374 CURVE SMOOTH",
"1125 1374 OFFCURVE",
"1087 1374 OFFCURVE",
"881 1391 CURVE SMOOTH",
"471 1391 OFFCURVE",
"156 1110 OFFCURVE",
"92 703 CURVE SMOOTH",
"22 261 OFFCURVE",
"203 -9 OFFCURVE",
"627 -9 CURVE SMOOTH"
);
},
{
closed = 1;
nodes = (
"339 76 OFFCURVE",
"274 395 OFFCURVE",
"334 771 CURVE SMOOTH",
"380 1063 OFFCURVE",
"583 1307 OFFCURVE",
"868 1307 CURVE SMOOTH",
"1041 1307 OFFCURVE",
"1075 1254 OFFCURVE",
"1048 1082 CURVE SMOOTH",
"936 397 OFFCURVE",
"901 193 OFFCURVE",
"885 162 CURVE SMOOTH",
"849 90 OFFCURVE",
"763 76 OFFCURVE",
"666 76 CURVE SMOOTH"
);
}
);
width = 2036;
},
{
layerId = "5CBF0BAD-1756-4F16-9711-93DC239D102B";
paths = (
{
closed = 1;
nodes = (
"774 -26 OFFCURVE",
"989 -3 OFFCURVE",
"1074 -3 CURVE SMOOTH",
"1176 -3 OFFCURVE",
"1208 -8 OFFCURVE",
"1310 -10 CURVE SMOOTH",
"1659 -17 OFFCURVE",
"1771 13 OFFCURVE",
"1808 242 CURVE SMOOTH",
"1814 279 OFFCURVE",
"1807 298 OFFCURVE",
"1788 298 CURVE SMOOTH",
"1724 298 OFFCURVE",
"1589 141 OFFCURVE",
"1373 141 CURVE SMOOTH",
"1253 141 OFFCURVE",
"1207 197 OFFCURVE",
"1234 370 CURVE SMOOTH",
"1261 541 OFFCURVE",
"1293 614 OFFCURVE",
"1381 614 CURVE SMOOTH",
"1496 614 OFFCURVE",
"1491 527 OFFCURVE",
"1582 527 CURVE SMOOTH",
"1616 527 OFFCURVE",
"1654 556 OFFCURVE",
"1679 706 CURVE SMOOTH",
"1693 791 OFFCURVE",
"1676 862 OFFCURVE",
"1623 862 CURVE SMOOTH",
"1566 862 OFFCURVE",
"1509 784 OFFCURVE",
"1427 784 CURVE SMOOTH",
"1355 784 OFFCURVE",
"1306 830 OFFCURVE",
"1316 897 CURVE SMOOTH",
"1339 1053 OFFCURVE",
"1395 1217 OFFCURVE",
"1542 1217 CURVE SMOOTH",
"1668 1217 OFFCURVE",
"1779 1053 OFFCURVE",
"1828 1053 CURVE SMOOTH",
"1859 1053 OFFCURVE",
"1902 1120 OFFCURVE",
"1907 1155 CURVE SMOOTH",
"1934 1345 OFFCURVE",
"1836 1370 OFFCURVE",
"1536 1370 CURVE SMOOTH",
"1342 1370 OFFCURVE",
"1280 1366 OFFCURVE",
"1281 1366 CURVE SMOOTH",
"1385 1366 OFFCURVE",
"1075 1385 OFFCURVE",
"942 1385 CURVE SMOOTH",
"512 1385 OFFCURVE",
"239 1102 OFFCURVE",
"169 656 CURVE SMOOTH",
"105 251 OFFCURVE",
"291 -26 OFFCURVE",
"713 -26 CURVE SMOOTH"
);
},
{
closed = 1;
nodes = (
"491 112 OFFCURVE",
"402 389 OFFCURVE",
"447 674 CURVE SMOOTH",
"507 1051 OFFCURVE",
"678 1248 OFFCURVE",
"911 1248 CURVE SMOOTH",
"1107 1248 OFFCURVE",
"1144 1198 OFFCURVE",
"1112 993 CURVE SMOOTH",
"1039 527 OFFCURVE",
"987 226 OFFCURVE",
"949 179 CURVE SMOOTH",
"910 130 OFFCURVE",
"852 115 OFFCURVE",
"742 114 CURVE SMOOTH"
);
}
);
width = 2004;
}
);
note = uni0152;
unicode = 0152;
},
{
glyphname = P;
layers = (
{
layerId = "92A672BF-229C-4BEC-8D25-4DDBB2A38145";
paths = (
{
closed = 1;
nodes = (
"399 0 OFFCURVE",
"514 10 OFFCURVE",
"520 44 CURVE SMOOTH",
"525 75 OFFCURVE",
"413 123 OFFCURVE",
"402 168 CURVE SMOOTH",
"393 200 OFFCURVE",
"401 292 OFFCURVE",
"419 380 CURVE SMOOTH",
"435 458 OFFCURVE",
"422 526 OFFCURVE",
"454 541 CURVE SMOOTH",
"505 564 OFFCURVE",
"537 579 OFFCURVE",
"598 579 CURVE SMOOTH",
"893 579 OFFCURVE",
"1174 711 OFFCURVE",
"1220 1000 CURVE SMOOTH",
"1264 1279 OFFCURVE",
"1095 1395 OFFCURVE",
"812 1402 CURVE SMOOTH",
"363 1413 OFFCURVE",
"231 1384 OFFCURVE",
"224 1337 CURVE SMOOTH",
"216 1287 OFFCURVE",
"325 1256 OFFCURVE",
"323 1205 CURVE SMOOTH",
"321 1161 OFFCURVE",
"304 985 OFFCURVE",
"252 681 CURVE SMOOTH",
"222 509 OFFCURVE",
"180 285 OFFCURVE",
"140 179 CURVE SMOOTH",
"113 107 OFFCURVE",
"19 95 OFFCURVE",
"11 46 CURVE SMOOTH",
"7 21 OFFCURVE",
"162 0 OFFCURVE",
"248 0 CURVE SMOOTH"
);
},
{
closed = 1;
nodes = (
"510 652 OFFCURVE",
"470 700 OFFCURVE",
"481 772 CURVE SMOOTH",
"541 1152 LINE SMOOTH",
"560 1273 OFFCURVE",
"601 1307 OFFCURVE",
"674 1307 CURVE SMOOTH",
"934 1307 OFFCURVE",
"1033 1211 OFFCURVE",
"995 969 CURVE SMOOTH",
"961 755 OFFCURVE",
"819 652 OFFCURVE",
"574 652 CURVE SMOOTH"
);
}
);
width = 1267;
},
{
layerId = "5CBF0BAD-1756-4F16-9711-93DC239D102B";
paths = (
{
closed = 1;
nodes = (
"495 -5 OFFCURVE",
"663 0 OFFCURVE",
"673 59 CURVE SMOOTH",
"678 90 OFFCURVE",
"627 127 OFFCURVE",
"578 172 CURVE SMOOTH",
"542 205 OFFCURVE",
"529 252 OFFCURVE",
"538 311 CURVE SMOOTH",
"558 440 OFFCURVE",
"592 514 OFFCURVE",
"640 534 CURVE SMOOTH",
"652 539 OFFCURVE",
"733 546 OFFCURVE",
"822 554 CURVE SMOOTH",
"1125 581 OFFCURVE",
"1283 749 OFFCURVE",
"1319 973 CURVE SMOOTH",
"1365 1262 OFFCURVE",
"1275 1398 OFFCURVE",
"768 1398 CURVE SMOOTH",
"332 1398 OFFCURVE",
"299 1373 OFFCURVE",
"293 1328 CURVE SMOOTH",
"288 1293 OFFCURVE",
"375 1249 OFFCURVE",
"387 1148 CURVE SMOOTH",
"393 1099 OFFCURVE",
"376 946 OFFCURVE",
"335 701 CURVE SMOOTH",
"290 434 OFFCURVE",
"272 341 OFFCURVE",
"249 250 CURVE SMOOTH",
"228 167 OFFCURVE",
"105 135 OFFCURVE",
"91 50 CURVE SMOOTH",
"85 13 OFFCURVE",
"176 -5 OFFCURVE",
"365 -5 CURVE SMOOTH"
);
},
{
closed = 1;
nodes = (
"618 653 OFFCURVE",
"596 670 OFFCURVE",
"611 751 CURVE SMOOTH",
"689 1175 LINE SMOOTH",
"699 1231 OFFCURVE",
"726 1262 OFFCURVE",
"822 1262 CURVE SMOOTH",
"974 1262 OFFCURVE",
"1065 1147 OFFCURVE",
"1035 958 CURVE SMOOTH",
"1004 765 OFFCURVE",
"900 653 OFFCURVE",
"755 653 CURVE SMOOTH"
);
}
);
width = 1304;
}
);
note = uni0050;
unicode = 0050;
},
{
glyphname = Thorn;
layers = (
{
layerId = "92A672BF-229C-4BEC-8D25-4DDBB2A38145";
paths = (
{
closed = 1;
nodes = (
"372 14 OFFCURVE",
"519 11 OFFCURVE",
"526 60 CURVE SMOOTH",
"532 93 OFFCURVE",
"453 119 OFFCURVE",
"434 155 CURVE SMOOTH",
"425 173 OFFCURVE",
"424 205 OFFCURVE",
"431 237 CURVE SMOOTH",
"439 271 OFFCURVE",
"456 304 OFFCURVE",
"482 316 CURVE SMOOTH",
"493 321 OFFCURVE",
"545 327 OFFCURVE",
"638 334 CURVE SMOOTH",
"918 353 OFFCURVE",
"1143 479 OFFCURVE",
"1182 729 CURVE SMOOTH",
"1226 1004 OFFCURVE",
"1092 1100 OFFCURVE",
"808 1131 CURVE SMOOTH",
"677 1145 OFFCURVE",
"584 1139 OFFCURVE",
"595 1204 CURVE SMOOTH",
"606 1279 OFFCURVE",
"713 1293 OFFCURVE",
"720 1340 CURVE SMOOTH",
"726 1378 OFFCURVE",
"690 1382 OFFCURVE",
"524 1381 CURVE SMOOTH",
"361 1381 OFFCURVE",
"243 1395 OFFCURVE",
"233 1334 CURVE SMOOTH",
"228 1302 OFFCURVE",
"333 1273 OFFCURVE",
"340 1223 CURVE SMOOTH",
"346 1170 OFFCURVE",
"326 999 OFFCURVE",
"280 709 CURVE SMOOTH",
"234 418 OFFCURVE",
"199 245 OFFCURVE",
"176 190 CURVE SMOOTH",
"154 137 OFFCURVE",
"40 94 OFFCURVE",
"33 53 CURVE SMOOTH",
"30 30 OFFCURVE",
"167 6 OFFCURVE",
"244 9 CURVE SMOOTH"
);
},
{
closed = 1;
nodes = (
"477 397 OFFCURVE",
"435 414 OFFCURVE",
"445 484 CURVE SMOOTH",
"455 548 OFFCURVE",
"533 967 OFFCURVE",
"539 1012 CURVE SMOOTH",
"544 1046 OFFCURVE",
"598 1060 OFFCURVE",
"678 1060 CURVE SMOOTH",
"871 1060 OFFCURVE",
"964 943 OFFCURVE",
"934 754 CURVE SMOOTH",
"897 521 OFFCURVE",
"777 398 OFFCURVE",
"560 397 CURVE SMOOTH"
);
}
);
width = 1285;
},
{
layerId = "5CBF0BAD-1756-4F16-9711-93DC239D102B";
paths = (
{
closed = 1;
nodes = (
"537 -1 OFFCURVE",
"628 15 OFFCURVE",
"633 50 CURVE SMOOTH",
"640 99 OFFCURVE",
"607 128 OFFCURVE",
"579 159 CURVE SMOOTH",
"557 184 OFFCURVE",
"537 210 OFFCURVE",
"545 248 CURVE SMOOTH",
"551 278 OFFCURVE",
"569 293 OFFCURVE",
"595 302 CURVE SMOOTH",
"632 315 OFFCURVE",
"736 313 OFFCURVE",
"808 317 CURVE SMOOTH",
"1093 333 OFFCURVE",
"1241 460 OFFCURVE",
"1285 729 CURVE SMOOTH",
"1324 970 OFFCURVE",
"1212 1086 OFFCURVE",
"943 1111 CURVE SMOOTH",
"814 1123 OFFCURVE",
"751 1140 OFFCURVE",
"754 1163 CURVE SMOOTH",
"760 1212 OFFCURVE",
"842 1243 OFFCURVE",
"857 1328 CURVE SMOOTH",
"863 1363 OFFCURVE",
"795 1376 OFFCURVE",
"539 1376 CURVE SMOOTH",
"356 1376 OFFCURVE",
"318 1353 OFFCURVE",
"312 1313 CURVE SMOOTH",
"304 1261 OFFCURVE",
"405 1232 OFFCURVE",
"423 1168 CURVE SMOOTH",
"434 1128 OFFCURVE",
"385 901 OFFCURVE",
"353 705 CURVE SMOOTH",
"328 551 OFFCURVE",
"285 297 OFFCURVE",
"269 256 CURVE SMOOTH",
"242 186 OFFCURVE",
"118 97 OFFCURVE",
"112 64 CURVE SMOOTH",
"101 2 OFFCURVE",
"140 -4 OFFCURVE",
"410 -2 CURVE SMOOTH"
);
},
{
closed = 1;
nodes = (
"600 425 OFFCURVE",
"586 451 OFFCURVE",
"594 502 CURVE SMOOTH",
"617 646 OFFCURVE",
"639 790 OFFCURVE",
"662 934 CURVE SMOOTH",
"669 978 OFFCURVE",
"691 1000 OFFCURVE",
"729 1000 CURVE SMOOTH",
"948 1000 OFFCURVE",
"1028 934 OFFCURVE",
"997 738 CURVE SMOOTH",
"960 503 OFFCURVE",
"879 425 OFFCURVE",
"637 425 CURVE SMOOTH"
);
}
);
width = 1370;
}
);
note = uni00DE;
unicode = 00DE;
},
{
glyphname = Q;
layers = (
{
layerId = "92A672BF-229C-4BEC-8D25-4DDBB2A38145";
paths = (
{
closed = 1;
nodes = (
"1332 -306 OFFCURVE",
"1412 -288 OFFCURVE",
"1421 -233 CURVE SMOOTH",
"1428 -189 OFFCURVE",
"1043 -121 OFFCURVE",
"1056 -34 CURVE SMOOTH",
"1061 -8 OFFCURVE",
"1088 21 OFFCURVE",
"1147 104 CURVE SMOOTH",
"1273 281 OFFCURVE",
"1354 482 OFFCURVE",
"1390 706 CURVE SMOOTH",
"1455 1121 OFFCURVE",
"1268 1419 OFFCURVE",
"872 1419 CURVE SMOOTH",
"467 1419 OFFCURVE",
"172 1144 OFFCURVE",
"104 713 CURVE SMOOTH",
"48 359 OFFCURVE",
"175 211 OFFCURVE",
"282 119 CURVE SMOOTH",
"405 13 OFFCURVE",
"1050 -306 OFFCURVE",
"1214 -306 CURVE SMOOTH"
);
},
{
closed = 1;
nodes = (
"390 83 OFFCURVE",
"263 374 OFFCURVE",
"321 741 CURVE SMOOTH",
"377 1091 OFFCURVE",
"586 1322 OFFCURVE",
"871 1322 CURVE SMOOTH",
"1134 1322 OFFCURVE",
"1273 1067 OFFCURVE",
"1211 678 CURVE SMOOTH",
"1161 362 OFFCURVE",
"960 83 OFFCURVE",
"677 83 CURVE SMOOTH"
);
}
);
width = 1555;
},
{
layerId = "5CBF0BAD-1756-4F16-9711-93DC239D102B";
paths = (
{
closed = 1;
nodes = (
"1306 -309 OFFCURVE",
"1491 -262 OFFCURVE",
"1495 -190 CURVE SMOOTH",
"1500 -88 OFFCURVE",
"1250 -89 OFFCURVE",
"1168 -36 CURVE SMOOTH",
"1120 -5 OFFCURVE",
"1053 2 OFFCURVE",
"1057 25 CURVE SMOOTH",
"1065 72 OFFCURVE",
"1455 194 OFFCURVE",
"1536 695 CURVE SMOOTH",
"1611 1160 OFFCURVE",
"1398 1438 OFFCURVE",
"938 1438 CURVE SMOOTH",
"540 1438 OFFCURVE",
"203 1118 OFFCURVE",
"139 719 CURVE SMOOTH",
"88 400 OFFCURVE",
"204 215 OFFCURVE",
"282 130 CURVE SMOOTH",
"371 34 OFFCURVE",
"1087 -309 OFFCURVE",
"1169 -309 CURVE SMOOTH"
);
},
{
closed = 1;
nodes = (
"512 126 OFFCURVE",
"434 442 OFFCURVE",
"474 699 CURVE SMOOTH",
"527 1040 OFFCURVE",
"677 1291 OFFCURVE",
"915 1291 CURVE SMOOTH",
"1168 1291 OFFCURVE",
"1261 1011 OFFCURVE",
"1216 731 CURVE SMOOTH",
"1147 299 OFFCURVE",
"1006 126 OFFCURVE",
"736 126 CURVE SMOOTH"
);
}
);
width = 1589;
}
);
note = uni0051;
unicode = 0051;
},
{
glyphname = R;
layers = (
{
layerId = "92A672BF-229C-4BEC-8D25-4DDBB2A38145";
paths = (
{
closed = 1;
nodes = (
"1152 -13 OFFCURVE",
"1210 7 OFFCURVE",
"1216 48 CURVE SMOOTH",
"1224 96 OFFCURVE",
"1113 127 OFFCURVE",
"1073 182 CURVE SMOOTH",
"1014 264 OFFCURVE",
"859 566 OFFCURVE",
"871 639 CURVE SMOOTH",
"874 657 OFFCURVE",
"1149 844 OFFCURVE",
"1176 1015 CURVE SMOOTH",
"1219 1286 OFFCURVE",
"1030 1388 OFFCURVE",
"737 1394 CURVE SMOOTH",
"457 1400 OFFCURVE",
"226 1397 OFFCURVE",
"218 1350 CURVE SMOOTH",
"211 1301 OFFCURVE",
"304 1298 OFFCURVE",
"318 1247 CURVE SMOOTH",
"333 1194 OFFCURVE",
"324 1072 OFFCURVE",
"265 729 CURVE SMOOTH",
"211 417 OFFCURVE",
"194 265 OFFCURVE",
"165 185 CURVE SMOOTH",
"152 147 OFFCURVE",
"19 100 OFFCURVE",
"13 60 CURVE SMOOTH",
"6 14 OFFCURVE",
"92 9 OFFCURVE",
"392 3 CURVE SMOOTH",
"452 3 OFFCURVE",
"484 14 OFFCURVE",
"487 37 CURVE SMOOTH",
"491 60 OFFCURVE",
"402 133 OFFCURVE",
"395 163 CURVE SMOOTH",
"388 188 OFFCURVE",
"393 253 OFFCURVE",
"410 356 CURVE SMOOTH",
"440 543 OFFCURVE",
"487 603 OFFCURVE",
"526 603 CURVE SMOOTH",
"658 603 OFFCURVE",
"709 532 OFFCURVE",
"806 295 CURVE SMOOTH",
"894 76 OFFCURVE",
"902 -16 OFFCURVE",
"1088 -13 CURVE SMOOTH"
);
},
{
closed = 1;
nodes = (
"461 707 OFFCURVE",
"458 718 OFFCURVE",
"473 810 CURVE SMOOTH",
"527 1155 LINE SMOOTH",
"543 1252 OFFCURVE",
"548 1298 OFFCURVE",
"615 1298 CURVE SMOOTH",
"891 1298 OFFCURVE",
"1009 1228 OFFCURVE",
"970 984 CURVE SMOOTH",
"938 783 OFFCURVE",
"805 707 OFFCURVE",
"540 707 CURVE SMOOTH"
);
}
);
width = 1385;
},
{
layerId = "5CBF0BAD-1756-4F16-9711-93DC239D102B";
paths = (
{
closed = 1;
nodes = (
"1228 -4 OFFCURVE",
"1320 17 OFFCURVE",
"1334 100 CURVE SMOOTH",
"1343 155 OFFCURVE",
"1172 179 OFFCURVE",
"1139 267 CURVE SMOOTH",
"1120 317 OFFCURVE",
"992 556 OFFCURVE",
"998 603 CURVE SMOOTH",
"1000 619 OFFCURVE",
"1258 782 OFFCURVE",
"1295 1012 CURVE SMOOTH",
"1336 1267 OFFCURVE",
"1199 1386 OFFCURVE",
"792 1386 CURVE SMOOTH",
"551 1386 OFFCURVE",
"304 1396 OFFCURVE",
"291 1322 CURVE SMOOTH",
"285 1288 OFFCURVE",
"381 1207 OFFCURVE",
"384 1130 CURVE SMOOTH",
"386 1084 OFFCURVE",
"363 901 OFFCURVE",
"327 675 CURVE SMOOTH",
"318 618 OFFCURVE",
"276 321 OFFCURVE",
"245 236 CURVE SMOOTH",
"220 168 OFFCURVE",
"92 132 OFFCURVE",
"82 59 CURVE SMOOTH",
"76 17 OFFCURVE",
"67 -1 OFFCURVE",
"413 -1 CURVE SMOOTH",
"522 -1 OFFCURVE",
"579 16 OFFCURVE",
"585 51 CURVE SMOOTH",
"588 70 OFFCURVE",
"566 125 OFFCURVE",
"547 180 CURVE SMOOTH",
"530 230 OFFCURVE",
"514 280 OFFCURVE",
"518 306 CURVE SMOOTH",
"546 491 OFFCURVE",
"565 566 OFFCURVE",
"634 566 CURVE SMOOTH",
"742 566 OFFCURVE",
"800 438 OFFCURVE",
"834 303 CURVE SMOOTH",
"871 155 OFFCURVE",
"890 -1 OFFCURVE",
"1121 -3 CURVE SMOOTH"
);
},
{
closed = 1;
nodes = (
"617 701 OFFCURVE",
"606 722 OFFCURVE",
"614 775 CURVE SMOOTH",
"672 1138 LINE SMOOTH",
"689 1242 OFFCURVE",
"708 1253 OFFCURVE",
"787 1253 CURVE SMOOTH",
"990 1253 OFFCURVE",
"1058 1160 OFFCURVE",
"1025 948 CURVE SMOOTH",
"998 772 OFFCURVE",
"886 701 OFFCURVE",
"694 701 CURVE SMOOTH"
);
}
);
width = 1429;
}
);
note = uni0052;
unicode = 0052;
},
{
glyphname = S;
layers = (
{
anchors = (
{
name = top;
position = "{714, 1405}";
}
);
layerId = "92A672BF-229C-4BEC-8D25-4DDBB2A38145";
paths = (
{
closed = 1;
nodes = (
"740 -7 OFFCURVE",
"959 142 OFFCURVE",
"992 354 CURVE SMOOTH",
"1016 503 OFFCURVE",
"975 586 OFFCURVE",
"879 664 CURVE SMOOTH",
"788 740 OFFCURVE",
"647 811 OFFCURVE",
"464 933 CURVE SMOOTH",
"402 974 OFFCURVE",
"384 1046 OFFCURVE",
"401 1115 CURVE SMOOTH",
"425 1215 OFFCURVE",
"520 1312 OFFCURVE",
"662 1312 CURVE SMOOTH",
"873 1312 OFFCURVE",
"930 1103 OFFCURVE",
"994 1103 CURVE SMOOTH",
"1025 1103 OFFCURVE",
"1056 1121 OFFCURVE",
"1061 1155 CURVE SMOOTH",
"1082 1286 OFFCURVE",
"1093 1368 OFFCURVE",
"999 1368 CURVE SMOOTH",
"935 1368 OFFCURVE",
"774 1407 OFFCURVE",
"685 1407 CURVE SMOOTH",
"444 1407 OFFCURVE",
"230 1269 OFFCURVE",
"196 1053 CURVE SMOOTH",
"179 945 OFFCURVE",
"201 856 OFFCURVE",
"263 786 CURVE SMOOTH",
"375 659 OFFCURVE",
"644 574 OFFCURVE",
"730 497 CURVE SMOOTH",
"786 446 OFFCURVE",
"813 384 OFFCURVE",
"795 297 CURVE SMOOTH",
"772 177 OFFCURVE",
"672 91 OFFCURVE",
"481 91 CURVE SMOOTH",
"365 91 OFFCURVE",
"305 149 OFFCURVE",
"264 190 CURVE SMOOTH",
"223 231 OFFCURVE",
"175 384 OFFCURVE",
"139 384 CURVE SMOOTH",
"92 384 OFFCURVE",
"70 334 OFFCURVE",
"51 216 CURVE SMOOTH",
"38 129 OFFCURVE",
"48 76 OFFCURVE",
"84 58 CURVE SMOOTH",
"141 32 OFFCURVE",
"368 -7 OFFCURVE",
"472 -7 CURVE SMOOTH"
);
}
);
width = 1150;
},
{
anchors = (
{
name = top;
position = "{771, 1407}";
}
);
layerId = "5CBF0BAD-1756-4F16-9711-93DC239D102B";
paths = (
{
closed = 1;
nodes = (
"825 -20 OFFCURVE",
"1032 127 OFFCURVE",
"1076 401 CURVE SMOOTH",
"1091 494 OFFCURVE",
"1067 577 OFFCURVE",
"1006 651 CURVE SMOOTH",
"897 783 OFFCURVE",
"711 821 OFFCURVE",
"581 927 CURVE SMOOTH",
"522 975 OFFCURVE",
"497 1029 OFFCURVE",
"507 1090 CURVE SMOOTH",
"522 1181 OFFCURVE",
"615 1256 OFFCURVE",
"716 1256 CURVE SMOOTH",
"903 1256 OFFCURVE",
"965 1035 OFFCURVE",
"1072 1035 CURVE SMOOTH",
"1105 1035 OFFCURVE",
"1129 1083 OFFCURVE",
"1144 1180 CURVE SMOOTH",
"1159 1277 OFFCURVE",
"1146 1337 OFFCURVE",
"1104 1360 CURVE SMOOTH",
"1043 1393 OFFCURVE",
"927 1407 OFFCURVE",
"716 1407 CURVE SMOOTH",
"493 1407 OFFCURVE",
"271 1252 OFFCURVE",
"235 1025 CURVE SMOOTH",
"216 904 OFFCURVE",
"257 799 OFFCURVE",
"361 713 CURVE SMOOTH",
"448 641 OFFCURVE",
"705 541 OFFCURVE",
"774 452 CURVE SMOOTH",
"805 412 OFFCURVE",
"815 361 OFFCURVE",
"806 299 CURVE SMOOTH",
"794 216 OFFCURVE",
"684 131 OFFCURVE",
"560 131 CURVE SMOOTH",
"499 131 OFFCURVE",
"450 142 OFFCURVE",
"414 165 CURVE SMOOTH",
"378 188 OFFCURVE",
"217 403 OFFCURVE",
"178 403 CURVE SMOOTH",
"132 403 OFFCURVE",
"115 365 OFFCURVE",
"99 263 CURVE SMOOTH",
"82 154 OFFCURVE",
"92 84 OFFCURVE",
"131 54 CURVE SMOOTH",
"172 22 OFFCURVE",
"385 -20 OFFCURVE",
"532 -20 CURVE SMOOTH"
);
}
);
width = 1150;
}
);
note = uni0053;
unicode = 0053;
},
{
glyphname = T;
layers = (
{
layerId = "92A672BF-229C-4BEC-8D25-4DDBB2A38145";
paths = (
{
closed = 1;
nodes = (
"781 -6 OFFCURVE",
"803 8 OFFCURVE",
"808 41 CURVE SMOOTH",
"812 62 OFFCURVE",
"695 138 OFFCURVE",
"693 166 CURVE SMOOTH",
"690 205 OFFCURVE",
"736 607 OFFCURVE",
"754 712 CURVE SMOOTH",
"781 873 OFFCURVE",
"819 1146 OFFCURVE",
"863 1225 CURVE SMOOTH",
"899 1288 OFFCURVE",
"1053 1268 OFFCURVE",
"1129 1265 CURVE SMOOTH",
"1175 1263 OFFCURVE",
"1269 1066 OFFCURVE",
"1291 1066 CURVE SMOOTH",
"1309 1066 OFFCURVE",
"1324 1106 OFFCURVE",
"1333 1163 CURVE SMOOTH",
"1356 1306 OFFCURVE",
"1348 1386 OFFCURVE",
"1281 1386 CURVE SMOOTH",
"1193 1386 OFFCURVE",
"1116 1391 OFFCURVE",
"730 1392 CURVE SMOOTH",
"394 1392 OFFCURVE",
"220 1389 OFFCURVE",
"207 1383 CURVE SMOOTH",
"173 1367 OFFCURVE",
"145 1291 OFFCURVE",
"124 1154 CURVE SMOOTH",
"114 1091 OFFCURVE",
"115 1066 OFFCURVE",
"157 1066 CURVE SMOOTH",
"201 1066 OFFCURVE",
"288 1270 OFFCURVE",
"497 1270 CURVE SMOOTH",
"567 1270 OFFCURVE",
"605 1253 OFFCURVE",
"611 1220 CURVE SMOOTH",
"623 1153 OFFCURVE",
"592 949 OFFCURVE",
"558 739 CURVE SMOOTH",
"529 559 OFFCURVE",
"460 252 OFFCURVE",
"440 193 CURVE SMOOTH",
"421 140 OFFCURVE",
"274 76 OFFCURVE",
"277 46 CURVE SMOOTH",
"280 20 OFFCURVE",
"337 -2 OFFCURVE",
"471 -2 CURVE SMOOTH"
);
}
);
width = 1304;
},
{
layerId = "5CBF0BAD-1756-4F16-9711-93DC239D102B";
paths = (
{
closed = 1;
nodes = (
"876 0 OFFCURVE",
"915 10 OFFCURVE",
"921 53 CURVE SMOOTH",
"926 92 OFFCURVE",
"801 197 OFFCURVE",
"797 236 CURVE SMOOTH",
"793 273 OFFCURVE",
"832 590 OFFCURVE",
"849 708 CURVE SMOOTH",
"869 844 OFFCURVE",
"915 1077 OFFCURVE",
"934 1144 CURVE SMOOTH",
"950 1202 OFFCURVE",
"981 1231 OFFCURVE",
"1025 1231 CURVE SMOOTH",
"1197 1231 OFFCURVE",
"1234 1032 OFFCURVE",
"1333 1032 CURVE SMOOTH",
"1375 1032 OFFCURVE",
"1389 1074 OFFCURVE",
"1409 1202 CURVE SMOOTH",
"1434 1359 OFFCURVE",
"1415 1386 OFFCURVE",
"1271 1389 CURVE SMOOTH",
"1130 1392 OFFCURVE",
"999 1385 OFFCURVE",
"859 1388 CURVE SMOOTH",
"647 1393 OFFCURVE",
"318 1385 OFFCURVE",
"296 1379 CURVE SMOOTH",
"241 1364 OFFCURVE",
"215 1238 OFFCURVE",
"198 1130 CURVE SMOOTH",
"187 1061 OFFCURVE",
"189 1034 OFFCURVE",
"235 1034 CURVE SMOOTH",
"287 1034 OFFCURVE",
"429 1232 OFFCURVE",
"556 1232 CURVE SMOOTH",
"620 1232 OFFCURVE",
"636 1205 OFFCURVE",
"638 1150 CURVE SMOOTH",
"640 1084 OFFCURVE",
"614 871 OFFCURVE",
"581 666 CURVE SMOOTH",
"551 482 OFFCURVE",
"516 306 OFFCURVE",
"491 247 CURVE SMOOTH",
"458 168 OFFCURVE",
"323 123 OFFCURVE",
"310 42 CURVE SMOOTH",
"305 11 OFFCURVE",
"328 -2 OFFCURVE",
"644 -1 CURVE SMOOTH"
);
}
);
width = 1334;
}
);
note = uni0054;
unicode = 0054;
},
{
glyphname = U;
layers = (
{
anchors = (
{
name = top;
position = "{915, 1374}";
}
);
layerId = "92A672BF-229C-4BEC-8D25-4DDBB2A38145";
paths = (
{
closed = 1;
nodes = (
"1108 -11 OFFCURVE",
"1226 225 OFFCURVE",
"1295 662 CURVE SMOOTH",
"1335 909 OFFCURVE",
"1374 1142 OFFCURVE",
"1396 1191 CURVE SMOOTH",
"1411 1222 OFFCURVE",
"1544 1293 OFFCURVE",
"1550 1328 CURVE SMOOTH",
"1561 1395 OFFCURVE",
"1456 1389 OFFCURVE",
"1343 1390 CURVE SMOOTH",
"1261 1391 OFFCURVE",
"1182 1398 OFFCURVE",
"1177 1364 CURVE SMOOTH",
"1169 1315 OFFCURVE",
"1239 1258 OFFCURVE",
"1247 1190 CURVE SMOOTH",
"1254 1130 OFFCURVE",
"1230 964 OFFCURVE",
"1211 842 CURVE SMOOTH",
"1141 400 OFFCURVE",
"1078 98 OFFCURVE",
"741 98 CURVE SMOOTH",
"329 98 OFFCURVE",
"393 375 OFFCURVE",
"473 877 CURVE SMOOTH",
"501 1060 OFFCURVE",
"525 1167 OFFCURVE",
"533 1202 CURVE SMOOTH",
"547 1268 OFFCURVE",
"652 1297 OFFCURVE",
"657 1351 CURVE SMOOTH",
"659 1377 OFFCURVE",
"608 1392 OFFCURVE",
"497 1392 CURVE SMOOTH",
"281 1392 OFFCURVE",
"200 1387 OFFCURVE",
"194 1347 CURVE SMOOTH",
"185 1293 OFFCURVE",
"287 1286 OFFCURVE",
"297 1226 CURVE SMOOTH",
"307 1169 OFFCURVE",
"282 989 OFFCURVE",
"254 804 CURVE SMOOTH",
"150 124 OFFCURVE",
"213 -11 OFFCURVE",
"703 -11 CURVE SMOOTH"
);
}
);
width = 1525;
},
{
anchors = (
{
name = top;
position = "{916, 1374}";
}
);
layerId = "5CBF0BAD-1756-4F16-9711-93DC239D102B";
paths = (
{
closed = 1;
nodes = (
"1143 -16 OFFCURVE",
"1286 209 OFFCURVE",
"1365 710 CURVE SMOOTH",
"1412 1007 OFFCURVE",
"1425 1112 OFFCURVE",
"1440 1145 CURVE SMOOTH",
"1474 1220 OFFCURVE",
"1578 1223 OFFCURVE",
"1592 1308 CURVE SMOOTH",
"1605 1386 OFFCURVE",
"1503 1388 OFFCURVE",
"1372 1388 CURVE SMOOTH",
"1220 1388 OFFCURVE",
"1169 1383 OFFCURVE",
"1162 1337 CURVE SMOOTH",
"1155 1291 OFFCURVE",
"1216 1238 OFFCURVE",
"1216 1141 CURVE SMOOTH",
"1216 1053 OFFCURVE",
"1206 921 OFFCURVE",
"1178 747 CURVE SMOOTH",
"1119 380 OFFCURVE",
"1061 145 OFFCURVE",
"761 145 CURVE SMOOTH",
"480 145 OFFCURVE",
"499 369 OFFCURVE",
"547 704 CURVE SMOOTH",
"572 880 OFFCURVE",
"607 1054 OFFCURVE",
"626 1118 CURVE SMOOTH",
"657 1223 OFFCURVE",
"742 1317 OFFCURVE",
"748 1350 CURVE SMOOTH",
"753 1380 OFFCURVE",
"715 1395 OFFCURVE",
"635 1395 CURVE SMOOTH",
"312 1395 OFFCURVE",
"224 1396 OFFCURVE",
"210 1307 CURVE SMOOTH",
"198 1231 OFFCURVE",
"309 1231 OFFCURVE",
"324 1176 CURVE SMOOTH",
"331 1150 OFFCURVE",
"323 1115 OFFCURVE",
"231 543 CURVE SMOOTH",
"170 165 OFFCURVE",
"321 -16 OFFCURVE",
"683 -16 CURVE SMOOTH"
);
}
);
width = 1506;
}
);
note = uni0055;
unicode = 0055;
},
{
glyphname = V;
layers = (
{
layerId = "92A672BF-229C-4BEC-8D25-4DDBB2A38145";
paths = (
{
closed = 1;
nodes = (
"650 -4 OFFCURVE",
"703 58 OFFCURVE",
"775 178 CURVE SMOOTH",
"923 425 OFFCURVE",
"1269 1086 OFFCURVE",
"1363 1223 CURVE SMOOTH",
"1384 1254 OFFCURVE",
"1500 1321 OFFCURVE",
"1504 1346 CURVE SMOOTH",
"1510 1383 OFFCURVE",
"1462 1394 OFFCURVE",
"1344 1394 CURVE SMOOTH",
"1202 1394 OFFCURVE",
"1128 1380 OFFCURVE",
"1124 1351 CURVE SMOOTH",
"1120 1324 OFFCURVE",
"1193 1256 OFFCURVE",
"1184 1203 CURVE SMOOTH",
"1169 1105 OFFCURVE",
"885 556 OFFCURVE",
"804 423 CURVE SMOOTH",
"744 324 OFFCURVE",
"729 274 OFFCURVE",
"707 274 CURVE SMOOTH",
"681 274 OFFCURVE",
"663 327 OFFCURVE",
"632 500 CURVE SMOOTH",
"596 706 OFFCURVE",
"499 1176 OFFCURVE",
"506 1222 CURVE SMOOTH",
"513 1263 OFFCURVE",
"579 1324 OFFCURVE",
"583 1353 CURVE SMOOTH",
"587 1377 OFFCURVE",
"515 1389 OFFCURVE",
"366 1389 CURVE SMOOTH",
"217 1389 OFFCURVE",
"141 1379 OFFCURVE",
"138 1360 CURVE SMOOTH",
"134 1333 OFFCURVE",
"244 1262 OFFCURVE",
"268 1194 CURVE SMOOTH",
"304 1086 OFFCURVE",
"466 255 OFFCURVE",
"501 132 CURVE SMOOTH",
"527 41 OFFCURVE",
"542 -4 OFFCURVE",
"616 -4 CURVE SMOOTH"
);
}
);
width = 1424;
},
{
layerId = "5CBF0BAD-1756-4F16-9711-93DC239D102B";
paths = (
{
closed = 1;
nodes = (
"724 -18 OFFCURVE",
"780 8 OFFCURVE",
"821 61 CURVE SMOOTH",
"971 255 OFFCURVE",
"1266 920 OFFCURVE",
"1403 1125 CURVE SMOOTH",
"1441 1182 OFFCURVE",
"1590 1292 OFFCURVE",
"1595 1322 CURVE SMOOTH",
"1604 1377 OFFCURVE",
"1541 1388 OFFCURVE",
"1427 1388 CURVE SMOOTH",
"1222 1388 OFFCURVE",
"1173 1382 OFFCURVE",
"1165 1330 CURVE SMOOTH",
"1161 1305 OFFCURVE",
"1208 1228 OFFCURVE",
"1202 1190 CURVE SMOOTH",
"1185 1080 OFFCURVE",
"962 622 OFFCURVE",
"896 485 CURVE SMOOTH",
"853 395 OFFCURVE",
"823 353 OFFCURVE",
"803 353 CURVE SMOOTH",
"795 353 OFFCURVE",
"782 397 OFFCURVE",
"760 484 CURVE SMOOTH",
"725 624 OFFCURVE",
"632 1087 OFFCURVE",
"646 1186 CURVE SMOOTH",
"655 1251 OFFCURVE",
"697 1269 OFFCURVE",
"706 1324 CURVE SMOOTH",
"714 1371 OFFCURVE",
"652 1388 OFFCURVE",
"504 1388 CURVE SMOOTH",
"322 1388 OFFCURVE",
"186 1377 OFFCURVE",
"180 1344 CURVE SMOOTH",
"166 1266 OFFCURVE",
"289 1237 OFFCURVE",
"315 1148 CURVE SMOOTH",
"325 1114 OFFCURVE",
"533 182 OFFCURVE",
"553 114 CURVE SMOOTH",
"579 26 OFFCURVE",
"610 -18 OFFCURVE",
"652 -18 CURVE SMOOTH"
);
}
);
width = 1470;
}
);
note = uni0056;
unicode = 0056;
},
{
glyphname = W;
layers = (
{
layerId = "92A672BF-229C-4BEC-8D25-4DDBB2A38145";
paths = (
{
closed = 1;
nodes = (
"570 67 OFFCURVE",
"620 107 OFFCURVE",
"672 188 CURVE SMOOTH",
"743 300 OFFCURVE",
"935 701 OFFCURVE",
"1002 823 CURVE SMOOTH",
"1035 882 OFFCURVE",
"1054 911 OFFCURVE",
"1061 911 CURVE SMOOTH",
"1086 911 OFFCURVE",
"1083 860 OFFCURVE",
"1089 841 CURVE SMOOTH",
"1116 757 OFFCURVE",
"1165 298 OFFCURVE",
"1187 213 CURVE SMOOTH",
"1211 117 OFFCURVE",
"1246 69 OFFCURVE",
"1291 69 CURVE SMOOTH",
"1342 69 OFFCURVE",
"1406 128 OFFCURVE",
"1468 231 CURVE SMOOTH",
"1574 408 OFFCURVE",
"1784 890 OFFCURVE",
"1867 1043 CURVE SMOOTH",
"1920 1133 OFFCURVE",
"2037 1265 OFFCURVE",
"2048 1310 CURVE SMOOTH",
"2060 1364 OFFCURVE",
"2000 1386 OFFCURVE",
"1927 1386 CURVE SMOOTH",
"1831 1386 OFFCURVE",
"1778 1355 OFFCURVE",
"1768 1293 CURVE SMOOTH",
"1753 1203 OFFCURVE",
"1765 1169 OFFCURVE",
"1760 1137 CURVE SMOOTH",
"1749 1069 OFFCURVE",
"1664 871 OFFCURVE",
"1505 543 CURVE SMOOTH",
"1467 465 OFFCURVE",
"1436 426 OFFCURVE",
"1411 426 CURVE SMOOTH",
"1381 426 OFFCURVE",
"1362 443 OFFCURVE",
"1353 478 CURVE SMOOTH",
"1329 566 OFFCURVE",
"1256 1066 OFFCURVE",
"1264 1120 CURVE SMOOTH",
"1270 1158 OFFCURVE",
"1295 1185 OFFCURVE",
"1302 1234 CURVE SMOOTH",
"1313 1299 OFFCURVE",
"1209 1358 OFFCURVE",
"1125 1356 CURVE SMOOTH",
"1039 1354 OFFCURVE",
"929 1303 OFFCURVE",
"916 1221 CURVE SMOOTH",
"906 1156 OFFCURVE",
"943 1100 OFFCURVE",
"934 1045 CURVE SMOOTH",
"918 940 OFFCURVE",
"775 551 OFFCURVE",
"717 475 CURVE SMOOTH",
"690 440 OFFCURVE",
"667 423 OFFCURVE",
"647 423 CURVE SMOOTH",
"616 423 OFFCURVE",
"592 468 OFFCURVE",
"577 558 CURVE SMOOTH",
"522 886 OFFCURVE",
"494 1092 OFFCURVE",
"507 1177 CURVE SMOOTH",
"521 1262 OFFCURVE",
"542 1276 OFFCURVE",
"547 1308 CURVE SMOOTH",
"553 1343 OFFCURVE",
"512 1380 OFFCURVE",
"314 1380 CURVE SMOOTH",
"257 1380 OFFCURVE",
"198 1343 OFFCURVE",
"192 1305 CURVE SMOOTH",
"188 1284 OFFCURVE",
"274 1079 OFFCURVE",
"290 1005 CURVE SMOOTH",
"303 943 OFFCURVE",
"347 617 OFFCURVE",
"379 391 CURVE SMOOTH",
"400 209 OFFCURVE",
"449 67 OFFCURVE",
"521 67 CURVE SMOOTH"
);
}
);
width = 2044;
},
{
layerId = "5CBF0BAD-1756-4F16-9711-93DC239D102B";
paths = (
{
closed = 1;
nodes = (
"702 5 OFFCURVE",
"760 53 OFFCURVE",
"797 113 CURVE SMOOTH",
"835 172 OFFCURVE",
"1007 575 OFFCURVE",
"1084 755 CURVE SMOOTH",
"1101 796 OFFCURVE",
"1116 817 OFFCURVE",
"1120 817 CURVE SMOOTH",
"1124 817 OFFCURVE",
"1129 800 OFFCURVE",
"1136 764 CURVE SMOOTH",
"1168 607 OFFCURVE",
"1235 183 OFFCURVE",
"1246 143 CURVE SMOOTH",
"1272 50 OFFCURVE",
"1294 10 OFFCURVE",
"1357 10 CURVE SMOOTH",
"1441 10 OFFCURVE",
"1503 85 OFFCURVE",
"1552 184 CURVE SMOOTH",
"1599 282 OFFCURVE",
"1675 480 OFFCURVE",
"1865 932 CURVE SMOOTH",
"1891 993 OFFCURVE",
"2054 1257 OFFCURVE",
"2059 1288 CURVE SMOOTH",
"2066 1336 OFFCURVE",
"2026 1360 OFFCURVE",
"1940 1360 CURVE SMOOTH",
"1830 1360 OFFCURVE",
"1707 1310 OFFCURVE",
"1692 1208 CURVE SMOOTH",
"1682 1141 OFFCURVE",
"1695 1077 OFFCURVE",
"1685 1013 CURVE SMOOTH",
"1671 909 OFFCURVE",
"1589 717 OFFCURVE",
"1542 603 CURVE SMOOTH",
"1520 550 OFFCURVE",
"1486 520 OFFCURVE",
"1473 520 CURVE SMOOTH",
"1461 520 OFFCURVE",
"1454 540 OFFCURVE",
"1446 581 CURVE SMOOTH",
"1413 769 OFFCURVE",
"1391 886 OFFCURVE",
"1387 978 CURVE SMOOTH",
"1385 1017 OFFCURVE",
"1387 1062 OFFCURVE",
"1393 1101 CURVE SMOOTH",
"1418 1251 OFFCURVE",
"1370 1340 OFFCURVE",
"1244 1340 CURVE SMOOTH",
"1108 1340 OFFCURVE",
"1026 1297 OFFCURVE",
"1005 1148 CURVE SMOOTH",
"998 1097 OFFCURVE",
"988 987 OFFCURVE",
"977 941 CURVE SMOOTH",
"940 788 OFFCURVE",
"914 715 OFFCURVE",
"872 629 CURVE SMOOTH",
"850 584 OFFCURVE",
"821 527 OFFCURVE",
"801 527 CURVE SMOOTH",
"788 527 OFFCURVE",
"774 547 OFFCURVE",
"763 579 CURVE SMOOTH",
"731 672 OFFCURVE",
"708 865 OFFCURVE",
"724 978 CURVE SMOOTH",
"738 1075 OFFCURVE",
"759 1148 OFFCURVE",
"757 1203 CURVE SMOOTH",
"752 1330 OFFCURVE",
"656 1369 OFFCURVE",
"418 1369 CURVE SMOOTH",
"355 1369 OFFCURVE",
"311 1329 OFFCURVE",
"305 1294 CURVE SMOOTH",
"300 1257 OFFCURVE",
"388 1059 OFFCURVE",
"399 993 CURVE SMOOTH",
"424 847 OFFCURVE",
"511 157 OFFCURVE",
"534 96 CURVE SMOOTH",
"558 36 OFFCURVE",
"599 5 OFFCURVE",
"657 5 CURVE SMOOTH"
);
}
);
width = 2072;
}
);
note = uni0057;
unicode = 0057;
},
{
glyphname = X;
layers = (
{
layerId = "92A672BF-229C-4BEC-8D25-4DDBB2A38145";
paths = (
{
closed = 1;
nodes = (
"294 3 OFFCURVE",
"353 11 OFFCURVE",
"358 45 CURVE SMOOTH",
"360 57 OFFCURVE",
"300 98 OFFCURVE",
"304 123 CURVE SMOOTH",
"313 178 OFFCURVE",
"596 550 OFFCURVE",
"639 550 CURVE SMOOTH",
"685 550 OFFCURVE",
"856 179 OFFCURVE",
"849 134 CURVE SMOOTH",
"844 107 OFFCURVE",
"806 75 OFFCURVE",
"794 43 CURVE SMOOTH",
"781 8 OFFCURVE",
"826 3 OFFCURVE",
"955 3 CURVE SMOOTH",
"1149 3 OFFCURVE",
"1248 18 OFFCURVE",
"1253 47 CURVE SMOOTH",
"1258 81 OFFCURVE",
"1126 155 OFFCURVE",
"1096 204 CURVE SMOOTH",
"911 503 OFFCURVE",
"838 691 OFFCURVE",
"847 750 CURVE SMOOTH",
"856 809 OFFCURVE",
"974 954 OFFCURVE",
"1199 1187 CURVE SMOOTH",
"1252 1242 OFFCURVE",
"1427 1324 OFFCURVE",
"1432 1352 CURVE SMOOTH",
"1436 1380 OFFCURVE",
"1373 1394 OFFCURVE",
"1243 1394 CURVE SMOOTH",
"1113 1394 OFFCURVE",
"1053 1385 OFFCURVE",
"1048 1352 CURVE SMOOTH",
"1045 1335 OFFCURVE",
"1104 1293 OFFCURVE",
"1101 1270 CURVE SMOOTH",
"1092 1215 OFFCURVE",
"831 883 OFFCURVE",
"788 883 CURVE SMOOTH",
"743 883 OFFCURVE",
"590 1210 OFFCURVE",
"598 1262 CURVE SMOOTH",
"602 1284 OFFCURVE",
"662 1325 OFFCURVE",
"665 1345 CURVE SMOOTH",
"670 1373 OFFCURVE",
"640 1387 OFFCURVE",
"577 1387 CURVE SMOOTH",
"306 1384 OFFCURVE",
"200 1376 OFFCURVE",
"195 1340 CURVE SMOOTH",
"190 1312 OFFCURVE",
"311 1259 OFFCURVE",
"342 1214 CURVE SMOOTH",
"396 1134 OFFCURVE",
"606 748 OFFCURVE",
"599 704 CURVE SMOOTH",
"589 639 OFFCURVE",
"418 436 OFFCURVE",
"181 187 CURVE SMOOTH",
"127 130 OFFCURVE",
"-20 92 OFFCURVE",
"-29 37 CURVE SMOOTH",
"-32 14 OFFCURVE",
"33 3 OFFCURVE",
"166 3 CURVE SMOOTH"
);
}
);
width = 1428;
},
{
layerId = "5CBF0BAD-1756-4F16-9711-93DC239D102B";
paths = (
{
closed = 1;
nodes = (
"380 -1 OFFCURVE",
"459 15 OFFCURVE",
"465 58 CURVE SMOOTH",
"469 85 OFFCURVE",
"432 148 OFFCURVE",
"443 218 CURVE SMOOTH",
"451 269 OFFCURVE",
"652 522 OFFCURVE",
"707 522 CURVE SMOOTH",
"746 522 OFFCURVE",
"870 229 OFFCURVE",
"861 172 CURVE SMOOTH",
"854 126 OFFCURVE",
"821 111 OFFCURVE",
"813 60 CURVE SMOOTH",
"805 6 OFFCURVE",
"845 0 OFFCURVE",
"1046 -1 CURVE SMOOTH",
"1194 -2 OFFCURVE",
"1351 -8 OFFCURVE",
"1364 64 CURVE SMOOTH",
"1372 110 OFFCURVE",
"1249 179 OFFCURVE",
"1213 232 CURVE SMOOTH",
"1158 313 OFFCURVE",
"941 693 OFFCURVE",
"948 732 CURVE SMOOTH",
"957 780 OFFCURVE",
"1081 936 OFFCURVE",
"1274 1141 CURVE SMOOTH",
"1349 1221 OFFCURVE",
"1516 1257 OFFCURVE",
"1528 1340 CURVE SMOOTH",
"1533 1374 OFFCURVE",
"1449 1388 OFFCURVE",
"1275 1388 CURVE SMOOTH",
"1116 1388 OFFCURVE",
"1083 1375 OFFCURVE",
"1079 1347 CURVE SMOOTH",
"1072 1300 OFFCURVE",
"1115 1289 OFFCURVE",
"1102 1208 CURVE SMOOTH",
"1092 1145 OFFCURVE",
"911 915 OFFCURVE",
"846 915 CURVE SMOOTH",
"830 915 OFFCURVE",
"702 1171 OFFCURVE",
"708 1210 CURVE SMOOTH",
"713 1243 OFFCURVE",
"753 1293 OFFCURVE",
"756 1311 CURVE SMOOTH",
"768 1383 OFFCURVE",
"741 1394 OFFCURVE",
"626 1394 CURVE SMOOTH",
"435 1394 OFFCURVE",
"230 1402 OFFCURVE",
"219 1331 CURVE SMOOTH",
"213 1293 OFFCURVE",
"353 1188 OFFCURVE",
"393 1120 CURVE SMOOTH",
"536 877 OFFCURVE",
"604 734 OFFCURVE",
"597 689 CURVE SMOOTH",
"587 624 OFFCURVE",
"231 236 OFFCURVE",
"148 177 CURVE SMOOTH",
"54 110 OFFCURVE",
"5 71 OFFCURVE",
"2 55 CURVE SMOOTH",
"-5 17 OFFCURVE",
"112 -1 OFFCURVE",
"237 -1 CURVE SMOOTH"
);
}
);
width = 1458;
}
);
note = uni0058;
unicode = 0058;
},
{
glyphname = Y;
layers = (
{
anchors = (
{
name = top;
position = "{807, 1393}";
}
);
layerId = "92A672BF-229C-4BEC-8D25-4DDBB2A38145";
paths = (
{
closed = 1;
nodes = (
"747 -7 OFFCURVE",
"811 -14 OFFCURVE",
"818 32 CURVE SMOOTH",
"824 69 OFFCURVE",
"739 90 OFFCURVE",
"713 130 CURVE SMOOTH",
"701 147 OFFCURVE",
"699 178 OFFCURVE",
"706 222 CURVE SMOOTH",
"772 640 OFFCURVE",
"880 803 OFFCURVE",
"1197 1184 CURVE SMOOTH",
"1248 1246 OFFCURVE",
"1393 1317 OFFCURVE",
"1399 1360 CURVE SMOOTH",
"1403 1383 OFFCURVE",
"1365 1395 OFFCURVE",
"1285 1395 CURVE SMOOTH",
"1123 1395 OFFCURVE",
"1042 1383 OFFCURVE",
"1037 1349 CURVE SMOOTH",
"1032 1321 OFFCURVE",
"1066 1282 OFFCURVE",
"1061 1247 CURVE SMOOTH",
"1048 1166 OFFCURVE",
"777 739 OFFCURVE",
"716 739 CURVE SMOOTH",
"673 739 OFFCURVE",
"517 1193 OFFCURVE",
"527 1258 CURVE SMOOTH",
"530 1278 OFFCURVE",
"592 1325 OFFCURVE",
"594 1341 CURVE SMOOTH",
"599 1370 OFFCURVE",
"563 1385 OFFCURVE",
"487 1385 CURVE SMOOTH",
"342 1385 OFFCURVE",
"173 1386 OFFCURVE",
"164 1330 CURVE SMOOTH",
"160 1308 OFFCURVE",
"177 1287 OFFCURVE",
"213 1266 CURVE SMOOTH",
"356 1183 OFFCURVE",
"565 637 OFFCURVE",
"525 387 CURVE SMOOTH",
"508 276 OFFCURVE",
"491 205 OFFCURVE",
"475 174 CURVE SMOOTH",
"444 116 OFFCURVE",
"337 73 OFFCURVE",
"329 27 CURVE SMOOTH",
"326 7 OFFCURVE",
"388 -3 OFFCURVE",
"515 -3 CURVE SMOOTH"
);
}
);
width = 1340;
},
{
anchors = (
{
name = top;
position = "{845, 1370}";
}
);
layerId = "5CBF0BAD-1756-4F16-9711-93DC239D102B";
paths = (
{
closed = 1;
nodes = (
"867 -23 OFFCURVE",
"908 -15 OFFCURVE",
"917 31 CURVE SMOOTH",
"923 63 OFFCURVE",
"792 129 OFFCURVE",
"813 258 CURVE SMOOTH",
"826 339 OFFCURVE",
"837 428 OFFCURVE",
"864 503 CURVE SMOOTH",
"944 726 OFFCURVE",
"1124 913 OFFCURVE",
"1316 1143 CURVE SMOOTH",
"1385 1226 OFFCURVE",
"1494 1243 OFFCURVE",
"1508 1338 CURVE SMOOTH",
"1513 1372 OFFCURVE",
"1474 1389 OFFCURVE",
"1391 1389 CURVE SMOOTH",
"1138 1389 OFFCURVE",
"1085 1352 OFFCURVE",
"1078 1307 CURVE SMOOTH",
"1070 1254 OFFCURVE",
"1107 1196 OFFCURVE",
"1097 1134 CURVE SMOOTH",
"1086 1065 OFFCURVE",
"859 749 OFFCURVE",
"809 749 CURVE SMOOTH",
"768 749 OFFCURVE",
"652 1151 OFFCURVE",
"662 1214 CURVE SMOOTH",
"668 1251 OFFCURVE",
"691 1283 OFFCURVE",
"697 1320 CURVE SMOOTH",
"705 1368 OFFCURVE",
"661 1392 OFFCURVE",
"565 1392 CURVE SMOOTH",
"291 1392 OFFCURVE",
"195 1376 OFFCURVE",
"184 1310 CURVE SMOOTH",
"172 1239 OFFCURVE",
"278 1202 OFFCURVE",
"313 1138 CURVE SMOOTH",
"425 933 OFFCURVE",
"609 594 OFFCURVE",
"572 371 CURVE SMOOTH",
"559 292 OFFCURVE",
"542 228 OFFCURVE",
"512 187 CURVE SMOOTH",
"465 123 OFFCURVE",
"382 79 OFFCURVE",
"375 36 CURVE SMOOTH",
"366 -19 OFFCURVE",
"401 -27 OFFCURVE",
"746 -24 CURVE SMOOTH"
);
}
);
width = 1403;
}
);
note = uni0059;
unicode = 0059;
},
{
glyphname = Z;
layers = (
{
anchors = (
{
name = top;
position = "{719, 1395}";
}
);
layerId = "92A672BF-229C-4BEC-8D25-4DDBB2A38145";
paths = (
{
closed = 1;
nodes = (
"832 -7 LINE SMOOTH",
"942 -7 OFFCURVE",
"1010 7 OFFCURVE",
"1035 36 CURVE SMOOTH",
"1082 89 OFFCURVE",
"1107 190 OFFCURVE",
"1121 279 CURVE SMOOTH",
"1127 316 OFFCURVE",
"1118 335 OFFCURVE",
"1094 335 CURVE SMOOTH",
"1078 335 OFFCURVE",
"1043 298 OFFCURVE",
"989 223 CURVE SMOOTH",
"902 102 OFFCURVE",
"761 100 OFFCURVE",
"551 100 CURVE SMOOTH",
"394 100 OFFCURVE",
"316 108 OFFCURVE",
"319 123 CURVE SMOOTH",
"324 155 OFFCURVE",
"1227 1203 OFFCURVE",
"1245 1319 CURVE SMOOTH",
"1250 1349 OFFCURVE",
"1220 1379 OFFCURVE",
"1194 1381 CURVE SMOOTH",
"1148 1385 OFFCURVE",
"829 1393 OFFCURVE",
"802 1394 CURVE SMOOTH",
"415 1395 OFFCURVE",
"295 1391 OFFCURVE",
"270 1369 CURVE SMOOTH",
"237 1340 OFFCURVE",
"210 1259 OFFCURVE",
"188 1126 CURVE SMOOTH",
"182 1085 OFFCURVE",
"193 1065 OFFCURVE",
"222 1065 CURVE SMOOTH",
"244 1065 OFFCURVE",
"275 1091 OFFCURVE",
"312 1143 CURVE SMOOTH",
"421 1294 OFFCURVE",
"539 1285 OFFCURVE",
"788 1285 CURVE SMOOTH",
"893 1285 OFFCURVE",
"944 1272 OFFCURVE",
"939 1244 CURVE SMOOTH",
"933 1203 OFFCURVE",
"24 155 OFFCURVE",
"8 58 CURVE SMOOTH",
"0 3 OFFCURVE",
"76 1 OFFCURVE",
"173 1 CURVE SMOOTH"
);
}
);
width = 1273;
},
{
anchors = (
{
name = top;
position = "{824, 1394}";
}
);
layerId = "5CBF0BAD-1756-4F16-9711-93DC239D102B";
paths = (
{
closed = 1;
nodes = (
"913 -1 LINE SMOOTH",
"996 -1 OFFCURVE",
"1050 14 OFFCURVE",
"1073 45 CURVE SMOOTH",
"1112 97 OFFCURVE",
"1143 180 OFFCURVE",
"1160 295 CURVE SMOOTH",
"1168 348 OFFCURVE",
"1157 375 OFFCURVE",
"1125 375 CURVE SMOOTH",
"1094 375 OFFCURVE",
"839 187 OFFCURVE",
"813 181 CURVE SMOOTH",
"758 168 OFFCURVE",
"666 148 OFFCURVE",
"578 146 CURVE SMOOTH",
"478 144 OFFCURVE",
"429 157 OFFCURVE",
"434 189 CURVE SMOOTH",
"448 276 OFFCURVE",
"1259 1159 OFFCURVE",
"1281 1308 CURVE SMOOTH",
"1287 1349 OFFCURVE",
"1280 1373 OFFCURVE",
"1258 1380 CURVE SMOOTH",
"1235 1387 OFFCURVE",
"1084 1389 OFFCURVE",
"806 1389 CURVE SMOOTH",
"522 1389 OFFCURVE",
"390 1387 OFFCURVE",
"365 1368 CURVE SMOOTH",
"331 1342 OFFCURVE",
"303 1264 OFFCURVE",
"282 1133 CURVE SMOOTH",
"273 1076 OFFCURVE",
"284 1047 OFFCURVE",
"316 1047 CURVE SMOOTH",
"337 1047 OFFCURVE",
"386 1064 OFFCURVE",
"439 1100 CURVE SMOOTH",
"540 1168 OFFCURVE",
"588 1243 OFFCURVE",
"750 1245 CURVE SMOOTH",
"826 1246 OFFCURVE",
"930 1230 OFFCURVE",
"924 1190 CURVE SMOOTH",
"913 1117 OFFCURVE",
"67 223 OFFCURVE",
"46 89 CURVE SMOOTH",
"33 8 OFFCURVE",
"82 -1 OFFCURVE",
"181 -1 CURVE SMOOTH"
);
}
);
width = 1278;
}
);
note = uni005A;
unicode = 005A;
},
{
glyphname = a;
layers = (
{
anchors = (
{
name = top;
position = "{612, 972}";
}
);
layerId = "92A672BF-229C-4BEC-8D25-4DDBB2A38145";
paths = (
{
closed = 1;
nodes = (
"351 -20 OFFCURVE",
"565 82 OFFCURVE",
"579 82 CURVE SMOOTH",
"592 82 OFFCURVE",
"675 -9 OFFCURVE",
"714 -9 CURVE SMOOTH",
"774 -9 OFFCURVE",
"900 19 OFFCURVE",
"908 65 CURVE SMOOTH",
"912 93 OFFCURVE",
"806 131 OFFCURVE",
"796 174 CURVE SMOOTH",
"791 196 OFFCURVE",
"816 350 OFFCURVE",
"837 485 CURVE SMOOTH",
"890 820 OFFCURVE",
"883 974 OFFCURVE",
"582 974 CURVE SMOOTH",
"413 974 OFFCURVE",
"194 911 OFFCURVE",
"173 780 CURVE SMOOTH",
"165 729 OFFCURVE",
"191 689 OFFCURVE",
"220 689 CURVE SMOOTH",
"348 689 OFFCURVE",
"387 875 OFFCURVE",
"528 875 CURVE SMOOTH",
"629 875 OFFCURVE",
"679 830 OFFCURVE",
"662 731 CURVE SMOOTH",
"636 590 OFFCURVE",
"619 564 OFFCURVE",
"485 532 CURVE SMOOTH",
"230 470 OFFCURVE",
"75 421 OFFCURVE",
"43 219 CURVE SMOOTH",
"19 64 OFFCURVE",
"98 -20 OFFCURVE",
"279 -20 CURVE SMOOTH"
);
},
{
closed = 1;
nodes = (
"222 94 OFFCURVE",
"219 159 OFFCURVE",
"237 262 CURVE SMOOTH",
"254 357 OFFCURVE",
"418 462 OFFCURVE",
"591 462 CURVE SMOOTH",
"627 462 OFFCURVE",
"642 453 OFFCURVE",
"637 421 CURVE SMOOTH",
"630 373 OFFCURVE",
"622 326 OFFCURVE",
"614 278 CURVE SMOOTH",
"597 167 OFFCURVE",
"469 94 OFFCURVE",
"339 94 CURVE SMOOTH"
);
}
);
width = 1050;
},
{
anchors = (
{
name = top;
position = "{630, 979}";
}
);
layerId = "5CBF0BAD-1756-4F16-9711-93DC239D102B";
paths = (
{
closed = 1;
nodes = (
"512 -15 OFFCURVE",
"589 148 OFFCURVE",
"622 148 CURVE SMOOTH",
"650 148 OFFCURVE",
"652 0 OFFCURVE",
"722 0 CURVE SMOOTH",
"947 0 OFFCURVE",
"1039 60 OFFCURVE",
"1039 140 CURVE SMOOTH",
"1039 178 OFFCURVE",
"1013 195 OFFCURVE",
"988 195 CURVE SMOOTH",
"954 195 OFFCURVE",
"906 212 OFFCURVE",
"906 257 CURVE SMOOTH",
"906 460 OFFCURVE",
"1006 725 OFFCURVE",
"1004 837 CURVE SMOOTH",
"1003 892 OFFCURVE",
"984 915 OFFCURVE",
"931 915 CURVE SMOOTH",
"899 915 OFFCURVE",
"881 903 OFFCURVE",
"844 903 CURVE SMOOTH",
"804 903 OFFCURVE",
"769 938 OFFCURVE",
"718 938 CURVE SMOOTH",
"537 938 OFFCURVE",
"394 883 OFFCURVE",
"310 821 CURVE SMOOTH",
"245 773 OFFCURVE",
"161 666 OFFCURVE",
"122 590 CURVE SMOOTH",
"83 514 OFFCURVE",
"58 418 OFFCURVE",
"58 302 CURVE SMOOTH",
"58 140 OFFCURVE",
"157 -15 OFFCURVE",
"306 -15 CURVE SMOOTH"
);
},
{
closed = 1;
nodes = (
"339 159 OFFCURVE",
"306 320 OFFCURVE",
"306 388 CURVE SMOOTH",
"306 523 OFFCURVE",
"418 810 OFFCURVE",
"617 810 CURVE SMOOTH",
"695 810 OFFCURVE",
"723 761 OFFCURVE",
"723 700 CURVE SMOOTH",
"723 558 OFFCURVE",
"680 451 OFFCURVE",
"636 311 CURVE SMOOTH",
"614 240 OFFCURVE",
"525 159 OFFCURVE",
"401 159 CURVE SMOOTH"
);
}
);
width = 1109;
}
);
note = uni0061;
unicode = 0061;
},
{
glyphname = ae;
layers = (
{
layerId = "92A672BF-229C-4BEC-8D25-4DDBB2A38145";
paths = (
{
closed = 1;
nodes = (
"1138 -9 OFFCURVE",
"1367 76 OFFCURVE",
"1382 173 CURVE SMOOTH",
"1385 192 OFFCURVE",
"1378 202 OFFCURVE",
"1359 202 CURVE SMOOTH",
"1344 202 OFFCURVE",
"1153 111 OFFCURVE",
"1056 111 CURVE SMOOTH",
"889 111 OFFCURVE",
"808 231 OFFCURVE",
"835 406 CURVE SMOOTH",
"841 445 OFFCURVE",
"868 469 OFFCURVE",
"914 479 CURVE SMOOTH",
"1003 498 OFFCURVE",
"1350 497 OFFCURVE",
"1421 533 CURVE SMOOTH",
"1450 547 OFFCURVE",
"1468 579 OFFCURVE",
"1476 630 CURVE SMOOTH",
"1507 827 OFFCURVE",
"1379 969 OFFCURVE",
"1152 969 CURVE SMOOTH",
"1043 969 OFFCURVE",
"882 881 OFFCURVE",
"831 881 CURVE SMOOTH",
"804 881 OFFCURVE",
"715 965 OFFCURVE",
"566 965 CURVE SMOOTH",
"415 965 OFFCURVE",
"210 899 OFFCURVE",
"189 766 CURVE SMOOTH",
"183 725 OFFCURVE",
"205 692 OFFCURVE",
"258 692 CURVE SMOOTH",
"377 692 OFFCURVE",
"358 871 OFFCURVE",
"550 871 CURVE SMOOTH",
"630 871 OFFCURVE",
"694 797 OFFCURVE",
"671 648 CURVE SMOOTH",
"658 567 OFFCURVE",
"589 549 OFFCURVE",
"488 532 CURVE SMOOTH",
"260 494 OFFCURVE",
"74 424 OFFCURVE",
"45 237 CURVE SMOOTH",
"20 81 OFFCURVE",
"107 -7 OFFCURVE",
"284 -7 CURVE SMOOTH",
"462 -7 OFFCURVE",
"627 135 OFFCURVE",
"650 135 CURVE SMOOTH",
"682 135 OFFCURVE",
"775 -9 OFFCURVE",
"1015 -9 CURVE SMOOTH"
);
},
{
closed = 1;
nodes = (
"277 131 OFFCURVE",
"235 164 OFFCURVE",
"251 266 CURVE SMOOTH",
"275 420 OFFCURVE",
"340 460 OFFCURVE",
"617 479 CURVE SMOOTH",
"658 482 OFFCURVE",
"668 435 OFFCURVE",
"645 270 CURVE SMOOTH",
"634 202 OFFCURVE",
"485 131 OFFCURVE",
"387 131 CURVE SMOOTH"
);
},
{
closed = 1;
nodes = (
"848 542 OFFCURVE",
"827 557 OFFCURVE",
"831 584 CURVE SMOOTH",
"857 746 OFFCURVE",
"966 857 OFFCURVE",
"1091 857 CURVE SMOOTH",
"1223 857 OFFCURVE",
"1283 802 OFFCURVE",
"1254 622 CURVE SMOOTH",
"1246 568 OFFCURVE",
"1200 547 OFFCURVE",
"894 543 CURVE SMOOTH"
);
}
);
width = 1566;
},
{
layerId = "5CBF0BAD-1756-4F16-9711-93DC239D102B";
paths = (
{
closed = 1;
nodes = (
"1135 -21 OFFCURVE",
"1434 62 OFFCURVE",
"1434 170 CURVE SMOOTH",
"1434 199 OFFCURVE",
"1412 213 OFFCURVE",
"1392 210 CURVE SMOOTH",
"1330 201 OFFCURVE",
"1244 152 OFFCURVE",
"1166 152 CURVE SMOOTH",
"1016 152 OFFCURVE",
"951 213 OFFCURVE",
"951 305 CURVE SMOOTH",
"951 343 OFFCURVE",
"982 387 OFFCURVE",
"1023 396 CURVE SMOOTH",
"1188 431 OFFCURVE",
"1341 485 OFFCURVE",
"1460 557 CURVE SMOOTH",
"1497 579 OFFCURVE",
"1539 656 OFFCURVE",
"1539 720 CURVE SMOOTH",
"1539 900 OFFCURVE",
"1422 956 OFFCURVE",
"1226 956 CURVE SMOOTH",
"1089 956 OFFCURVE",
"1023 866 OFFCURVE",
"983 866 CURVE SMOOTH",
"959 866 OFFCURVE",
"959 872 OFFCURVE",
"954 915 CURVE SMOOTH",
"951 941 OFFCURVE",
"928 941 OFFCURVE",
"894 941 CURVE SMOOTH",
"827 941 OFFCURVE",
"869 922 OFFCURVE",
"796 922 CURVE SMOOTH",
"721 922 OFFCURVE",
"746 933 OFFCURVE",
"633 933 CURVE SMOOTH",
"514 933 OFFCURVE",
"458 892 OFFCURVE",
"411 866 CURVE SMOOTH",
"332 822 OFFCURVE",
"279 784 OFFCURVE",
"205 689 CURVE SMOOTH",
"151 619 OFFCURVE",
"67 433 OFFCURVE",
"62 252 CURVE SMOOTH",
"55 91 OFFCURVE",
"176 -18 OFFCURVE",
"350 -18 CURVE SMOOTH",
"600 -18 OFFCURVE",
"660 176 OFFCURVE",
"706 178 CURVE SMOOTH",
"730 179 OFFCURVE",
"772 -21 OFFCURVE",
"999 -21 CURVE SMOOTH"
);
},
{
closed = 1;
nodes = (
"375 152 OFFCURVE",
"324 316 OFFCURVE",
"324 388 CURVE SMOOTH",
"324 515 OFFCURVE",
"475 820 OFFCURVE",
"629 820 CURVE SMOOTH",
"697 820 OFFCURVE",
"771 797 OFFCURVE",
"771 745 CURVE SMOOTH",
"771 668 OFFCURVE",
"688 152 OFFCURVE",
"443 152 CURVE SMOOTH"
);
},
{
closed = 1;
nodes = (
"1002 499 OFFCURVE",
"970 507 OFFCURVE",
"970 528 CURVE SMOOTH",
"968 669 OFFCURVE",
"1091 834 OFFCURVE",
"1195 834 CURVE SMOOTH",
"1266 834 OFFCURVE",
"1308 807 OFFCURVE",
"1308 720 CURVE SMOOTH",
"1308 650 OFFCURVE",
"1195 508 OFFCURVE",
"1030 500 CURVE SMOOTH"
);
}
);
width = 1586;
}
);
note = uni00E6;
unicode = 00E6;
},
{
glyphname = b;
layers = (
{
layerId = "92A672BF-229C-4BEC-8D25-4DDBB2A38145";
paths = (
{
closed = 1;
nodes = (
"762 -13 OFFCURVE",
"966 201 OFFCURVE",
"1009 474 CURVE SMOOTH",
"1054 757 OFFCURVE",
"932 945 OFFCURVE",
"711 945 CURVE SMOOTH",
"554 945 OFFCURVE",
"453 877 OFFCURVE",
"422 877 CURVE SMOOTH",
"395 877 OFFCURVE",
"394 956 OFFCURVE",
"419 1115 CURVE SMOOTH",
"453 1325 OFFCURVE",
"491 1455 OFFCURVE",
"380 1455 CURVE SMOOTH",
"309 1455 OFFCURVE",
"160 1433 OFFCURVE",
"155 1402 CURVE SMOOTH",
"147 1355 OFFCURVE",
"229 1346 OFFCURVE",
"244 1306 CURVE SMOOTH",
"266 1245 OFFCURVE",
"238 1126 OFFCURVE",
"166 697 CURVE SMOOTH",
"89 243 OFFCURVE",
"68 181 OFFCURVE",
"59 124 CURVE SMOOTH",
"49 56 OFFCURVE",
"69 22 OFFCURVE",
"121 22 CURVE SMOOTH",
"145 22 OFFCURVE",
"167 33 OFFCURVE",
"202 33 CURVE SMOOTH",
"309 33 OFFCURVE",
"366 -13 OFFCURVE",
"496 -13 CURVE SMOOTH"
);
},
{
closed = 1;
nodes = (
"289 72 OFFCURVE",
"267 139 OFFCURVE",
"300 358 CURVE SMOOTH",
"360 765 OFFCURVE",
"434 860 OFFCURVE",
"624 860 CURVE SMOOTH",
"774 860 OFFCURVE",
"844 715 OFFCURVE",
"804 458 CURVE SMOOTH",
"776 278 OFFCURVE",
"663 72 OFFCURVE",
"502 72 CURVE SMOOTH"
);
}
);
width = 1149;
},
{
layerId = "5CBF0BAD-1756-4F16-9711-93DC239D102B";
paths = (
{
closed = 1;
nodes = (
"867 -20 OFFCURVE",
"1114 310 OFFCURVE",
"1114 558 CURVE SMOOTH",
"1114 777 OFFCURVE",
"1036 914 OFFCURVE",
"826 914 CURVE SMOOTH",
"709 914 OFFCURVE",
"594 815 OFFCURVE",
"559 815 CURVE SMOOTH",
"529 815 OFFCURVE",
"549 999 OFFCURVE",
"582 1163 CURVE SMOOTH",
"632 1412 OFFCURVE",
"630 1455 OFFCURVE",
"556 1455 CURVE SMOOTH",
"405 1455 OFFCURVE",
"267 1414 OFFCURVE",
"267 1361 CURVE SMOOTH",
"267 1311 OFFCURVE",
"350 1258 OFFCURVE",
"354 1202 CURVE SMOOTH",
"357 1164 OFFCURVE",
"296 865 OFFCURVE",
"243 607 CURVE SMOOTH",
"179 297 OFFCURVE",
"134 243 OFFCURVE",
"133 107 CURVE SMOOTH",
"133 50 OFFCURVE",
"194 0 OFFCURVE",
"268 0 CURVE SMOOTH",
"333 0 OFFCURVE",
"369 12 OFFCURVE",
"416 12 CURVE SMOOTH",
"449 12 OFFCURVE",
"550 -20 OFFCURVE",
"590 -20 CURVE SMOOTH"
);
},
{
closed = 1;
nodes = (
"475 110 OFFCURVE",
"421 160 OFFCURVE",
"424 305 CURVE SMOOTH",
"428 520 OFFCURVE",
"590 759 OFFCURVE",
"753 759 CURVE SMOOTH",
"825 759 OFFCURVE",
"874 724 OFFCURVE",
"874 480 CURVE SMOOTH",
"874 297 OFFCURVE",
"701 110 OFFCURVE",
"572 110 CURVE SMOOTH"
);
}
);
width = 1200;
}
);
note = uni0062;
unicode = 0062;
},
{
glyphname = c;
layers = (
{
layerId = "92A672BF-229C-4BEC-8D25-4DDBB2A38145";
paths = (
{
closed = 1;
nodes = (
"638 -18 OFFCURVE",
"827 86 OFFCURVE",
"837 153 CURVE SMOOTH",
"841 178 OFFCURVE",
"837 189 OFFCURVE",
"819 189 CURVE SMOOTH",
"782 189 OFFCURVE",
"625 93 OFFCURVE",
"540 93 CURVE SMOOTH",
"336 93 OFFCURVE",
"246 243 OFFCURVE",
"283 477 CURVE SMOOTH",
"319 703 OFFCURVE",
"443 871 OFFCURVE",
"592 871 CURVE SMOOTH",
"745 871 OFFCURVE",
"754 682 OFFCURVE",
"846 682 CURVE SMOOTH",
"897 682 OFFCURVE",
"928 738 OFFCURVE",
"939 804 CURVE SMOOTH",
"958 925 OFFCURVE",
"809 967 OFFCURVE",
"660 967 CURVE SMOOTH",
"354 967 OFFCURVE",
"132 763 OFFCURVE",
"83 459 CURVE SMOOTH",
"36 157 OFFCURVE",
"169 -18 OFFCURVE",
"491 -18 CURVE SMOOTH"
);
}
);
width = 973;
},
{
layerId = "5CBF0BAD-1756-4F16-9711-93DC239D102B";
paths = (
{
closed = 1;
nodes = (
"687 -20 OFFCURVE",
"867 97 OFFCURVE",
"867 160 CURVE SMOOTH",
"867 195 OFFCURVE",
"854 213 OFFCURVE",
"828 213 CURVE SMOOTH",
"798 213 OFFCURVE",
"680 153 OFFCURVE",
"615 153 CURVE SMOOTH",
"417 153 OFFCURVE",
"380 235 OFFCURVE",
"380 468 CURVE SMOOTH",
"380 645 OFFCURVE",
"494 788 OFFCURVE",
"638 788 CURVE SMOOTH",
"735 788 OFFCURVE",
"772 656 OFFCURVE",
"881 656 CURVE SMOOTH",
"939 656 OFFCURVE",
"969 703 OFFCURVE",
"969 795 CURVE SMOOTH",
"969 897 OFFCURVE",
"829 938 OFFCURVE",
"644 938 CURVE SMOOTH",
"411 938 OFFCURVE",
"129 700 OFFCURVE",
"129 434 CURVE SMOOTH",
"129 123 OFFCURVE",
"210 -20 OFFCURVE",
"532 -20 CURVE SMOOTH"
);
}
);
width = 1005;
}
);
note = uni0063;
unicode = 0063;
},
{
glyphname = ccedilla;
layers = (
{
layerId = "92A672BF-229C-4BEC-8D25-4DDBB2A38145";
paths = (
{
closed = 1;
nodes = (
"468 -430 OFFCURVE",
"625 -341 OFFCURVE",
"640 -247 CURVE SMOOTH",
"644 -226 OFFCURVE",
"628 -202 OFFCURVE",
"566 -120 CURVE SMOOTH",
"545 -92 OFFCURVE",
"529 -70 OFFCURVE",
"516 -53 CURVE",
"622 -42 OFFCURVE",
"804 31 OFFCURVE",
"817 112 CURVE SMOOTH",
"821 139 OFFCURVE",
"808 153 OFFCURVE",
"776 153 CURVE SMOOTH",
"762 153 OFFCURVE",
"616 73 OFFCURVE",
"534 73 CURVE SMOOTH",
"354 73 OFFCURVE",
"271 206 OFFCURVE",
"305 419 CURVE SMOOTH",
"338 631 OFFCURVE",
"444 759 OFFCURVE",
"584 759 CURVE SMOOTH",
"745 759 OFFCURVE",
"730 593 OFFCURVE",
"833 593 CURVE SMOOTH",
"872 593 OFFCURVE",
"897 630 OFFCURVE",
"909 704 CURVE SMOOTH",
"930 835 OFFCURVE",
"787 867 OFFCURVE",
"607 867 CURVE SMOOTH",
"363 867 OFFCURVE",
"166 656 OFFCURVE",
"125 397 CURVE SMOOTH",
"91 162 OFFCURVE",
"187 -26 OFFCURVE",
"415 -52 CURVE",
"411 -58 OFFCURVE",
"408 -63 OFFCURVE",
"408 -66 CURVE SMOOTH",
"407 -72 OFFCURVE",
"413 -89 OFFCURVE",
"427 -117 CURVE SMOOTH",
"441 -144 OFFCURVE",
"447 -164 OFFCURVE",
"446 -176 CURVE SMOOTH",
"430 -262 OFFCURVE",
"376 -317 OFFCURVE",
"314 -317 CURVE SMOOTH",
"290 -317 OFFCURVE",
"275 -339 OFFCURVE",
"268 -382 CURVE SMOOTH",
"261 -423 OFFCURVE",
"289 -430 OFFCURVE",
"374 -430 CURVE SMOOTH"
);
}
);
width = 983;
},
{
layerId = "5CBF0BAD-1756-4F16-9711-93DC239D102B";
paths = (
{
closed = 1;
nodes = (
"469 -426 OFFCURVE",
"570 -348 OFFCURVE",
"570 -220 CURVE SMOOTH",
"570 -156 OFFCURVE",
"528 -113 OFFCURVE",
"462 -81 CURVE SMOOTH",
"420 -61 OFFCURVE",
"407 -30 OFFCURVE",
"406 -12 CURVE",
"588 -12 OFFCURVE",
"848 54 OFFCURVE",
"848 149 CURVE SMOOTH",
"848 182 OFFCURVE",
"839 222 OFFCURVE",
"791 222 CURVE SMOOTH",
"741 222 OFFCURVE",
"616 149 OFFCURVE",
"567 149 CURVE SMOOTH",
"487 149 OFFCURVE",
"359 221 OFFCURVE",
"359 420 CURVE SMOOTH",
"359 618 OFFCURVE",
"492 782 OFFCURVE",
"606 782 CURVE SMOOTH",
"788 782 OFFCURVE",
"809 652 OFFCURVE",
"865.5 652 CURVE SMOOTH",
"911 652 OFFCURVE",
"966 715 OFFCURVE",
"966 798 CURVE SMOOTH",
"966 896 OFFCURVE",
"936 941 OFFCURVE",
"609 941 CURVE SMOOTH",
"310 941 OFFCURVE",
"102 663 OFFCURVE",
"102 371 CURVE SMOOTH",
"102 90 OFFCURVE",
"186 17 OFFCURVE",
"315 -9 CURVE",
"315 -28 OFFCURVE",
"287 -57 OFFCURVE",
"287 -110 CURVE SMOOTH",
"287 -132 OFFCURVE",
"304 -150 OFFCURVE",
"338 -165 CURVE SMOOTH",
"372 -180 OFFCURVE",
"389 -199 OFFCURVE",
"389 -224 CURVE SMOOTH",
"389 -284 OFFCURVE",
"350 -314 OFFCURVE",
"272 -314 CURVE SMOOTH",
"211 -314 OFFCURVE",
"186 -324 OFFCURVE",
"186 -371 CURVE SMOOTH",
"186 -426 OFFCURVE",
"251 -426 OFFCURVE",
"333 -426 CURVE"
);
}
);
width = 1067;
}
);
note = uni00E7;
unicode = 00E7;
},
{
glyphname = d;
layers = (
{
layerId = "92A672BF-229C-4BEC-8D25-4DDBB2A38145";
paths = (
{
closed = 1;
nodes = (
"512 -18 OFFCURVE",
"623 81 OFFCURVE",
"663 81 CURVE SMOOTH",
"673 81 OFFCURVE",
"715 -8 OFFCURVE",
"790 -8 CURVE SMOOTH",
"853 -8 OFFCURVE",
"963 8 OFFCURVE",
"972 63 CURVE SMOOTH",
"977 97 OFFCURVE",
"879 124 OFFCURVE",
"879 184 CURVE SMOOTH",
"878 213 OFFCURVE",
"909 426 OFFCURVE",
"969 805 CURVE SMOOTH",
"1003 1017 OFFCURVE",
"1042 1272 OFFCURVE",
"1058 1368 CURVE SMOOTH",
"1069 1426 OFFCURVE",
"1024 1462 OFFCURVE",
"991 1462 CURVE SMOOTH",
"851 1462 OFFCURVE",
"761 1439 OFFCURVE",
"754 1399 CURVE SMOOTH",
"749 1364 OFFCURVE",
"831 1344 OFFCURVE",
"847 1301 CURVE SMOOTH",
"854 1280 OFFCURVE",
"848 1196 OFFCURVE",
"836 1118 CURVE SMOOTH",
"817 1000 OFFCURVE",
"794 941 OFFCURVE",
"748 941 CURVE SMOOTH",
"709 941 OFFCURVE",
"657 956 OFFCURVE",
"607 955 CURVE SMOOTH",
"298 948 OFFCURVE",
"95 753 OFFCURVE",
"46 442 CURVE SMOOTH",
"8 202 OFFCURVE",
"104 -18 OFFCURVE",
"327 -18 CURVE SMOOTH"
);
},
{
closed = 1;
nodes = (
"272 88 OFFCURVE",
"198 244 OFFCURVE",
"230 445 CURVE SMOOTH",
"276 724 OFFCURVE",
"387 872 OFFCURVE",
"558 872 CURVE SMOOTH",
"776 872 OFFCURVE",
"776 814 OFFCURVE",
"715 429 CURVE SMOOTH",
"673 169 OFFCURVE",
"603 88 OFFCURVE",
"415 88 CURVE SMOOTH"
);
}
);
width = 1176;
},
{
layerId = "5CBF0BAD-1756-4F16-9711-93DC239D102B";
paths = (
{
closed = 1;
nodes = (
"531 -26 OFFCURVE",
"635 103 OFFCURVE",
"699 103 CURVE SMOOTH",
"726 103 OFFCURVE",
"796 -15 OFFCURVE",
"871 -15 CURVE SMOOTH",
"1013 -15 OFFCURVE",
"1108 51 OFFCURVE",
"1108 109 CURVE SMOOTH",
"1108 147 OFFCURVE",
"985 183 OFFCURVE",
"985 258 CURVE SMOOTH",
"985 300 OFFCURVE",
"1013 426 OFFCURVE",
"1074 792 CURVE SMOOTH",
"1096 923 OFFCURVE",
"1141 1107 OFFCURVE",
"1147 1306 CURVE SMOOTH",
"1150 1412 OFFCURVE",
"1105 1459 OFFCURVE",
"1003 1459 CURVE SMOOTH",
"922 1459 OFFCURVE",
"798 1396 OFFCURVE",
"798 1343 CURVE SMOOTH",
"798 1331 OFFCURVE",
"817 1311 OFFCURVE",
"855 1278 CURVE SMOOTH",
"906 1233 OFFCURVE",
"901 1152 OFFCURVE",
"871 1035 CURVE SMOOTH",
"853 965 OFFCURVE",
"855 907 OFFCURVE",
"824 907 CURVE SMOOTH",
"781 907 OFFCURVE",
"754 914 OFFCURVE",
"672 914 CURVE SMOOTH",
"375 914 OFFCURVE",
"128 686 OFFCURVE",
"128 363 CURVE SMOOTH",
"128 126 OFFCURVE",
"255 -26 OFFCURVE",
"380 -26 CURVE SMOOTH"
);
},
{
closed = 1;
nodes = (
"381 149 OFFCURVE",
"364 232 OFFCURVE",
"364 425 CURVE SMOOTH",
"364 642 OFFCURVE",
"516 792 OFFCURVE",
"667 792 CURVE SMOOTH",
"751 792 OFFCURVE",
"802 748 OFFCURVE",
"802 581 CURVE SMOOTH",
"802 290 OFFCURVE",
"586 149 OFFCURVE",
"487 149 CURVE SMOOTH"
);
}
);
width = 1218;
}
);
note = uni0064;
unicode = 0064;
},
{
glyphname = eth;
layers = (
{
layerId = "92A672BF-229C-4BEC-8D25-4DDBB2A38145";
paths = (
{
closed = 1;
nodes = (
"738 -29 OFFCURVE",
"942 178 OFFCURVE",
"992 504 CURVE SMOOTH",
"1055 908 OFFCURVE",
"867 1189 OFFCURVE",
"872 1220 CURVE SMOOTH",
"878 1262 OFFCURVE",
"922 1308 OFFCURVE",
"928 1349 CURVE SMOOTH",
"932 1376 OFFCURVE",
"918 1390 OFFCURVE",
"885 1390 CURVE SMOOTH",
"838 1390 OFFCURVE",
"772 1360 OFFCURVE",
"717 1360 CURVE SMOOTH",
"647 1360 OFFCURVE",
"580 1426 OFFCURVE",
"498 1426 CURVE SMOOTH",
"442 1426 OFFCURVE",
"420 1417 OFFCURVE",
"418 1395 CURVE SMOOTH",
"412 1352 OFFCURVE",
"539 1289 OFFCURVE",
"532 1246 CURVE SMOOTH",
"525 1202 OFFCURVE",
"457 1185 OFFCURVE",
"451 1145 CURVE SMOOTH",
"445 1109 OFFCURVE",
"510 1100 OFFCURVE",
"606 1100 CURVE SMOOTH",
"708 1100 OFFCURVE",
"773 1037 OFFCURVE",
"757 941 CURVE SMOOTH",
"752 908 OFFCURVE",
"729 898 OFFCURVE",
"617 901 CURVE SMOOTH",
"302 901 OFFCURVE",
"111 733 OFFCURVE",
"60 406 CURVE SMOOTH",
"20 155 OFFCURVE",
"170 -29 OFFCURVE",
"431 -29 CURVE SMOOTH"
);
},
{
closed = 1;
nodes = (
"311 51 OFFCURVE",
"234 198 OFFCURVE",
"271 431 CURVE SMOOTH",
"315 712 OFFCURVE",
"416 855 OFFCURVE",
"574 855 CURVE SMOOTH",
"761 855 OFFCURVE",
"819 704 OFFCURVE",
"786 494 CURVE SMOOTH",
"741 211 OFFCURVE",
"627 51 OFFCURVE",
"440 51 CURVE SMOOTH"
);
}
);
width = 1152;
},
{
layerId = "5CBF0BAD-1756-4F16-9711-93DC239D102B";
paths = (
{
closed = 1;
nodes = (
"916 -32 OFFCURVE",
"1088 229 OFFCURVE",
"1087 575 CURVE SMOOTH",
"1086 994 OFFCURVE",
"947 1149 OFFCURVE",
"947 1208 CURVE SMOOTH",
"947 1233 OFFCURVE",
"1054 1326 OFFCURVE",
"1052 1364 CURVE SMOOTH",
"1050 1401 OFFCURVE",
"1031 1437 OFFCURVE",
"991 1437 CURVE SMOOTH",
"951 1437 OFFCURVE",
"892 1382 OFFCURVE",
"810 1382 CURVE SMOOTH",
"761 1382 OFFCURVE",
"611 1437 OFFCURVE",
"558 1437 CURVE SMOOTH",
"483 1437 OFFCURVE",
"445 1417 OFFCURVE",
"445 1376 CURVE SMOOTH",
"445 1330 OFFCURVE",
"587 1268 OFFCURVE",
"587 1237 CURVE SMOOTH",
"587 1193 OFFCURVE",
"473 1148 OFFCURVE",
"473 1104 CURVE SMOOTH",
"473 1028 OFFCURVE",
"637 1097 OFFCURVE",
"698 1097 CURVE SMOOTH",
"779 1097 OFFCURVE",
"794 1043 OFFCURVE",
"794 972 CURVE SMOOTH",
"794 929 OFFCURVE",
"739 904 OFFCURVE",
"649 904 CURVE SMOOTH",
"434 904 OFFCURVE",
"177 716 OFFCURVE",
"177 416 CURVE SMOOTH",
"177 189 OFFCURVE",
"266 -32 OFFCURVE",
"567 -32 CURVE SMOOTH"
);
},
{
closed = 1;
nodes = (
"478 100 OFFCURVE",
"416 256 OFFCURVE",
"416 443 CURVE SMOOTH",
"416 668 OFFCURVE",
"570 790 OFFCURVE",
"689 790 CURVE SMOOTH",
"810 790 OFFCURVE",
"840 758 OFFCURVE",
"844 500 CURVE SMOOTH",
"844 274 OFFCURVE",
"732 100 OFFCURVE",
"598 100 CURVE SMOOTH"
);
}
);
width = 1236;
}
);
note = uni00F0;
unicode = 00F0;
},
{
glyphname = e;
layers = (
{
anchors = (
{
name = top;
position = "{510, 972}";
}
);
layerId = "92A672BF-229C-4BEC-8D25-4DDBB2A38145";
paths = (
{
closed = 1;
nodes = (
"700 -19 OFFCURVE",
"873 102 OFFCURVE",
"873 196 CURVE SMOOTH",
"873 218 OFFCURVE",
"861 229 OFFCURVE",
"838 229 CURVE SMOOTH",
"810 229 OFFCURVE",
"660 140 OFFCURVE",
"569 140 CURVE SMOOTH",
"420 140 OFFCURVE",
"385 188 OFFCURVE",
"385 271 CURVE SMOOTH",
"385 330 OFFCURVE",
"461 379 OFFCURVE",
"666 445 CURVE SMOOTH",
"838 500 OFFCURVE",
"976 540 OFFCURVE",
"976 700 CURVE SMOOTH",
"976 883 OFFCURVE",
"809 941 OFFCURVE",
"619 941 CURVE SMOOTH",
"373 941 OFFCURVE",
"115 617 OFFCURVE",
"115 360 CURVE SMOOTH",
"115 95 OFFCURVE",
"236 -19 OFFCURVE",
"552 -19 CURVE SMOOTH"
);
},
{
closed = 1;
nodes = (
"420 514 OFFCURVE",
"385 500 OFFCURVE",
"385 566 CURVE SMOOTH",
"385 669 OFFCURVE",
"497 807 OFFCURVE",
"621 807 CURVE SMOOTH",
"750 807 OFFCURVE",
"768 768 OFFCURVE",
"768 700 CURVE SMOOTH",
"768 648 OFFCURVE",
"752 618 OFFCURVE",
"678 585 CURVE SMOOTH",
"611 555 OFFCURVE",
"553 520 OFFCURVE",
"464 514 CURVE SMOOTH"
);
}
);
width = 1015;
},
{
anchors = (
{
name = top;
position = "{670, 987}";
}
);
layerId = "5CBF0BAD-1756-4F16-9711-93DC239D102B";
paths = (
{
closed = 1;
nodes = (
"700 -19 OFFCURVE",
"873 102 OFFCURVE",
"873 196 CURVE SMOOTH",
"873 218 OFFCURVE",
"861 229 OFFCURVE",
"838 229 CURVE SMOOTH",
"810 229 OFFCURVE",
"660 140 OFFCURVE",
"569 140 CURVE SMOOTH",
"458 140 OFFCURVE",
"385 210 OFFCURVE",
"385 271 CURVE SMOOTH",
"385 354 OFFCURVE",
"461 379 OFFCURVE",
"666 445 CURVE SMOOTH",
"838 500 OFFCURVE",
"976 540 OFFCURVE",
"976 700 CURVE SMOOTH",
"976 883 OFFCURVE",
"809 941 OFFCURVE",
"619 941 CURVE SMOOTH",
"373 941 OFFCURVE",
"135 617 OFFCURVE",
"135 360 CURVE SMOOTH",
"135 95 OFFCURVE",
"236 -19 OFFCURVE",
"552 -19 CURVE SMOOTH"
);
},
{
closed = 1;
nodes = (
"420 514 OFFCURVE",
"385 500 OFFCURVE",
"385 566 CURVE SMOOTH",
"385 669 OFFCURVE",
"497 807 OFFCURVE",
"621 807 CURVE SMOOTH",
"750 807 OFFCURVE",
"768 768 OFFCURVE",
"768 700 CURVE SMOOTH",
"768 648 OFFCURVE",
"752 618 OFFCURVE",
"678 585 CURVE SMOOTH",
"611 555 OFFCURVE",
"553 520 OFFCURVE",
"464 514 CURVE SMOOTH"
);
}
);
width = 1050;
}
);
note = uni0065;
unicode = 0065;
},
{
glyphname = f;
layers = (
{
layerId = "92A672BF-229C-4BEC-8D25-4DDBB2A38145";
paths = (
{
closed = 1;
nodes = (
"217 -319 OFFCURVE",
"361 -244 OFFCURVE",
"361 -192 CURVE SMOOTH",
"361 -131 OFFCURVE",
"401 33 OFFCURVE",
"428 149 CURVE SMOOTH",
"437 187 OFFCURVE",
"443 241 OFFCURVE",
"489 484 CURVE SMOOTH",
"514 617 OFFCURVE",
"545 663 OFFCURVE",
"561 700 CURVE SMOOTH",
"582 747 OFFCURVE",
"777 776 OFFCURVE",
"777 834 CURVE SMOOTH",
"777 924 OFFCURVE",
"695 880 OFFCURVE",
"673 909 CURVE SMOOTH",
"653 935 OFFCURVE",
"599 1035 OFFCURVE",
"599 1083 CURVE SMOOTH",
"599 1142 OFFCURVE",
"678 1290 OFFCURVE",
"743 1290 CURVE SMOOTH",
"777 1290 OFFCURVE",
"837 1251 OFFCURVE",
"914 1251 CURVE SMOOTH",
"966 1251 OFFCURVE",
"1012 1307 OFFCURVE",
"1012 1375 CURVE SMOOTH",
"1012 1445 OFFCURVE",
"952 1483 OFFCURVE",
"777 1483 CURVE SMOOTH",
"552 1483 OFFCURVE",
"430 1274 OFFCURVE",
"333 1033 CURVE SMOOTH",
"299 949 OFFCURVE",
"203 908 OFFCURVE",
"203 872 CURVE SMOOTH",
"203 822 OFFCURVE",
"247 729 OFFCURVE",
"264 673 CURVE SMOOTH",
"273 644 OFFCURVE",
"261 549 OFFCURVE",
"247 446 CURVE SMOOTH",
"226 286 OFFCURVE",
"174 -7 OFFCURVE",
"143 -51 CURVE SMOOTH",
"78 -144 OFFCURVE",
"-42 -171 OFFCURVE",
"-42 -234 CURVE SMOOTH",
"-42 -313 OFFCURVE",
"40 -319 OFFCURVE",
"90 -319 CURVE SMOOTH"
);
}
);
width = 738;
},
{
layerId = "5CBF0BAD-1756-4F16-9711-93DC239D102B";
paths = (
{
closed = 1;
nodes = (
"217 -319 OFFCURVE",
"361 -244 OFFCURVE",
"361 -192 CURVE SMOOTH",
"361 -131 OFFCURVE",
"401 33 OFFCURVE",
"428 149 CURVE SMOOTH",
"437 187 OFFCURVE",
"443 241 OFFCURVE",
"489 484 CURVE SMOOTH",
"514 617 OFFCURVE",
"545 663 OFFCURVE",
"561 700 CURVE SMOOTH",
"582 747 OFFCURVE",
"777 776 OFFCURVE",
"777 834 CURVE SMOOTH",
"777 924 OFFCURVE",
"695 880 OFFCURVE",
"673 909 CURVE SMOOTH",
"653 935 OFFCURVE",
"599 1035 OFFCURVE",
"599 1083 CURVE SMOOTH",
"599 1142 OFFCURVE",
"678 1290 OFFCURVE",
"743 1290 CURVE SMOOTH",
"777 1290 OFFCURVE",
"837 1251 OFFCURVE",
"914 1251 CURVE SMOOTH",
"966 1251 OFFCURVE",
"1012 1307 OFFCURVE",
"1012 1375 CURVE SMOOTH",
"1012 1445 OFFCURVE",
"952 1483 OFFCURVE",
"777 1483 CURVE SMOOTH",
"552 1483 OFFCURVE",
"430 1274 OFFCURVE",
"333 1033 CURVE SMOOTH",
"299 949 OFFCURVE",
"203 908 OFFCURVE",
"203 872 CURVE SMOOTH",
"203 822 OFFCURVE",
"247 729 OFFCURVE",
"264 673 CURVE SMOOTH",
"273 644 OFFCURVE",
"261 549 OFFCURVE",
"247 446 CURVE SMOOTH",
"226 286 OFFCURVE",
"174 -7 OFFCURVE",
"143 -51 CURVE SMOOTH",
"78 -144 OFFCURVE",
"-42 -171 OFFCURVE",
"-42 -234 CURVE SMOOTH",
"-42 -313 OFFCURVE",
"40 -319 OFFCURVE",
"90 -319 CURVE SMOOTH"
);
}
);
width = 795;
}
);
note = uni0066;
unicode = 0066;
},
{
glyphname = g;
layers = (
{
layerId = "92A672BF-229C-4BEC-8D25-4DDBB2A38145";
paths = (
{
closed = 1;
nodes = (
"630 -465 OFFCURVE",
"894 -341 OFFCURVE",
"929 -121 CURVE SMOOTH",
"960 78 OFFCURVE",
"813 120 OFFCURVE",
"581 136 CURVE SMOOTH",
"427 146 OFFCURVE",
"290 147 OFFCURVE",
"302 222 CURVE SMOOTH",
"315 303 OFFCURVE",
"391 307 OFFCURVE",
"501 313 CURVE SMOOTH",
"712 322 OFFCURVE",
"916 437 OFFCURVE",
"946 623 CURVE SMOOTH",
"958 700 OFFCURVE",
"954 740 OFFCURVE",
"943 804 CURVE SMOOTH",
"939 832 OFFCURVE",
"977 851 OFFCURVE",
"1031 858 CURVE SMOOTH",
"1085 865 OFFCURVE",
"1115 887 OFFCURVE",
"1121 925 CURVE SMOOTH",
"1126 954 OFFCURVE",
"1094 968 OFFCURVE",
"1027 968 CURVE SMOOTH",
"966 969 OFFCURVE",
"906 969 OFFCURVE",
"845 970 CURVE SMOOTH",
"792 971 OFFCURVE",
"737 971 OFFCURVE",
"683 972 CURVE SMOOTH",
"445 972 OFFCURVE",
"227 853 OFFCURVE",
"193 639 CURVE SMOOTH",
"164 454 OFFCURVE",
"262 386 OFFCURVE",
"257 356 CURVE SMOOTH",
"249 307 OFFCURVE",
"158 276 OFFCURVE",
"141 169 CURVE SMOOTH",
"130 102 OFFCURVE",
"193 78 OFFCURVE",
"186 33 CURVE SMOOTH",
"178 -17 OFFCURVE",
"29 -85 OFFCURVE",
"10 -211 CURVE SMOOTH",
"-20 -396 OFFCURVE",
"163 -465 OFFCURVE",
"392 -465 CURVE SMOOTH"
);
},
{
closed = 1;
nodes = (
"227 -359 OFFCURVE",
"136 -283 OFFCURVE",
"157 -147 CURVE SMOOTH",
"172 -49 OFFCURVE",
"260 28 OFFCURVE",
"368 28 CURVE SMOOTH",
"733 13 OFFCURVE",
"800 -9 OFFCURVE",
"780 -141 CURVE SMOOTH",
"758 -279 OFFCURVE",
"635 -340 OFFCURVE",
"382 -359 CURVE SMOOTH"
);
},
{
closed = 1;
nodes = (
"376 389 OFFCURVE",
"340 478 OFFCURVE",
"368 667 CURVE SMOOTH",
"392 813 OFFCURVE",
"481 915 OFFCURVE",
"610 915 CURVE SMOOTH",
"717 915 OFFCURVE",
"766 774 OFFCURVE",
"748 657 CURVE SMOOTH",
"715 449 OFFCURVE",
"658 389 OFFCURVE",
"502 389 CURVE SMOOTH"
);
}
);
width = 1085;
},
{
layerId = "5CBF0BAD-1756-4F16-9711-93DC239D102B";
paths = (
{
closed = 1;
nodes = (
"717 -398 OFFCURVE",
"918 -280 OFFCURVE",
"924 -122 CURVE SMOOTH",
"930 48 OFFCURVE",
"890 106 OFFCURVE",
"671 145 CURVE SMOOTH",
"543 168 OFFCURVE",
"400 180 OFFCURVE",
"400 224 CURVE SMOOTH",
"400 263 OFFCURVE",
"427 278 OFFCURVE",
"574 301 CURVE SMOOTH",
"801 336 OFFCURVE",
"920 439 OFFCURVE",
"936 615 CURVE SMOOTH",
"939 646 OFFCURVE",
"935 679 OFFCURVE",
"935 715 CURVE SMOOTH",
"935 779 OFFCURVE",
"943 792 OFFCURVE",
"1019 827 CURVE SMOOTH",
"1045 839 OFFCURVE",
"1060 861 OFFCURVE",
"1060 891 CURVE SMOOTH",
"1060 947 OFFCURVE",
"1023 966 OFFCURVE",
"975 966 CURVE SMOOTH",
"903 962 OFFCURVE",
"830 954 OFFCURVE",
"758 954 CURVE SMOOTH",
"684 954 OFFCURVE",
"685 973 OFFCURVE",
"607 973 CURVE SMOOTH",
"427 973 OFFCURVE",
"239 849 OFFCURVE",
"239 637 CURVE SMOOTH",
"239 458 OFFCURVE",
"349 398 OFFCURVE",
"349 357 CURVE SMOOTH",
"349 320 OFFCURVE",
"229 267 OFFCURVE",
"229 180 CURVE SMOOTH",
"229 94 OFFCURVE",
"274 131 OFFCURVE",
"270 51 CURVE SMOOTH",
"268 21 OFFCURVE",
"67 -73 OFFCURVE",
"67 -190 CURVE SMOOTH",
"67 -337 OFFCURVE",
"193 -398 OFFCURVE",
"456 -398 CURVE SMOOTH"
);
},
{
closed = 1;
nodes = (
"368 -295 OFFCURVE",
"250 -261 OFFCURVE",
"250 -141 CURVE SMOOTH",
"250 -38 OFFCURVE",
"320 0 OFFCURVE",
"414 0 CURVE SMOOTH",
"479 0 OFFCURVE",
"718 -63 OFFCURVE",
"718 -137 CURVE SMOOTH",
"719 -260 OFFCURVE",
"625 -295 OFFCURVE",
"525 -295 CURVE SMOOTH"
);
},
{
closed = 1;
nodes = (
"430 427 OFFCURVE",
"465 530 OFFCURVE",
"465 653 CURVE SMOOTH",
"465 816 OFFCURVE",
"545 858 OFFCURVE",
"640 858 CURVE SMOOTH",
"722 858 OFFCURVE",
"714 820 OFFCURVE",
"716 683 CURVE SMOOTH",
"714 509 OFFCURVE",
"607 427 OFFCURVE",
"515 427 CURVE SMOOTH"
);
}
);
width = 1123;
}
);
note = uni0067;
unicode = 0067;
},
{
glyphname = h;
layers = (
{
layerId = "92A672BF-229C-4BEC-8D25-4DDBB2A38145";
paths = (
{
closed = 1;
nodes = (
"950 3 OFFCURVE",
"1013 8 OFFCURVE",
"1019 42 CURVE SMOOTH",
"1021 55 OFFCURVE",
"945 115 OFFCURVE",
"934 141 CURVE SMOOTH",
"921 172 OFFCURVE",
"932 220 OFFCURVE",
"978 490 CURVE SMOOTH",
"1023 775 OFFCURVE",
"1011 963 OFFCURVE",
"761 963 CURVE SMOOTH",
"601 963 OFFCURVE",
"474 879 OFFCURVE",
"448 879 CURVE SMOOTH",
"421 879 OFFCURVE",
"434 958 OFFCURVE",
"494 1340 CURVE SMOOTH",
"510 1438 OFFCURVE",
"497 1468 OFFCURVE",
"411 1468 CURVE SMOOTH",
"335 1468 OFFCURVE",
"205 1447 OFFCURVE",
"198 1404 CURVE SMOOTH",
"193 1369 OFFCURVE",
"287 1350 OFFCURVE",
"284 1275 CURVE SMOOTH",
"280 1172 OFFCURVE",
"250 923 OFFCURVE",
"214 691 CURVE SMOOTH",
"181 481 OFFCURVE",
"146 284 OFFCURVE",
"125 216 CURVE SMOOTH",
"110 169 OFFCURVE",
"4 69 OFFCURVE",
"1 52 CURVE SMOOTH",
"-4 19 OFFCURVE",
"59 3 OFFCURVE",
"189 3 CURVE SMOOTH",
"320 3 OFFCURVE",
"388 17 OFFCURVE",
"392 45 CURVE SMOOTH",
"396 69 OFFCURVE",
"329 121 OFFCURVE",
"321 145 CURVE SMOOTH",
"313 172 OFFCURVE",
"337 346 OFFCURVE",
"367 496 CURVE SMOOTH",
"411 730 OFFCURVE",
"461 845 OFFCURVE",
"684 845 CURVE SMOOTH",
"824 845 OFFCURVE",
"817 743 OFFCURVE",
"791 474 CURVE SMOOTH",
"777 326 OFFCURVE",
"751 174 OFFCURVE",
"732 143 CURVE SMOOTH",
"723 129 OFFCURVE",
"644 46 OFFCURVE",
"642 31 CURVE SMOOTH",
"638 8 OFFCURVE",
"667 -3 OFFCURVE",
"727 -3 CURVE SMOOTH"
);
}
);
width = 1216;
},
{
layerId = "5CBF0BAD-1756-4F16-9711-93DC239D102B";
paths = (
{
closed = 1;
nodes = (
"979 20 OFFCURVE",
"1085 46 OFFCURVE",
"1085 114 CURVE SMOOTH",
"1085 139 OFFCURVE",
"1028 199 OFFCURVE",
"1028 244 CURVE SMOOTH",
"1028 332 OFFCURVE",
"1088 487 OFFCURVE",
"1093 700 CURVE SMOOTH",
"1095 793 OFFCURVE",
"1014 910 OFFCURVE",
"879 910 CURVE SMOOTH",
"740 910 OFFCURVE",
"601 775 OFFCURVE",
"564 775 CURVE SMOOTH",
"533 775 OFFCURVE",
"564 908 OFFCURVE",
"610 1157 CURVE SMOOTH",
"658 1418 OFFCURVE",
"645 1466 OFFCURVE",
"551 1466 CURVE SMOOTH",
"431 1466 OFFCURVE",
"281 1422 OFFCURVE",
"281 1368 CURVE SMOOTH",
"281 1352 OFFCURVE",
"315 1312 OFFCURVE",
"357 1268 CURVE SMOOTH",
"381 1243 OFFCURVE",
"357 1032 OFFCURVE",
"289 700 CURVE SMOOTH",
"231 416 OFFCURVE",
"188 295 OFFCURVE",
"185.5 263 CURVE SMOOTH",
"181 201 OFFCURVE",
"139 95 OFFCURVE",
"139 50 CURVE SMOOTH",
"139 20 OFFCURVE",
"139.167 1 OFFCURVE",
"245.5 1 CURVE SMOOTH",
"392 1 OFFCURVE",
"433 -1 OFFCURVE",
"433 75 CURVE SMOOTH",
"433 106 OFFCURVE",
"444 216 OFFCURVE",
"458 287 CURVE SMOOTH",
"476 379 OFFCURVE",
"515 511 OFFCURVE",
"532 553 CURVE SMOOTH",
"567 637 OFFCURVE",
"610 725 OFFCURVE",
"715 725 CURVE SMOOTH",
"817 725 OFFCURVE",
"841 643 OFFCURVE",
"824 468 CURVE SMOOTH",
"813 352 OFFCURVE",
"801 237 OFFCURVE",
"794 206 CURVE SMOOTH",
"787 172 OFFCURVE",
"797 135 OFFCURVE",
"800 96 CURVE SMOOTH",
"805 34 OFFCURVE",
"841 20 OFFCURVE",
"919 20 CURVE SMOOTH"
);
}
);
width = 1269;
}
);
note = uni0068;
unicode = 0068;
},
{
glyphname = i;
layers = (
{
layerId = "92A672BF-229C-4BEC-8D25-4DDBB2A38145";
paths = (
{
closed = 1;
nodes = (
"377 -3 OFFCURVE",
"434 -5 OFFCURVE",
"441 39 CURVE SMOOTH",
"443 52 OFFCURVE",
"337 113 OFFCURVE",
"333 141 CURVE SMOOTH",
"327 195 OFFCURVE",
"341 300 OFFCURVE",
"362 418 CURVE SMOOTH",
"388 565 OFFCURVE",
"424 732 OFFCURVE",
"437 839 CURVE SMOOTH",
"444 920 OFFCURVE",
"452 961 OFFCURVE",
"379 961 CURVE SMOOTH",
"279 961 OFFCURVE",
"125 943 OFFCURVE",
"116 885 CURVE SMOOTH",
"109 843 OFFCURVE",
"198 848 OFFCURVE",
"224 810 CURVE SMOOTH",
"238 788 OFFCURVE",
"232 750 OFFCURVE",
"187 462 CURVE SMOOTH",
"160 284 OFFCURVE",
"136 180 OFFCURVE",
"126 151 CURVE SMOOTH",
"117 127 OFFCURVE",
"-6 61 OFFCURVE",
"-10 33 CURVE SMOOTH",
"-18 -19 OFFCURVE",
"34 -7 OFFCURVE",
"303 -3 CURVE SMOOTH"
);
},
{
closed = 1;
nodes = (
"449 1171 OFFCURVE",
"515 1194 OFFCURVE",
"531 1293 CURVE SMOOTH",
"542 1365 OFFCURVE",
"497 1412 OFFCURVE",
"434 1412 CURVE SMOOTH",
"341 1409 OFFCURVE",
"291 1395 OFFCURVE",
"279 1304 CURVE SMOOTH",
"270 1228 OFFCURVE",
"299 1171 OFFCURVE",
"352 1171 CURVE SMOOTH"
);
}
);
width = 628;
},
{
layerId = "5CBF0BAD-1756-4F16-9711-93DC239D102B";
paths = (
{
closed = 1;
nodes = (
"475 -5 OFFCURVE",
"614 66 OFFCURVE",
"614 119 CURVE SMOOTH",
"614 175 OFFCURVE",
"509 163 OFFCURVE",
"490 237 CURVE SMOOTH",
"477 291 OFFCURVE",
"488 387 OFFCURVE",
"509 521 CURVE SMOOTH",
"534 683 OFFCURVE",
"570 800 OFFCURVE",
"570 852 CURVE SMOOTH",
"570 924 OFFCURVE",
"544 944 OFFCURVE",
"498 944 CURVE SMOOTH",
"383 944 OFFCURVE",
"165 925 OFFCURVE",
"165 852 CURVE SMOOTH",
"165 796 OFFCURVE",
"276 768 OFFCURVE",
"291 716 CURVE SMOOTH",
"298 691 OFFCURVE",
"307 615 OFFCURVE",
"283 500 CURVE SMOOTH",
"254 360 OFFCURVE",
"217.667 266.167 OFFCURVE",
"209 232.5 CURVE SMOOTH",
"192 167 OFFCURVE",
"126 120 OFFCURVE",
"126 57 CURVE SMOOTH",
"126 22 OFFCURVE",
"180 -2 OFFCURVE",
"377 -4 CURVE SMOOTH"
);
},
{
closed = 1;
nodes = (
"598 1102 OFFCURVE",
"663 1161 OFFCURVE",
"663 1265 CURVE SMOOTH",
"663 1334 OFFCURVE",
"626 1393 OFFCURVE",
"510 1393 CURVE SMOOTH",
"418 1393 OFFCURVE",
"363 1318 OFFCURVE",
"363 1241 CURVE SMOOTH",
"363 1128 OFFCURVE",
"392 1102 OFFCURVE",
"510 1102 CURVE SMOOTH"
);
}
);
width = 691;
}
);
note = uni0069;
unicode = 0069;
},
{
glyphname = idotless;
layers = (
{
anchors = (
{
name = top;
position = "{369, 1059}";
}
);
layerId = "92A672BF-229C-4BEC-8D25-4DDBB2A38145";
paths = (
{
closed = 1;
nodes = (
"423 -3 OFFCURVE",
"480 5 OFFCURVE",
"486 39 CURVE SMOOTH",
"488 52 OFFCURVE",
"381 113 OFFCURVE",
"378 141 CURVE SMOOTH",
"371 195 OFFCURVE",
"386 300 OFFCURVE",
"407 418 CURVE SMOOTH",
"433 565 OFFCURVE",
"468 732 OFFCURVE",
"481 839 CURVE SMOOTH",
"489 920 OFFCURVE",
"488 970 OFFCURVE",
"415 970 CURVE SMOOTH",
"315 970 OFFCURVE",
"160 943 OFFCURVE",
"151 885 CURVE SMOOTH",
"144 843 OFFCURVE",
"233 848 OFFCURVE",
"258 810 CURVE SMOOTH",
"272 788 OFFCURVE",
"266 750 OFFCURVE",
"222 462 CURVE SMOOTH",
"194 284 OFFCURVE",
"175 179 OFFCURVE",
"160 151 CURVE SMOOTH",
"140 111 OFFCURVE",
"31 75 OFFCURVE",
"26 39 CURVE SMOOTH",
"20 6 OFFCURVE",
"57 -3 OFFCURVE",
"338 -3 CURVE SMOOTH"
);
}
);
width = 628;
},
{
anchors = (
{
name = top;
position = "{452, 1032}";
}
);
layerId = "5CBF0BAD-1756-4F16-9711-93DC239D102B";
paths = (
{
closed = 1;
nodes = (
"475 -5 OFFCURVE",
"614 66 OFFCURVE",
"614 119 CURVE SMOOTH",
"614 175 OFFCURVE",
"509 163 OFFCURVE",
"490 237 CURVE SMOOTH",
"477 291 OFFCURVE",
"488 387 OFFCURVE",
"509 521 CURVE SMOOTH",
"534 683 OFFCURVE",
"570 800 OFFCURVE",
"570 852 CURVE SMOOTH",
"570 924 OFFCURVE",
"544 944 OFFCURVE",
"498 944 CURVE SMOOTH",
"383 944 OFFCURVE",
"135 925 OFFCURVE",
"135 852 CURVE SMOOTH",
"135 796 OFFCURVE",
"246 768 OFFCURVE",
"261 716 CURVE SMOOTH",
"268 691 OFFCURVE",
"287 615 OFFCURVE",
"263 500 CURVE SMOOTH",
"234 360 OFFCURVE",
"217.667 266.167 OFFCURVE",
"209 232.5 CURVE SMOOTH",
"192 167 OFFCURVE",
"126 120 OFFCURVE",
"126 57 CURVE SMOOTH",
"126 22 OFFCURVE",
"180 -2 OFFCURVE",
"377 -4 CURVE SMOOTH"
);
}
);
width = 691;
}
);
note = uni0069;
unicode = 0131;
},
{
glyphname = j;
layers = (
{
layerId = "92A672BF-229C-4BEC-8D25-4DDBB2A38145";
paths = (
{
closed = 1;
nodes = (
"213 -426 OFFCURVE",
"320 -141 OFFCURVE",
"410 430 CURVE SMOOTH",
"494 955 OFFCURVE",
"484 964 OFFCURVE",
"423 964 CURVE SMOOTH",
"312 964 OFFCURVE",
"169 954 OFFCURVE",
"160 892 CURVE SMOOTH",
"153 850 OFFCURVE",
"263 821 OFFCURVE",
"265 764 CURVE SMOOTH",
"267 729 OFFCURVE",
"248 587 OFFCURVE",
"209 338 CURVE SMOOTH",
"119 -227 OFFCURVE",
"50 -276 OFFCURVE",
"-40 -276 CURVE SMOOTH",
"-111 -276 OFFCURVE",
"-175 -293 OFFCURVE",
"-186 -360 CURVE SMOOTH",
"-193 -409 OFFCURVE",
"-166 -424 OFFCURVE",
"-96 -424 CURVE SMOOTH"
);
},
{
closed = 1;
nodes = (
"497 1175 OFFCURVE",
"559 1231 OFFCURVE",
"569 1294 CURVE SMOOTH",
"581 1388 OFFCURVE",
"562 1417 OFFCURVE",
"462 1417 CURVE SMOOTH",
"407 1417 OFFCURVE",
"329 1374 OFFCURVE",
"318 1306 CURVE SMOOTH",
"304 1219 OFFCURVE",
"343 1175 OFFCURVE",
"423 1175 CURVE SMOOTH"
);
}
);
width = 585;
},
{
layerId = "5CBF0BAD-1756-4F16-9711-93DC239D102B";
paths = (
{
closed = 1;
nodes = (
"308 -427 OFFCURVE",
"390 -175 OFFCURVE",
"505 376 CURVE SMOOTH",
"590 784 OFFCURVE",
"578 938 OFFCURVE",
"488 938 CURVE SMOOTH",
"391 938 OFFCURVE",
"161 893 OFFCURVE",
"161 833 CURVE SMOOTH",
"161 787 OFFCURVE",
"288 745 OFFCURVE",
"300 654 CURVE SMOOTH",
"307 601 OFFCURVE",
"282 467 OFFCURVE",
"259 291 CURVE SMOOTH",
"231 80 OFFCURVE",
"136 -165 OFFCURVE",
"84 -197 CURVE SMOOTH",
"9 -243 OFFCURVE",
"-132 -269 OFFCURVE",
"-132 -347 CURVE SMOOTH",
"-132 -400 OFFCURVE",
"-99 -427 OFFCURVE",
"-32 -427 CURVE SMOOTH"
);
},
{
closed = 1;
nodes = (
"592 1097 OFFCURVE",
"661 1149 OFFCURVE",
"661 1261 CURVE SMOOTH",
"661 1361 OFFCURVE",
"614 1397 OFFCURVE",
"517 1397 CURVE SMOOTH",
"435 1397 OFFCURVE",
"367 1320 OFFCURVE",
"367 1230 CURVE SMOOTH",
"367 1147 OFFCURVE",
"414 1097 OFFCURVE",
"463 1097 CURVE SMOOTH"
);
}
);
width = 664;
}
);
note = uni006A;
unicode = 006A;
},
{
glyphname = k;
layers = (
{
layerId = "92A672BF-229C-4BEC-8D25-4DDBB2A38145";
paths = (
{
closed = 1;
nodes = (
"921 6 OFFCURVE",
"965 19 OFFCURVE",
"969 44 CURVE SMOOTH",
"971 55 OFFCURVE",
"943 83 OFFCURVE",
"885 128 CURVE SMOOTH",
"845 160 OFFCURVE",
"618 507 OFFCURVE",
"624 541 CURVE SMOOTH",
"635 612 OFFCURVE",
"799 758 OFFCURVE",
"935 835 CURVE SMOOTH",
"1002 874 OFFCURVE",
"1037 900 OFFCURVE",
"1040 914 CURVE SMOOTH",
"1043 937 OFFCURVE",
"980 948 OFFCURVE",
"849 948 CURVE SMOOTH",
"777 948 OFFCURVE",
"739 936 OFFCURVE",
"735 912 CURVE SMOOTH",
"733 897 OFFCURVE",
"742 887 OFFCURVE",
"734 862 CURVE SMOOTH",
"715 800 OFFCURVE",
"485 587 OFFCURVE",
"422 587 CURVE SMOOTH",
"386 587 OFFCURVE",
"382 615 OFFCURVE",
"480 1181 CURVE SMOOTH",
"517 1394 OFFCURVE",
"516 1472 OFFCURVE",
"441 1472 CURVE SMOOTH",
"361 1472 OFFCURVE",
"197 1450 OFFCURVE",
"190 1408 CURVE SMOOTH",
"188 1394 OFFCURVE",
"199 1380 OFFCURVE",
"226 1364 CURVE SMOOTH",
"291 1326 OFFCURVE",
"302 1287 OFFCURVE",
"197 694 CURVE SMOOTH",
"126 290 OFFCURVE",
"96 157 OFFCURVE",
"33 86 CURVE SMOOTH",
"12 62 OFFCURVE",
"1 50 OFFCURVE",
"-1 40 CURVE SMOOTH",
"-4 20 OFFCURVE",
"28 10 OFFCURVE",
"95 10 CURVE SMOOTH",
"275 10 OFFCURVE",
"366 22 OFFCURVE",
"370 46 CURVE SMOOTH",
"378 93 OFFCURVE",
"311 122 OFFCURVE",
"333 259 CURVE SMOOTH",
"350 369 OFFCURVE",
"381 428 OFFCURVE",
"422 428 CURVE SMOOTH",
"453 428 OFFCURVE",
"486 401 OFFCURVE",
"521 347 CURVE SMOOTH",
"574 264 OFFCURVE",
"612 179 OFFCURVE",
"633 90 CURVE SMOOTH",
"653 14 OFFCURVE",
"683 6 OFFCURVE",
"838 6 CURVE SMOOTH"
);
}
);
width = 1139;
},
{
layerId = "5CBF0BAD-1756-4F16-9711-93DC239D102B";
paths = (
{
closed = 1;
nodes = (
"1111 -1 OFFCURVE",
"1117 34 OFFCURVE",
"1117 91 CURVE SMOOTH",
"1117 109 OFFCURVE",
"1025 142 OFFCURVE",
"966 194 CURVE SMOOTH",
"883 267 OFFCURVE",
"758 487 OFFCURVE",
"758 531 CURVE SMOOTH",
"758 584 OFFCURVE",
"841 616 OFFCURVE",
"1008 717 CURVE SMOOTH",
"1091 767 OFFCURVE",
"1133 824 OFFCURVE",
"1133 846 CURVE SMOOTH",
"1133 884 OFFCURVE",
"1105 909 OFFCURVE",
"974 909 CURVE SMOOTH",
"861 909 OFFCURVE",
"816 877 OFFCURVE",
"816 840 CURVE SMOOTH",
"816 820 OFFCURVE",
"791 765 OFFCURVE",
"778 749 CURVE SMOOTH",
"705 658 OFFCURVE",
"640 592 OFFCURVE",
"576 592 CURVE SMOOTH",
"538 592 OFFCURVE",
"528 613 OFFCURVE",
"624 1104 CURVE SMOOTH",
"684 1412 OFFCURVE",
"675 1480 OFFCURVE",
"590 1480 CURVE SMOOTH",
"465 1480 OFFCURVE",
"305 1441 OFFCURVE",
"305 1367 CURVE SMOOTH",
"305 1309 OFFCURVE",
"382 1286 OFFCURVE",
"405 1237 CURVE SMOOTH",
"437 1169 OFFCURVE",
"384 1011 OFFCURVE",
"330 746 CURVE SMOOTH",
"253 370 OFFCURVE",
"261 356 OFFCURVE",
"244 288 CURVE SMOOTH",
"234 246 OFFCURVE",
"136 95 OFFCURVE",
"136 62 CURVE SMOOTH",
"136 1 OFFCURVE",
"187 0 OFFCURVE",
"299 0 CURVE SMOOTH",
"415 0 OFFCURVE",
"471 8 OFFCURVE",
"471 78 CURVE SMOOTH",
"471 120 OFFCURVE",
"449 182 OFFCURVE",
"475 288 CURVE SMOOTH",
"491 352 OFFCURVE",
"505.667 385 OFFCURVE",
"533 385 CURVE SMOOTH",
"577 385 OFFCURVE",
"623.333 346.667 OFFCURVE",
"672 270 CURVE SMOOTH",
"712 208 OFFCURVE",
"717 91 OFFCURVE",
"760 48 CURVE SMOOTH",
"798 10 OFFCURVE",
"864 -1 OFFCURVE",
"998 -1 CURVE SMOOTH"
);
}
);
width = 1251;
}
);
note = uni006B;
unicode = 006B;
},
{
glyphname = l;
layers = (
{
layerId = "92A672BF-229C-4BEC-8D25-4DDBB2A38145";
paths = (
{
closed = 1;
nodes = (
"90 111 OFFCURVE",
"-22 57 OFFCURVE",
"-27 27 CURVE SMOOTH",
"-30 8 OFFCURVE",
"19 0 OFFCURVE",
"159 0 CURVE SMOOTH",
"375 0 OFFCURVE",
"428 3 OFFCURVE",
"433 40 CURVE SMOOTH",
"437 65 OFFCURVE",
"320 116 OFFCURVE",
"322 152 CURVE SMOOTH",
"323 189 OFFCURVE",
"359 433 OFFCURVE",
"421 829 CURVE SMOOTH",
"493 1264 OFFCURVE",
"518 1390 OFFCURVE",
"522 1415 CURVE SMOOTH",
"529 1456 OFFCURVE",
"497 1476 OFFCURVE",
"458 1476 CURVE SMOOTH",
"359 1476 OFFCURVE",
"193 1459 OFFCURVE",
"185 1405 CURVE SMOOTH",
"178 1363 OFFCURVE",
"288 1326 OFFCURVE",
"290 1304 CURVE SMOOTH",
"291 1269 OFFCURVE",
"269 1071 OFFCURVE",
"212 748 CURVE SMOOTH",
"185 597 OFFCURVE",
"158 346 OFFCURVE",
"98 141 CURVE SMOOTH"
);
}
);
width = 612;
},
{
layerId = "5CBF0BAD-1756-4F16-9711-93DC239D102B";
paths = (
{
closed = 1;
nodes = (
"456 0 OFFCURVE",
"580 59 OFFCURVE",
"580 100 CURVE SMOOTH",
"580 148 OFFCURVE",
"456 168 OFFCURVE",
"456 284 CURVE SMOOTH",
"456 348 OFFCURVE",
"499 534 OFFCURVE",
"534 762 CURVE SMOOTH",
"554 889 OFFCURVE",
"639 1223 OFFCURVE",
"639 1410 CURVE SMOOTH",
"639 1454 OFFCURVE",
"600 1482 OFFCURVE",
"549 1482 CURVE SMOOTH",
"442 1482 OFFCURVE",
"242 1457 OFFCURVE",
"242 1387 CURVE SMOOTH",
"242 1363 OFFCURVE",
"365 1268 OFFCURVE",
"365 1243 CURVE SMOOTH",
"365 1156 OFFCURVE",
"331 929 OFFCURVE",
"285 736 CURVE SMOOTH",
"238 538 OFFCURVE",
"180 317 OFFCURVE",
"170 244 CURVE SMOOTH",
"157 149 OFFCURVE",
"84 100 OFFCURVE",
"84 45.5 CURVE SMOOTH",
"84 7 OFFCURVE",
"103 -3 OFFCURVE",
"348 -1 CURVE SMOOTH"
);
}
);
width = 685;
}
);
note = uni006C;
unicode = 006C;
},
{
glyphname = lslash;
layers = (
{
layerId = "92A672BF-229C-4BEC-8D25-4DDBB2A38145";
paths = (
{
closed = 1;
nodes = (
"395 5 OFFCURVE",
"462 13 OFFCURVE",
"465 35 CURVE SMOOTH",
"471 68 OFFCURVE",
"381 88 OFFCURVE",
"371 131 CURVE SMOOTH",
"362 168 OFFCURVE",
"369 258 OFFCURVE",
"391 401 CURVE SMOOTH",
"414 544 OFFCURVE",
"435 636 OFFCURVE",
"454 677 CURVE SMOOTH",
"491 756 OFFCURVE",
"629 815 OFFCURVE",
"639 870 CURVE SMOOTH",
"641 885 OFFCURVE",
"633 908 OFFCURVE",
"613 908 CURVE SMOOTH",
"581 908 OFFCURVE",
"540 885 OFFCURVE",
"521 885 CURVE SMOOTH",
"491 885 OFFCURVE",
"487 953 OFFCURVE",
"508 1089 CURVE SMOOTH",
"544 1322 OFFCURVE",
"556 1379 OFFCURVE",
"544 1420 CURVE SMOOTH",
"537 1442 OFFCURVE",
"518 1453 OFFCURVE",
"489 1453 CURVE SMOOTH",
"396 1453 OFFCURVE",
"229 1434 OFFCURVE",
"219 1371 CURVE SMOOTH",
"215 1344 OFFCURVE",
"303 1331 OFFCURVE",
"319 1299 CURVE SMOOTH",
"328 1280 OFFCURVE",
"321 1198 OFFCURVE",
"297 1052 CURVE SMOOTH",
"274 905 OFFCURVE",
"255 817 OFFCURVE",
"240 788 CURVE SMOOTH",
"224 758 OFFCURVE",
"204 745 OFFCURVE",
"154 710 CURVE SMOOTH",
"131 694 OFFCURVE",
"69 651 OFFCURVE",
"63 612 CURVE SMOOTH",
"57 574 OFFCURVE",
"103 567 OFFCURVE",
"147 567 CURVE SMOOTH",
"194 567 OFFCURVE",
"208 539 OFFCURVE",
"178 346 CURVE SMOOTH",
"165 265 OFFCURVE",
"151 184 OFFCURVE",
"130 153 CURVE SMOOTH",
"85 88 OFFCURVE",
"20 75 OFFCURVE",
"15 44 CURVE SMOOTH",
"6 -9 OFFCURVE",
"121 -1 OFFCURVE",
"259 4 CURVE SMOOTH"
);
}
);
width = 684;
},
{
layerId = "5CBF0BAD-1756-4F16-9711-93DC239D102B";
paths = (
{
closed = 1;
nodes = (
"479 2 OFFCURVE",
"646 122 OFFCURVE",
"646 144 CURVE SMOOTH",
"646 175 OFFCURVE",
"570 168 OFFCURVE",
"542 243 CURVE SMOOTH",
"523 294 OFFCURVE",
"518 354 OFFCURVE",
"530 458 CURVE SMOOTH",
"542 561 OFFCURVE",
"551 629 OFFCURVE",
"561 660 CURVE SMOOTH",
"579 715 OFFCURVE",
"779 803 OFFCURVE",
"779 874 CURVE SMOOTH",
"779 904 OFFCURVE",
"768 918 OFFCURVE",
"746 919 CURVE SMOOTH",
"707 921 OFFCURVE",
"686 901 OFFCURVE",
"654 901 CURVE SMOOTH",
"611 901 OFFCURVE",
"638 1080 OFFCURVE",
"656 1185 CURVE SMOOTH",
"675 1296 OFFCURVE",
"702 1345 OFFCURVE",
"699 1388 CURVE SMOOTH",
"696 1428 OFFCURVE",
"663 1445 OFFCURVE",
"631 1445 CURVE SMOOTH",
"492 1445 OFFCURVE",
"300 1367 OFFCURVE",
"300 1316 CURVE SMOOTH",
"300 1283 OFFCURVE",
"360 1329 OFFCURVE",
"385 1275 CURVE SMOOTH",
"395 1253 OFFCURVE",
"426 1186 OFFCURVE",
"426 1095 CURVE SMOOTH",
"425 995 OFFCURVE",
"385 931 OFFCURVE",
"373 894 CURVE SMOOTH",
"360 856 OFFCURVE",
"319 724 OFFCURVE",
"265 673 CURVE SMOOTH",
"237 647 OFFCURVE",
"195 607 OFFCURVE",
"195 563 CURVE SMOOTH",
"195 519 OFFCURVE",
"216 500 OFFCURVE",
"264 500 CURVE SMOOTH",
"300 500 OFFCURVE",
"328 458 OFFCURVE",
"328 414 CURVE SMOOTH",
"328 347 OFFCURVE",
"245 215 OFFCURVE",
"219 144 CURVE SMOOTH",
"210 120 OFFCURVE",
"184 63 OFFCURVE",
"184 35 CURVE SMOOTH",
"184 4 OFFCURVE",
"228 0 OFFCURVE",
"387 1 CURVE SMOOTH"
);
}
);
width = 828;
}
);
note = uni0142;
unicode = 0142;
},
{
glyphname = m;
layers = (
{
layerId = "92A672BF-229C-4BEC-8D25-4DDBB2A38145";
paths = (
{
closed = 1;
nodes = (
"350 7 OFFCURVE",
"397 17 OFFCURVE",
"400 36 CURVE SMOOTH",
"406 75 OFFCURVE",
"344 114 OFFCURVE",
"359 208 CURVE SMOOTH",
"378 324 OFFCURVE",
"393 418 OFFCURVE",
"408 492 CURVE SMOOTH",
"449 695 OFFCURVE",
"524 835 OFFCURVE",
"712 835 CURVE SMOOTH",
"872 838 OFFCURVE",
"846 682 OFFCURVE",
"819 481 CURVE SMOOTH",
"804 366 OFFCURVE",
"776 208 OFFCURVE",
"765 174 CURVE SMOOTH",
"745 114 OFFCURVE",
"651 83 OFFCURVE",
"643 28 CURVE SMOOTH",
"640 9 OFFCURVE",
"675 -1 OFFCURVE",
"749 -1 CURVE SMOOTH",
"946 -1 OFFCURVE",
"1046 12 OFFCURVE",
"1050 37 CURVE SMOOTH",
"1057 83 OFFCURVE",
"986 101 OFFCURVE",
"974 132 CURVE SMOOTH",
"966 151 OFFCURVE",
"975 240 OFFCURVE",
"1001 401 CURVE SMOOTH",
"1054 740 OFFCURVE",
"1126 836 OFFCURVE",
"1282 835 CURVE SMOOTH",
"1446 834 OFFCURVE",
"1438 662 OFFCURVE",
"1420 516 CURVE SMOOTH",
"1411 436 OFFCURVE",
"1397 334 OFFCURVE",
"1377 210 CURVE SMOOTH",
"1369 157 OFFCURVE",
"1299 40 OFFCURVE",
"1297 30 CURVE SMOOTH",
"1294 13 OFFCURVE",
"1323 5 OFFCURVE",
"1383 5 CURVE SMOOTH",
"1557 5 OFFCURVE",
"1646 18 OFFCURVE",
"1650 45 CURVE SMOOTH",
"1654 67 OFFCURVE",
"1577 131 OFFCURVE",
"1571 170 CURVE SMOOTH",
"1567 191 OFFCURVE",
"1575 256 OFFCURVE",
"1592 362 CURVE SMOOTH",
"1647 710 OFFCURVE",
"1680 965 OFFCURVE",
"1417 965 CURVE SMOOTH",
"1211 965 OFFCURVE",
"1107 842 OFFCURVE",
"1052 842 CURVE SMOOTH",
"1014 842 OFFCURVE",
"975 971 OFFCURVE",
"814 971 CURVE SMOOTH",
"600 971 OFFCURVE",
"514 856 OFFCURVE",
"492 857 CURVE SMOOTH",
"470 858 OFFCURVE",
"420 946 OFFCURVE",
"352 946 CURVE SMOOTH",
"261 946 OFFCURVE",
"194 931 OFFCURVE",
"187 891 CURVE SMOOTH",
"183 866 OFFCURVE",
"235 820 OFFCURVE",
"245 788 CURVE SMOOTH",
"256 753 OFFCURVE",
"220 561 OFFCURVE",
"211 491 CURVE SMOOTH",
"182 284 OFFCURVE",
"172 224 OFFCURVE",
"153 181 CURVE SMOOTH",
"140 152 OFFCURVE",
"54 100 OFFCURVE",
"51 67 CURVE SMOOTH",
"45 11 OFFCURVE",
"155 7 OFFCURVE",
"260 7 CURVE SMOOTH"
);
}
);
width = 1799;
},
{
layerId = "5CBF0BAD-1756-4F16-9711-93DC239D102B";
paths = (
{
closed = 1;
nodes = (
"416 16 OFFCURVE",
"449 66 OFFCURVE",
"468 129 CURVE SMOOTH",
"485 187 OFFCURVE",
"498 286 OFFCURVE",
"509 330 CURVE SMOOTH",
"532 422 OFFCURVE",
"544 525 OFFCURVE",
"595 601 CURVE SMOOTH",
"644 674 OFFCURVE",
"677 729 OFFCURVE",
"789 730 CURVE SMOOTH",
"876 731 OFFCURVE",
"859 561 OFFCURVE",
"842 448 CURVE SMOOTH",
"822 316 OFFCURVE",
"799 240 OFFCURVE",
"792.5 217 CURVE SMOOTH",
"777 161 OFFCURVE",
"731 97 OFFCURVE",
"731 64 CURVE SMOOTH",
"731 24 OFFCURVE",
"789 0 OFFCURVE",
"861 0 CURVE SMOOTH",
"926 0 OFFCURVE",
"976 -3 OFFCURVE",
"1023 41 CURVE SMOOTH",
"1051 67 OFFCURVE",
"1058 90 OFFCURVE",
"1059 138 CURVE SMOOTH",
"1061 214 OFFCURVE",
"1042 337 OFFCURVE",
"1069 423 CURVE SMOOTH",
"1119 582 OFFCURVE",
"1143 700 OFFCURVE",
"1273 700 CURVE SMOOTH",
"1337 700 OFFCURVE",
"1379 621 OFFCURVE",
"1368 463 CURVE SMOOTH",
"1361 367 OFFCURVE",
"1360 277 OFFCURVE",
"1344 187 CURVE SMOOTH",
"1340 166 OFFCURVE",
"1350 126 OFFCURVE",
"1368 91 CURVE SMOOTH",
"1387 55 OFFCURVE",
"1449 54 OFFCURVE",
"1521 55 CURVE SMOOTH",
"1578 56 OFFCURVE",
"1635 89 OFFCURVE",
"1635 141 CURVE SMOOTH",
"1635 160 OFFCURVE",
"1598 197 OFFCURVE",
"1584 225 CURVE SMOOTH",
"1577 241 OFFCURVE",
"1574 337 OFFCURVE",
"1589 423 CURVE SMOOTH",
"1645 737 OFFCURVE",
"1617 909 OFFCURVE",
"1427 909 CURVE SMOOTH",
"1285 909 OFFCURVE",
"1160 778 OFFCURVE",
"1119 778 CURVE SMOOTH",
"1073 778 OFFCURVE",
"1061 928 OFFCURVE",
"905 928 CURVE SMOOTH",
"667 928 OFFCURVE",
"617 770 OFFCURVE",
"570 766 CURVE SMOOTH",
"545 764 OFFCURVE",
"532 884 OFFCURVE",
"455 884 CURVE SMOOTH",
"367 884 OFFCURVE",
"255 818 OFFCURVE",
"255 700 CURVE SMOOTH",
"255 657 OFFCURVE",
"286 601 OFFCURVE",
"286 561 CURVE SMOOTH",
"286 500 OFFCURVE",
"267 490 OFFCURVE",
"252 387 CURVE SMOOTH",
"241 310 OFFCURVE",
"226 256 OFFCURVE",
"226 217 CURVE SMOOTH",
"226 167 OFFCURVE",
"252 96 OFFCURVE",
"267 72 CURVE SMOOTH",
"286 41 OFFCURVE",
"307 16 OFFCURVE",
"341 16 CURVE SMOOTH"
);
}
);
width = 1842;
}
);
note = uni006D;
unicode = 006D;
},
{
glyphname = n;
layers = (
{
anchors = (
{
name = top;
position = "{727, 983}";
}
);
layerId = "92A672BF-229C-4BEC-8D25-4DDBB2A38145";
paths = (
{
closed = 1;
nodes = (
"431 69 OFFCURVE",
"370 134 OFFCURVE",
"366 151 CURVE SMOOTH",
"355 200 OFFCURVE",
"368 242 OFFCURVE",
"409 471 CURVE SMOOTH",
"445 699 OFFCURVE",
"511 850 OFFCURVE",
"717 850 CURVE SMOOTH",
"861 850 OFFCURVE",
"896 778 OFFCURVE",
"853 503 CURVE SMOOTH",
"822 286 OFFCURVE",
"805 160 OFFCURVE",
"791 134 CURVE SMOOTH",
"785 123 OFFCURVE",
"710 67 OFFCURVE",
"707 47 CURVE SMOOTH",
"700 7 OFFCURVE",
"754 3 OFFCURVE",
"820 5 CURVE SMOOTH",
"1003 5 OFFCURVE",
"1096 19 OFFCURVE",
"1101 47 CURVE SMOOTH",
"1105 72 OFFCURVE",
"1009 112 OFFCURVE",
"999 139 CURVE SMOOTH",
"992 156 OFFCURVE",
"999 227 OFFCURVE",
"1019 351 CURVE SMOOTH",
"1078 727 OFFCURVE",
"1117 963 OFFCURVE",
"830 965 CURVE SMOOTH",
"660 964 OFFCURVE",
"508 836 OFFCURVE",
"485 836 CURVE SMOOTH",
"473 836 OFFCURVE",
"447 949 OFFCURVE",
"387 949 CURVE SMOOTH",
"300 949 OFFCURVE",
"177 936 OFFCURVE",
"168 875 CURVE SMOOTH",
"166 864 OFFCURVE",
"248 812 OFFCURVE",
"252 782 CURVE SMOOTH",
"257 750 OFFCURVE",
"257 735 OFFCURVE",
"220 488 CURVE SMOOTH",
"182 253 OFFCURVE",
"175 183 OFFCURVE",
"154 153 CURVE SMOOTH",
"136 128 OFFCURVE",
"29 79 OFFCURVE",
"26 59 CURVE SMOOTH",
"17 2 OFFCURVE",
"101 13 OFFCURVE",
"201 10 CURVE SMOOTH",
"361 7 OFFCURVE",
"421 8 OFFCURVE",
"427 44 CURVE SMOOTH"
);
}
);
width = 1232;
},
{
anchors = (
{
name = top;
position = "{766, 981}";
}
);
layerId = "5CBF0BAD-1756-4F16-9711-93DC239D102B";
paths = (
{
closed = 1;
nodes = (
"1059 28 OFFCURVE",
"1154 70 OFFCURVE",
"1154 108 CURVE SMOOTH",
"1154 150 OFFCURVE",
"1036 209 OFFCURVE",
"1036 249 CURVE SMOOTH",
"1036 307 OFFCURVE",
"1114 601 OFFCURVE",
"1114 724 CURVE SMOOTH",
"1114 873 OFFCURVE",
"1038 932 OFFCURVE",
"903 932 CURVE SMOOTH",
"728 932 OFFCURVE",
"583 755 OFFCURVE",
"563 755 CURVE SMOOTH",
"546 755 OFFCURVE",
"526 913 OFFCURVE",
"484 913 CURVE SMOOTH",
"303 913 OFFCURVE",
"219 875 OFFCURVE",
"219 753 CURVE SMOOTH",
"219 707 OFFCURVE",
"267 650 OFFCURVE",
"267 601 CURVE SMOOTH",
"267 560 OFFCURVE",
"249 434 OFFCURVE",
"219 364 CURVE SMOOTH",
"184 281 OFFCURVE",
"176 230 OFFCURVE",
"173 211 CURVE SMOOTH",
"165 160 OFFCURVE",
"184 108 OFFCURVE",
"199 75 CURVE SMOOTH",
"226 15 OFFCURVE",
"257 1 OFFCURVE",
"297.5 1 CURVE SMOOTH",
"398 1 OFFCURVE",
"455 21 OFFCURVE",
"455 70 CURVE SMOOTH",
"455 93 OFFCURVE",
"457 182 OFFCURVE",
"465 230 CURVE SMOOTH",
"480 325 OFFCURVE",
"477 415 OFFCURVE",
"522 511 CURVE SMOOTH",
"600 678 OFFCURVE",
"660 746 OFFCURVE",
"770 746 CURVE SMOOTH",
"870 746 OFFCURVE",
"881 641 OFFCURVE",
"849 469 CURVE SMOOTH",
"825 341 OFFCURVE",
"815 261 OFFCURVE",
"813 239 CURVE SMOOTH",
"808 186 OFFCURVE",
"777 108 OFFCURVE",
"777 70 CURVE SMOOTH",
"777 8 OFFCURVE",
"852 -28 OFFCURVE",
"992 10 CURVE SMOOTH"
);
}
);
width = 1282;
}
);
note = uni006E;
unicode = 006E;
},
{
glyphname = o;
layers = (
{
anchors = (
{
name = top;
position = "{615, 973}";
}
);
layerId = "92A672BF-229C-4BEC-8D25-4DDBB2A38145";
paths = (
{
closed = 1;
nodes = (
"736 -21 OFFCURVE",
"970 200 OFFCURVE",
"1011 458 CURVE SMOOTH",
"1062 782 OFFCURVE",
"939 973 OFFCURVE",
"615 973 CURVE SMOOTH",
"355 973 OFFCURVE",
"127 753 OFFCURVE",
"86 493 CURVE SMOOTH",
"33 163 OFFCURVE",
"163 -20 OFFCURVE",
"477 -21 CURVE SMOOTH"
);
},
{
closed = 1;
nodes = (
"295 66 OFFCURVE",
"252 261 OFFCURVE",
"288 498 CURVE SMOOTH",
"323 717 OFFCURVE",
"423 887 OFFCURVE",
"613 887 CURVE SMOOTH",
"773 887 OFFCURVE",
"840 723 OFFCURVE",
"794 430 CURVE SMOOTH",
"759 213 OFFCURVE",
"645 67 OFFCURVE",
"488 66 CURVE"
);
}
);
width = 1112;
},
{
anchors = (
{
name = top;
position = "{706, 973}";
}
);
layerId = "5CBF0BAD-1756-4F16-9711-93DC239D102B";
paths = (
{
closed = 1;
nodes = (
"862 -24 OFFCURVE",
"1065 268 OFFCURVE",
"1076 480 CURVE SMOOTH",
"1092 793 OFFCURVE",
"1002 943 OFFCURVE",
"706 943 CURVE SMOOTH",
"431 943 OFFCURVE",
"144 734 OFFCURVE",
"139 396 CURVE SMOOTH",
"135 99 OFFCURVE",
"275 -24 OFFCURVE",
"581 -24 CURVE SMOOTH"
);
},
{
closed = 1;
nodes = (
"440 110 OFFCURVE",
"390 261 OFFCURVE",
"390 472 CURVE SMOOTH",
"390 613 OFFCURVE",
"517 809 OFFCURVE",
"661 809 CURVE SMOOTH",
"775 809 OFFCURVE",
"838 713 OFFCURVE",
"838 536 CURVE SMOOTH",
"838 356 OFFCURVE",
"768 110 OFFCURVE",
"581 110 CURVE SMOOTH"
);
}
);
width = 1153;
}
);
note = uni006F;
unicode = 006F;
},
{
glyphname = oslash;
layers = (
{
layerId = "92A672BF-229C-4BEC-8D25-4DDBB2A38145";
paths = (
{
closed = 1;
nodes = (
"244 -85 OFFCURVE",
"196 -11 OFFCURVE",
"405 -16 CURVE SMOOTH",
"731 -16 OFFCURVE",
"965 168 OFFCURVE",
"1015 485 CURVE SMOOTH",
"1041 646 OFFCURVE",
"979 773 OFFCURVE",
"993 862 CURVE SMOOTH",
"1001 910 OFFCURVE",
"1016 952 OFFCURVE",
"1023 995 CURVE SMOOTH",
"1028 1024 OFFCURVE",
"1017 1039 OFFCURVE",
"991 1039 CURVE SMOOTH",
"936 1039 OFFCURVE",
"883 974 OFFCURVE",
"692 974 CURVE SMOOTH",
"398 974 OFFCURVE",
"148 776 OFFCURVE",
"102 492 CURVE SMOOTH",
"60 233 OFFCURVE",
"151 159 OFFCURVE",
"136 70 CURVE SMOOTH",
"130 30 OFFCURVE",
"101 -17 OFFCURVE",
"96 -49 CURVE SMOOTH",
"92 -73 OFFCURVE",
"101 -85 OFFCURVE",
"124 -85 CURVE SMOOTH"
);
},
{
closed = 1;
nodes = (
"396 62 OFFCURVE",
"367 75 OFFCURVE",
"373 113 CURVE SMOOTH",
"376 131 OFFCURVE",
"817 741 OFFCURVE",
"823 741 CURVE SMOOTH",
"837 741 OFFCURVE",
"839 707 OFFCURVE",
"828 638 CURVE SMOOTH",
"800 466 OFFCURVE",
"755 328 OFFCURVE",
"698 230 CURVE SMOOTH",
"634 121 OFFCURVE",
"554 62 OFFCURVE",
"465 62 CURVE SMOOTH"
);
},
{
closed = 1;
nodes = (
"278 221 OFFCURVE",
"273 382 OFFCURVE",
"284 452 CURVE SMOOTH",
"333 740 OFFCURVE",
"443 892 OFFCURVE",
"612 892 CURVE SMOOTH",
"702 892 OFFCURVE",
"763 861 OFFCURVE",
"756 818 CURVE SMOOTH",
"741 725 OFFCURVE",
"362 221 OFFCURVE",
"308 221 CURVE SMOOTH"
);
}
);
width = 1141;
},
{
layerId = "5CBF0BAD-1756-4F16-9711-93DC239D102B";
paths = (
{
closed = 1;
nodes = (
"268 -61 OFFCURVE",
"321 -12 OFFCURVE",
"495 -12 CURVE SMOOTH",
"813 -12 OFFCURVE",
"1080 239 OFFCURVE",
"1089 524 CURVE SMOOTH",
"1093 659 OFFCURVE",
"1043 771 OFFCURVE",
"1043 806 CURVE SMOOTH",
"1043 855 OFFCURVE",
"1099 885 OFFCURVE",
"1101 950 CURVE SMOOTH",
"1102 979 OFFCURVE",
"1081 995 OFFCURVE",
"1043 995 CURVE SMOOTH",
"964 995 OFFCURVE",
"898 949 OFFCURVE",
"729 949 CURVE SMOOTH",
"463 949 OFFCURVE",
"175 736 OFFCURVE",
"175 437 CURVE SMOOTH",
"175 212 OFFCURVE",
"220 192 OFFCURVE",
"220 143 CURVE SMOOTH",
"220 108 OFFCURVE",
"152 10 OFFCURVE",
"152 -12 CURVE SMOOTH",
"152 -45 OFFCURVE",
"170 -61 OFFCURVE",
"206 -61 CURVE SMOOTH"
);
},
{
closed = 1;
nodes = (
"531 115 OFFCURVE",
"496 156 OFFCURVE",
"496 192 CURVE SMOOTH",
"496 221 OFFCURVE",
"574 308 OFFCURVE",
"665 425 CURVE SMOOTH",
"743 525 OFFCURVE",
"818 624 OFFCURVE",
"827 624 CURVE SMOOTH",
"847 624 OFFCURVE",
"862 427 OFFCURVE",
"763 244 CURVE SMOOTH",
"717 159 OFFCURVE",
"641 117 OFFCURVE",
"596 116 CURVE SMOOTH"
);
},
{
closed = 1;
nodes = (
"419 326 OFFCURVE",
"420 409 OFFCURVE",
"424 524 CURVE SMOOTH",
"428 649 OFFCURVE",
"603 820 OFFCURVE",
"665 820 CURVE SMOOTH",
"726 820 OFFCURVE",
"772 804 OFFCURVE",
"772 752 CURVE SMOOTH",
"772 700 OFFCURVE",
"476 326 OFFCURVE",
"441 326 CURVE SMOOTH"
);
}
);
width = 1218;
}
);
note = uni00F8;
unicode = 00F8;
},
{
glyphname = oe;
layers = (
{
layerId = "92A672BF-229C-4BEC-8D25-4DDBB2A38145";
paths = (
{
closed = 1;
nodes = (
"658 -12 OFFCURVE",
"816 127 OFFCURVE",
"839 127 CURVE SMOOTH",
"874 127 OFFCURVE",
"970 -7 OFFCURVE",
"1173 -7 CURVE SMOOTH",
"1351 -7 OFFCURVE",
"1553 103 OFFCURVE",
"1565 177 CURVE SMOOTH",
"1569 199 OFFCURVE",
"1558 210 OFFCURVE",
"1534 210 CURVE SMOOTH",
"1514 210 OFFCURVE",
"1339 117 OFFCURVE",
"1240 114 CURVE SMOOTH",
"1074 112 OFFCURVE",
"970 239 OFFCURVE",
"996 402 CURVE SMOOTH",
"1012 504 OFFCURVE",
"1052 493 OFFCURVE",
"1164 490 CURVE SMOOTH",
"1304 486 OFFCURVE",
"1552 517 OFFCURVE",
"1576 524 CURVE SMOOTH",
"1623 539 OFFCURVE",
"1649 575 OFFCURVE",
"1660 622 CURVE SMOOTH",
"1707 824 OFFCURVE",
"1563 973 OFFCURVE",
"1350 981 CURVE SMOOTH",
"1139 989 OFFCURVE",
"1001 842 OFFCURVE",
"956 842 CURVE SMOOTH",
"886 839 OFFCURVE",
"908 983 OFFCURVE",
"620 983 CURVE SMOOTH",
"343 983 OFFCURVE",
"119 773 OFFCURVE",
"73 484 CURVE SMOOTH",
"25 183 OFFCURVE",
"161 -12 OFFCURVE",
"456 -12 CURVE SMOOTH"
);
},
{
closed = 1;
nodes = (
"322 72 OFFCURVE",
"251 234 OFFCURVE",
"291 497 CURVE SMOOTH",
"331 754 OFFCURVE",
"426 896 OFFCURVE",
"564 896 CURVE SMOOTH",
"780 896 OFFCURVE",
"827 690 OFFCURVE",
"789 446 CURVE SMOOTH",
"743 174 OFFCURVE",
"666 72 OFFCURVE",
"466 72 CURVE SMOOTH"
);
},
{
closed = 1;
nodes = (
"1116 578 OFFCURVE",
"1010 550 OFFCURVE",
"1020 625 CURVE SMOOTH",
"1041 760 OFFCURVE",
"1164 895 OFFCURVE",
"1283 895 CURVE SMOOTH",
"1428 895 OFFCURVE",
"1483 811 OFFCURVE",
"1457 646 CURVE SMOOTH",
"1448 587 OFFCURVE",
"1404 592 OFFCURVE",
"1269 584 CURVE SMOOTH"
);
}
);
width = 1748;
},
{
layerId = "5CBF0BAD-1756-4F16-9711-93DC239D102B";
paths = (
{
closed = 1;
nodes = (
"747 -23 OFFCURVE",
"816 106 OFFCURVE",
"865 106 CURVE SMOOTH",
"910 106 OFFCURVE",
"945 -22 OFFCURVE",
"1139 -22 CURVE SMOOTH",
"1296 -22 OFFCURVE",
"1496 93 OFFCURVE",
"1496 182 CURVE SMOOTH",
"1496 214 OFFCURVE",
"1484 229 OFFCURVE",
"1461 229 CURVE SMOOTH",
"1418 229 OFFCURVE",
"1317 143 OFFCURVE",
"1230 143 CURVE SMOOTH",
"1139 143 OFFCURVE",
"1045 181 OFFCURVE",
"1045 330 CURVE SMOOTH",
"1045 361 OFFCURVE",
"1062 399 OFFCURVE",
"1118 413 CURVE SMOOTH",
"1308 459 OFFCURVE",
"1408 485 OFFCURVE",
"1454 500 CURVE SMOOTH",
"1543 528 OFFCURVE",
"1600 699 OFFCURVE",
"1600 758 CURVE SMOOTH",
"1600 848 OFFCURVE",
"1526 969 OFFCURVE",
"1343 969 CURVE SMOOTH",
"1118 969 OFFCURVE",
"1035 842 OFFCURVE",
"1011 842 CURVE SMOOTH",
"969 842 OFFCURVE",
"911 969 OFFCURVE",
"709 969 CURVE SMOOTH",
"463 969 OFFCURVE",
"205 727 OFFCURVE",
"205 400 CURVE SMOOTH",
"205 134 OFFCURVE",
"314 -23 OFFCURVE",
"526 -23 CURVE SMOOTH"
);
},
{
closed = 1;
nodes = (
"491 107 OFFCURVE",
"433 225 OFFCURVE",
"433 448 CURVE SMOOTH",
"433 690 OFFCURVE",
"579 848 OFFCURVE",
"700 848 CURVE SMOOTH",
"785 848 OFFCURVE",
"837 774 OFFCURVE",
"815 452 CURVE SMOOTH",
"801 249 OFFCURVE",
"691 107 OFFCURVE",
"557 107 CURVE SMOOTH"
);
},
{
closed = 1;
nodes = (
"1177 539 OFFCURVE",
"1062 528 OFFCURVE",
"1062 559 CURVE SMOOTH",
"1062 690 OFFCURVE",
"1189 848 OFFCURVE",
"1264 848 CURVE SMOOTH",
"1348 848 OFFCURVE",
"1381 827 OFFCURVE",
"1383 722 CURVE SMOOTH",
"1385 643 OFFCURVE",
"1335 609 OFFCURVE",
"1222 559 CURVE SMOOTH"
);
}
);
width = 1754;
}
);
note = uni0153;
unicode = 0153;
},
{
glyphname = p;
layers = (
{
layerId = "92A672BF-229C-4BEC-8D25-4DDBB2A38145";
paths = (
{
closed = 1;
nodes = (
"349 -456 OFFCURVE",
"404 -443 OFFCURVE",
"408 -416 CURVE SMOOTH",
"412 -388 OFFCURVE",
"330 -342 OFFCURVE",
"312 -304 CURVE SMOOTH",
"303 -283 OFFCURVE",
"304 -237 OFFCURVE",
"316 -165 CURVE SMOOTH",
"327 -93 OFFCURVE",
"357 14 OFFCURVE",
"411 14 CURVE SMOOTH",
"440 14 OFFCURVE",
"507 0 OFFCURVE",
"570 2 CURVE SMOOTH",
"847 11 OFFCURVE",
"1066 216 OFFCURVE",
"1110 492 CURVE SMOOTH",
"1156 787 OFFCURVE",
"1048 973 OFFCURVE",
"828 977 CURVE SMOOTH",
"647 977 OFFCURVE",
"520 879 OFFCURVE",
"496 879 CURVE SMOOTH",
"463 879 OFFCURVE",
"453 962 OFFCURVE",
"392 962 CURVE SMOOTH",
"319 962 OFFCURVE",
"192 941 OFFCURVE",
"185 901 CURVE SMOOTH",
"184 892 OFFCURVE",
"271 799 OFFCURVE",
"275 774 CURVE SMOOTH",
"284 709 OFFCURVE",
"254 504 OFFCURVE",
"218 289 CURVE SMOOTH",
"180 63 OFFCURVE",
"135 -176 OFFCURVE",
"100 -273 CURVE SMOOTH",
"77 -336 OFFCURVE",
"-19 -373 OFFCURVE",
"-25 -409 CURVE SMOOTH",
"-31 -444 OFFCURVE",
"52 -456 OFFCURVE",
"245 -456 CURVE SMOOTH"
);
},
{
closed = 1;
nodes = (
"360 80 OFFCURVE",
"377 198 OFFCURVE",
"418 449 CURVE SMOOTH",
"459 709 OFFCURVE",
"511 866 OFFCURVE",
"715 868 CURVE SMOOTH",
"877 870 OFFCURVE",
"948 733 OFFCURVE",
"909 481 CURVE SMOOTH",
"871 242 OFFCURVE",
"775 83 OFFCURVE",
"566 80 CURVE SMOOTH"
);
}
);
width = 1186;
},
{
layerId = "5CBF0BAD-1756-4F16-9711-93DC239D102B";
paths = (
{
closed = 1;
nodes = (
"309 -456 OFFCURVE",
"438 -442 OFFCURVE",
"438 -393 CURVE SMOOTH",
"438 -368 OFFCURVE",
"426 -323 OFFCURVE",
"403 -280 CURVE SMOOTH",
"391 -257 OFFCURVE",
"374 -181 OFFCURVE",
"374 -126 CURVE SMOOTH",
"374 -20 OFFCURVE",
"435 19 OFFCURVE",
"465 19 CURVE SMOOTH",
"512 16 OFFCURVE",
"563 0 OFFCURVE",
"620 0 CURVE SMOOTH",
"920 0 OFFCURVE",
"1136 340 OFFCURVE",
"1136 530 CURVE SMOOTH",
"1136 769 OFFCURVE",
"1058 937 OFFCURVE",
"859 937 CURVE SMOOTH",
"702 937 OFFCURVE",
"621 834 OFFCURVE",
"591 834 CURVE SMOOTH",
"533 834 OFFCURVE",
"539 947 OFFCURVE",
"449 947 CURVE SMOOTH",
"338 947 OFFCURVE",
"209 876 OFFCURVE",
"209 808 CURVE SMOOTH",
"209 714 OFFCURVE",
"265 663 OFFCURVE",
"265 595 CURVE SMOOTH",
"265 566 OFFCURVE",
"262 449 OFFCURVE",
"223 266 CURVE SMOOTH",
"184 84 OFFCURVE",
"151 -85 OFFCURVE",
"127 -150 CURVE SMOOTH",
"83 -270 OFFCURVE",
"52 -347 OFFCURVE",
"52 -387 CURVE SMOOTH",
"52 -433 OFFCURVE",
"83 -457 OFFCURVE",
"203 -456 CURVE"
);
},
{
closed = 1;
nodes = (
"475 129 OFFCURVE",
"454 173 OFFCURVE",
"456 307 CURVE SMOOTH",
"459 509 OFFCURVE",
"574 767 OFFCURVE",
"748 769 CURVE SMOOTH",
"859 770 OFFCURVE",
"899 700 OFFCURVE",
"899 521 CURVE SMOOTH",
"899 305 OFFCURVE",
"720 129 OFFCURVE",
"593 129 CURVE SMOOTH"
);
}
);
width = 1220;
}
);
note = uni0070;
unicode = 0070;
},
{
glyphname = thorn;
layers = (
{
layerId = "92A672BF-229C-4BEC-8D25-4DDBB2A38145";
paths = (
{
closed = 1;
nodes = (
"285 -447 OFFCURVE",
"361 -442 OFFCURVE",
"368 -397 CURVE SMOOTH",
"372 -373 OFFCURVE",
"295 -322 OFFCURVE",
"285 -284 CURVE SMOOTH",
"279 -264 OFFCURVE",
"281 -225 OFFCURVE",
"290 -167 CURVE SMOOTH",
"299 -108 OFFCURVE",
"329 -2 OFFCURVE",
"388 0 CURVE SMOOTH",
"410 1 OFFCURVE",
"494 1 OFFCURVE",
"532 -1 CURVE SMOOTH",
"816 -1 OFFCURVE",
"1035 207 OFFCURVE",
"1080 491 CURVE SMOOTH",
"1124 770 OFFCURVE",
"1028 968 OFFCURVE",
"769 968 CURVE SMOOTH",
"629 968 OFFCURVE",
"511 900 OFFCURVE",
"490 900 CURVE SMOOTH",
"458 900 OFFCURVE",
"462 965 OFFCURVE",
"494 1166 CURVE SMOOTH",
"528 1381 OFFCURVE",
"521 1442 OFFCURVE",
"447 1442 CURVE SMOOTH",
"321 1442 OFFCURVE",
"217 1430 OFFCURVE",
"210 1385 CURVE SMOOTH",
"204 1348 OFFCURVE",
"306 1299 OFFCURVE",
"300 1226 CURVE SMOOTH",
"296 1181 OFFCURVE",
"272 984 OFFCURVE",
"191 463 CURVE SMOOTH",
"130 82 OFFCURVE",
"69 -244 OFFCURVE",
"50 -289 CURVE SMOOTH",
"37 -318 OFFCURVE",
"-53 -397 OFFCURVE",
"-55 -411 CURVE SMOOTH",
"-59 -435 OFFCURVE",
"-16 -447 OFFCURVE",
"74 -447 CURVE SMOOTH"
);
},
{
closed = 1;
nodes = (
"335 66 OFFCURVE",
"331 122 OFFCURVE",
"382 436 CURVE SMOOTH",
"444 824 OFFCURVE",
"515 884 OFFCURVE",
"695 884 CURVE SMOOTH",
"841 884 OFFCURVE",
"903 761 OFFCURVE",
"854 455 CURVE SMOOTH",
"819 231 OFFCURVE",
"694 66 OFFCURVE",
"546 66 CURVE SMOOTH"
);
}
);
width = 1194;
},
{
layerId = "5CBF0BAD-1756-4F16-9711-93DC239D102B";
paths = (
{
closed = 1;
nodes = (
"365 -478 OFFCURVE",
"429 -433 OFFCURVE",
"429 -382 CURVE SMOOTH",
"429 -357 OFFCURVE",
"412 -287 OFFCURVE",
"402 -271 CURVE SMOOTH",
"382 -238 OFFCURVE",
"373 -169 OFFCURVE",
"383 -120 CURVE SMOOTH",
"394 -65 OFFCURVE",
"441 -7 OFFCURVE",
"479 0 CURVE SMOOTH",
"498 4 OFFCURVE",
"573 -6 OFFCURVE",
"641.5 -5 CURVE SMOOTH",
"915 0 OFFCURVE",
"1125 356 OFFCURVE",
"1125 600 CURVE SMOOTH",
"1125 780 OFFCURVE",
"1054 927 OFFCURVE",
"857 927 CURVE SMOOTH",
"680 927 OFFCURVE",
"621 846 OFFCURVE",
"586 846 CURVE SMOOTH",
"543 846 OFFCURVE",
"562 991 OFFCURVE",
"608 1194 CURVE SMOOTH",
"631 1296 OFFCURVE",
"716 1482 OFFCURVE",
"578 1482 CURVE SMOOTH",
"457 1482 OFFCURVE",
"281 1442 OFFCURVE",
"281 1361 CURVE SMOOTH",
"281 1323 OFFCURVE",
"359 1282 OFFCURVE",
"359 1221 CURVE SMOOTH",
"359 1179 OFFCURVE",
"312 929 OFFCURVE",
"254 556 CURVE SMOOTH",
"199 204 OFFCURVE",
"172 78 OFFCURVE",
"166 41 CURVE SMOOTH",
"131 -192 OFFCURVE",
"23 -346 OFFCURVE",
"23 -411 CURVE SMOOTH",
"23 -477 OFFCURVE",
"102 -478 OFFCURVE",
"269 -478 CURVE SMOOTH"
);
},
{
closed = 1;
nodes = (
"479 117 OFFCURVE",
"453 161 OFFCURVE",
"454 260 CURVE SMOOTH",
"456 475 OFFCURVE",
"554 766 OFFCURVE",
"734 766 CURVE SMOOTH",
"820 766 OFFCURVE",
"874 700 OFFCURVE",
"874 500 CURVE SMOOTH",
"874 314 OFFCURVE",
"733 117 OFFCURVE",
"586 117 CURVE SMOOTH"
);
}
);
width = 1249;
}
);
note = uni00FE;
unicode = 00FE;
},
{
glyphname = q;
layers = (
{
layerId = "92A672BF-229C-4BEC-8D25-4DDBB2A38145";
paths = (
{
closed = 1;
nodes = (
"903 -459 OFFCURVE",
"967 -452 OFFCURVE",
"974 -407 CURVE SMOOTH",
"977 -387 OFFCURVE",
"909 -341 OFFCURVE",
"896 -310 CURVE SMOOTH",
"882 -272 OFFCURVE",
"895 -216 OFFCURVE",
"1018 561 CURVE SMOOTH",
"1031 643 OFFCURVE",
"1086 807 OFFCURVE",
"1091 839 CURVE SMOOTH",
"1102 908 OFFCURVE",
"1082 943 OFFCURVE",
"1032 943 CURVE SMOOTH",
"996 943 OFFCURVE",
"963 917 OFFCURVE",
"921 917 CURVE SMOOTH",
"881 917 OFFCURVE",
"743 968 OFFCURVE",
"641 968 CURVE SMOOTH",
"390 968 OFFCURVE",
"168 763 OFFCURVE",
"126 502 CURVE SMOOTH",
"81 216 OFFCURVE",
"172 2 OFFCURVE",
"432 2 CURVE SMOOTH",
"530 2 OFFCURVE",
"670 66 OFFCURVE",
"705 66 CURVE SMOOTH",
"732 66 OFFCURVE",
"730 -18 OFFCURVE",
"717 -106 CURVE SMOOTH",
"705 -181 OFFCURVE",
"685 -258 OFFCURVE",
"669 -291 CURVE SMOOTH",
"657 -314 OFFCURVE",
"539 -407 OFFCURVE",
"536 -427 CURVE SMOOTH",
"532 -453 OFFCURVE",
"582 -459 OFFCURVE",
"712 -459 CURVE SMOOTH"
);
},
{
closed = 1;
nodes = (
"354 90 OFFCURVE",
"282 242 OFFCURVE",
"324 507 CURVE SMOOTH",
"355 701 OFFCURVE",
"473 891 OFFCURVE",
"643 891 CURVE SMOOTH",
"856 891 OFFCURVE",
"847 778 OFFCURVE",
"801 488 CURVE SMOOTH",
"749 162 OFFCURVE",
"707 90 OFFCURVE",
"509 90 CURVE SMOOTH"
);
}
);
width = 1161;
},
{
layerId = "5CBF0BAD-1756-4F16-9711-93DC239D102B";
paths = (
{
closed = 1;
nodes = (
"942 -447 OFFCURVE",
"970 -415 OFFCURVE",
"970 -372 CURVE SMOOTH",
"970 -338 OFFCURVE",
"918 -278 OFFCURVE",
"916 -220 CURVE SMOOTH",
"915 -177 OFFCURVE",
"967 65 OFFCURVE",
"1005 313 CURVE SMOOTH",
"1067 720 OFFCURVE",
"1151 741 OFFCURVE",
"1149 841 CURVE SMOOTH",
"1147 934 OFFCURVE",
"1122 934 OFFCURVE",
"1070 934 CURVE SMOOTH",
"1042 934 OFFCURVE",
"989 920 OFFCURVE",
"957 921 CURVE SMOOTH",
"822 925 OFFCURVE",
"827 928 OFFCURVE",
"706 928 CURVE SMOOTH",
"458 928 OFFCURVE",
"151 700 OFFCURVE",
"151 356 CURVE SMOOTH",
"151 110 OFFCURVE",
"227 -9 OFFCURVE",
"460 -9 CURVE SMOOTH",
"583 -9 OFFCURVE",
"678 99 OFFCURVE",
"701 99 CURVE SMOOTH",
"733 99 OFFCURVE",
"736 13 OFFCURVE",
"717 -43 CURVE SMOOTH",
"680 -154 OFFCURVE",
"686 -162 OFFCURVE",
"666 -201 CURVE SMOOTH",
"645 -245 OFFCURVE",
"560 -340 OFFCURVE",
"560 -391 CURVE SMOOTH",
"560 -445 OFFCURVE",
"731 -462 OFFCURVE",
"846 -454 CURVE SMOOTH"
);
},
{
closed = 1;
nodes = (
"439 155 OFFCURVE",
"387 195 OFFCURVE",
"387 402 CURVE SMOOTH",
"387 657 OFFCURVE",
"577 806 OFFCURVE",
"706 806 CURVE SMOOTH",
"799 806 OFFCURVE",
"832 781 OFFCURVE",
"832 584 CURVE SMOOTH",
"832 393 OFFCURVE",
"680 158 OFFCURVE",
"518 156 CURVE SMOOTH"
);
}
);
width = 1197;
}
);
note = uni0071;
unicode = 0071;
},
{
glyphname = r;
layers = (
{
layerId = "92A672BF-229C-4BEC-8D25-4DDBB2A38145";
paths = (
{
closed = 1;
nodes = (
"429 -1 OFFCURVE",
"498 2 OFFCURVE",
"503 35 CURVE SMOOTH",
"512 91 OFFCURVE",
"417 108 OFFCURVE",
"394 170 CURVE SMOOTH",
"387 190 OFFCURVE",
"388 278 OFFCURVE",
"417 459 CURVE SMOOTH",
"443 615 OFFCURVE",
"504 799 OFFCURVE",
"647 799 CURVE SMOOTH",
"699 799 OFFCURVE",
"744 742 OFFCURVE",
"815 742 CURVE SMOOTH",
"850 742 OFFCURVE",
"884 782 OFFCURVE",
"890 818 CURVE SMOOTH",
"903 906 OFFCURVE",
"853 950 OFFCURVE",
"800 950 CURVE SMOOTH",
"646 950 OFFCURVE",
"545 837 OFFCURVE",
"504 837 CURVE SMOOTH",
"476 837 OFFCURVE",
"476 954 OFFCURVE",
"399 954 CURVE SMOOTH",
"319 954 OFFCURVE",
"174 932 OFFCURVE",
"168 891 CURVE SMOOTH",
"164 867 OFFCURVE",
"249 799 OFFCURVE",
"253 764 CURVE SMOOTH",
"257 730 OFFCURVE",
"247 628 OFFCURVE",
"220 460 CURVE SMOOTH",
"194 291 OFFCURVE",
"170 193 OFFCURVE",
"158 163 CURVE SMOOTH",
"144 130 OFFCURVE",
"33 78 OFFCURVE",
"27 43 CURVE SMOOTH",
"22 9 OFFCURVE",
"61 2 OFFCURVE",
"243 -1 CURVE SMOOTH"
);
}
);
width = 878;
},
{
layerId = "5CBF0BAD-1756-4F16-9711-93DC239D102B";
paths = (
{
closed = 1;
nodes = (
"456 2 OFFCURVE",
"518 68 OFFCURVE",
"522 100 CURVE SMOOTH",
"530 173 OFFCURVE",
"503 229 OFFCURVE",
"483 289 CURVE SMOOTH",
"472 323 OFFCURVE",
"477 406 OFFCURVE",
"513 482 CURVE SMOOTH",
"573 607 OFFCURVE",
"615 700 OFFCURVE",
"677 700 CURVE SMOOTH",
"738 700 OFFCURVE",
"722 685 OFFCURVE",
"812 685 CURVE SMOOTH",
"858 685 OFFCURVE",
"943 739 OFFCURVE",
"943 819 CURVE SMOOTH",
"943 887 OFFCURVE",
"903 909 OFFCURVE",
"825 909 CURVE SMOOTH",
"686 909 OFFCURVE",
"594 734 OFFCURVE",
"545 734 CURVE SMOOTH",
"521 734 OFFCURVE",
"543 780 OFFCURVE",
"539 859 CURVE SMOOTH",
"537 902 OFFCURVE",
"491 922 OFFCURVE",
"379 918 CURVE SMOOTH",
"274 914 OFFCURVE",
"194 864 OFFCURVE",
"195 780 CURVE SMOOTH",
"196 700 OFFCURVE",
"263 685 OFFCURVE",
"263 532 CURVE SMOOTH",
"263 405 OFFCURVE",
"189 297 OFFCURVE",
"181 272 CURVE SMOOTH",
"163 214 OFFCURVE",
"148 174 OFFCURVE",
"148 119 CURVE SMOOTH",
"148 69 OFFCURVE",
"148 0 OFFCURVE",
"343 1 CURVE SMOOTH"
);
}
);
width = 941;
}
);
note = uni0072;
unicode = 0072;
},
{
glyphname = s;
layers = (
{
anchors = (
{
name = top;
position = "{542, 971}";
}
);
layerId = "92A672BF-229C-4BEC-8D25-4DDBB2A38145";
paths = (
{
closed = 1;
nodes = (
"796 414 OFFCURVE",
"715 481 OFFCURVE",
"538 559 CURVE SMOOTH",
"414 612 OFFCURVE",
"306 656 OFFCURVE",
"326 759 CURVE SMOOTH",
"337 825 OFFCURVE",
"407 884 OFFCURVE",
"512 884 CURVE SMOOTH",
"683 884 OFFCURVE",
"675 704 OFFCURVE",
"743 704 CURVE SMOOTH",
"782 704 OFFCURVE",
"808 743 OFFCURVE",
"821 822 CURVE SMOOTH",
"844 967 OFFCURVE",
"730 971 OFFCURVE",
"525 971 CURVE SMOOTH",
"335 971 OFFCURVE",
"179 859 OFFCURVE",
"156 715 CURVE SMOOTH",
"129 549 OFFCURVE",
"237 483 OFFCURVE",
"431 386 CURVE SMOOTH",
"530 335 OFFCURVE",
"615 313 OFFCURVE",
"593 205 CURVE SMOOTH",
"574 114 OFFCURVE",
"486 67 OFFCURVE",
"380 69 CURVE SMOOTH",
"179 72 OFFCURVE",
"172 282 OFFCURVE",
"120 282 CURVE SMOOTH",
"78 282 OFFCURVE",
"59 245 OFFCURVE",
"45 155 CURVE SMOOTH",
"23 19 OFFCURVE",
"102 -17 OFFCURVE",
"379 -17 CURVE SMOOTH",
"560 -17 OFFCURVE",
"743 80 OFFCURVE",
"769 246 CURVE SMOOTH"
);
}
);
width = 894;
},
{
anchors = (
{
name = top;
position = "{595, 959}";
}
);
layerId = "5CBF0BAD-1756-4F16-9711-93DC239D102B";
paths = (
{
closed = 1;
nodes = (
"657 -22 OFFCURVE",
"816 142 OFFCURVE",
"816 266 CURVE SMOOTH",
"816 392 OFFCURVE",
"749 459 OFFCURVE",
"585 555 CURVE SMOOTH",
"454 632 OFFCURVE",
"430 662 OFFCURVE",
"429 721 CURVE SMOOTH",
"428 770 OFFCURVE",
"472 810 OFFCURVE",
"546 810 CURVE SMOOTH",
"666 810 OFFCURVE",
"694 664 OFFCURVE",
"787 664 CURVE SMOOTH",
"839 664 OFFCURVE",
"871 719 OFFCURVE",
"871 772 CURVE SMOOTH",
"871 915 OFFCURVE",
"778 937 OFFCURVE",
"585 937 CURVE SMOOTH",
"368 937 OFFCURVE",
"195 812 OFFCURVE",
"195 651 CURVE SMOOTH",
"195 513 OFFCURVE",
"285 459 OFFCURVE",
"343 425 CURVE SMOOTH",
"466 353 OFFCURVE",
"585 309 OFFCURVE",
"585 234 CURVE SMOOTH",
"585 164 OFFCURVE",
"534 110 OFFCURVE",
"458 110 CURVE SMOOTH",
"307 110 OFFCURVE",
"246 277 OFFCURVE",
"156 277 CURVE SMOOTH",
"126 277 OFFCURVE",
"83 182 OFFCURVE",
"83 102 CURVE SMOOTH",
"83 17 OFFCURVE",
"173 -22 OFFCURVE",
"500 -22 CURVE SMOOTH"
);
}
);
width = 924;
}
);
note = uni0073;
unicode = 0073;
},
{
glyphname = germandbls;
layers = (
{
layerId = "92A672BF-229C-4BEC-8D25-4DDBB2A38145";
paths = (
{
closed = 1;
nodes = (
"906 -5 OFFCURVE",
"1081 119 OFFCURVE",
"1107 285 CURVE SMOOTH",
"1154 580 OFFCURVE",
"816 671 OFFCURVE",
"838 807 CURVE SMOOTH",
"857 930 OFFCURVE",
"1059 1035 OFFCURVE",
"1082 1180 CURVE SMOOTH",
"1108 1346 OFFCURVE",
"960 1466 OFFCURVE",
"777 1466 CURVE SMOOTH",
"552 1466 OFFCURVE",
"373 1358 OFFCURVE",
"289 1131 CURVE SMOOTH",
"228 967 OFFCURVE",
"191 935 OFFCURVE",
"181 872 CURVE SMOOTH",
"171 809 OFFCURVE",
"203 715 OFFCURVE",
"194 660 CURVE SMOOTH",
"179 572 OFFCURVE",
"125 256 OFFCURVE",
"114 184 CURVE SMOOTH",
"106 131 OFFCURVE",
"-2 75 OFFCURVE",
"-10 28 CURVE SMOOTH",
"-14 3 OFFCURVE",
"24 -12 OFFCURVE",
"105 -12 CURVE SMOOTH",
"220 -12 OFFCURVE",
"306 -14 OFFCURVE",
"319 70 CURVE SMOOTH",
"328 126 OFFCURVE",
"358 366 OFFCURVE",
"410 695 CURVE SMOOTH",
"469 1065 OFFCURVE",
"507 1348 OFFCURVE",
"754 1348 CURVE SMOOTH",
"852 1348 OFFCURVE",
"913 1273 OFFCURVE",
"896 1168 CURVE SMOOTH",
"878 1056 OFFCURVE",
"667 879 OFFCURVE",
"647 755 CURVE SMOOTH",
"614 537 OFFCURVE",
"937 504 OFFCURVE",
"906 286 CURVE SMOOTH",
"892 197 OFFCURVE",
"815 126 OFFCURVE",
"717 126 CURVE SMOOTH",
"668 126 OFFCURVE",
"620 212 OFFCURVE",
"587 212 CURVE SMOOTH",
"542 212 OFFCURVE",
"515 186 OFFCURVE",
"507 134 CURVE SMOOTH",
"492 41 OFFCURVE",
"561 -5 OFFCURVE",
"713 -5 CURVE SMOOTH"
);
}
);
width = 1255;
},
{
layerId = "5CBF0BAD-1756-4F16-9711-93DC239D102B";
paths = (
{
closed = 1;
nodes = (
"578 223 OFFCURVE",
"533 143 OFFCURVE",
"533 109 CURVE SMOOTH",
"533 22 OFFCURVE",
"638 -15 OFFCURVE",
"790 -15 CURVE SMOOTH",
"1009 -15 OFFCURVE",
"1195 127 OFFCURVE",
"1197 310 CURVE SMOOTH",
"1199 529 OFFCURVE",
"955 646 OFFCURVE",
"955 773 CURVE SMOOTH",
"955 905 OFFCURVE",
"1193 1019 OFFCURVE",
"1193 1189 CURVE SMOOTH",
"1193 1386 OFFCURVE",
"978 1464 OFFCURVE",
"890 1464 CURVE SMOOTH",
"646 1464 OFFCURVE",
"508 1317 OFFCURVE",
"423 1210 CURVE SMOOTH",
"368 1141 OFFCURVE",
"269 1019 OFFCURVE",
"269 934 CURVE SMOOTH",
"269 904 OFFCURVE",
"271 773 OFFCURVE",
"247 472 CURVE SMOOTH",
"232 281 OFFCURVE",
"184 -89 OFFCURVE",
"52 -116 CURVE SMOOTH",
"-1 -127 OFFCURVE",
"-39 -137 OFFCURVE",
"-39 -179 CURVE SMOOTH",
"-39 -232 OFFCURVE",
"-13 -262 OFFCURVE",
"74 -262 CURVE SMOOTH",
"256 -262 OFFCURVE",
"348 -57 OFFCURVE",
"411 111 CURVE SMOOTH",
"442 194 OFFCURVE",
"506 527 OFFCURVE",
"519 627 CURVE SMOOTH",
"564 987 OFFCURVE",
"679 1276 OFFCURVE",
"824 1276 CURVE SMOOTH",
"890 1276 OFFCURVE",
"935 1246 OFFCURVE",
"935 1174 CURVE SMOOTH",
"935 1054 OFFCURVE",
"718 875 OFFCURVE",
"718 725 CURVE SMOOTH",
"718 535 OFFCURVE",
"935 458 OFFCURVE",
"935 281 CURVE SMOOTH",
"935 208 OFFCURVE",
"903 157 OFFCURVE",
"814 157 CURVE SMOOTH",
"782 157 OFFCURVE",
"672 223 OFFCURVE",
"640 223 CURVE SMOOTH"
);
}
);
width = 1308;
}
);
note = uni00DF;
unicode = 00DF;
},
{
glyphname = t;
layers = (
{
layerId = "92A672BF-229C-4BEC-8D25-4DDBB2A38145";
paths = (
{
closed = 1;
nodes = (
"441 -13 OFFCURVE",
"598 44 OFFCURVE",
"608 109 CURVE SMOOTH",
"612 135 OFFCURVE",
"603 148 OFFCURVE",
"581 148 CURVE SMOOTH",
"564 148 OFFCURVE",
"459 113 OFFCURVE",
"422 113 CURVE SMOOTH",
"309 113 OFFCURVE",
"339 290 OFFCURVE",
"369 488 CURVE SMOOTH",
"390 629 OFFCURVE",
"396 731 OFFCURVE",
"451 806 CURVE SMOOTH",
"500 873 OFFCURVE",
"670 830 OFFCURVE",
"682 904 CURVE SMOOTH",
"686 928 OFFCURVE",
"659 947 OFFCURVE",
"600 961 CURVE SMOOTH",
"483 989 OFFCURVE",
"472 1015 OFFCURVE",
"474 1104 CURVE SMOOTH",
"476 1174 OFFCURVE",
"481 1217 OFFCURVE",
"423 1217 CURVE SMOOTH",
"396 1217 OFFCURVE",
"365 1183 OFFCURVE",
"330 1115 CURVE SMOOTH",
"260 979 OFFCURVE",
"159 936 OFFCURVE",
"128 893 CURVE SMOOTH",
"110 868 OFFCURVE",
"200 816 OFFCURVE",
"208 784 CURVE SMOOTH",
"220 739 OFFCURVE",
"211 678 OFFCURVE",
"176 447 CURVE SMOOTH",
"134 177 OFFCURVE",
"127 -13 OFFCURVE",
"354 -13 CURVE SMOOTH"
);
}
);
width = 743;
},
{
layerId = "5CBF0BAD-1756-4F16-9711-93DC239D102B";
paths = (
{
closed = 1;
nodes = (
"493 -12 OFFCURVE",
"693 44 OFFCURVE",
"693 142 CURVE SMOOTH",
"693 172 OFFCURVE",
"673 188 OFFCURVE",
"632 188 CURVE SMOOTH",
"611 188 OFFCURVE",
"582 184 OFFCURVE",
"536 184 CURVE SMOOTH",
"476 184 OFFCURVE",
"445 199 OFFCURVE",
"445 327 CURVE SMOOTH",
"445 477 OFFCURVE",
"514 629 OFFCURVE",
"532 673 CURVE SMOOTH",
"585 805 OFFCURVE",
"743 812 OFFCURVE",
"743 873 CURVE SMOOTH",
"743 919 OFFCURVE",
"727 930 OFFCURVE",
"669 946 CURVE SMOOTH",
"641 954 OFFCURVE",
"632 964 OFFCURVE",
"608 990 CURVE SMOOTH",
"585 1015 OFFCURVE",
"614 1176 OFFCURVE",
"510 1176 CURVE SMOOTH",
"415 1176 OFFCURVE",
"365 1113 OFFCURVE",
"334 990 CURVE SMOOTH",
"321 938 OFFCURVE",
"170 883 OFFCURVE",
"170 844 CURVE SMOOTH",
"170 805 OFFCURVE",
"237 782 OFFCURVE",
"241 745 CURVE SMOOTH",
"250 663 OFFCURVE",
"202 353 OFFCURVE",
"202 238 CURVE SMOOTH",
"202 51 OFFCURVE",
"255 -12 OFFCURVE",
"373 -12 CURVE SMOOTH"
);
}
);
width = 804;
}
);
note = uni0074;
unicode = 0074;
},
{
glyphname = u;
layers = (
{
anchors = (
{
name = top;
position = "{623, 952}";
}
);
layerId = "92A672BF-229C-4BEC-8D25-4DDBB2A38145";
paths = (
{
closed = 1;
nodes = (
"566 -16 OFFCURVE",
"656 88 OFFCURVE",
"715 91 CURVE SMOOTH",
"745 93 OFFCURVE",
"757 39 OFFCURVE",
"794 10 CURVE SMOOTH",
"816 -7 OFFCURVE",
"866 -16 OFFCURVE",
"916 -14 CURVE SMOOTH",
"984 -12 OFFCURVE",
"1051 9 OFFCURVE",
"1058 51 CURVE SMOOTH",
"1062 78 OFFCURVE",
"974 158 OFFCURVE",
"971 181 CURVE SMOOTH",
"968 218 OFFCURVE",
"975 327 OFFCURVE",
"1009 510 CURVE SMOOTH",
"1054 748 OFFCURVE",
"1064 860 OFFCURVE",
"1054 911 CURVE SMOOTH",
"1046 950 OFFCURVE",
"1028 955 OFFCURVE",
"1004 955 CURVE SMOOTH",
"863 955 OFFCURVE",
"792 942 OFFCURVE",
"788 916 CURVE SMOOTH",
"781 877 OFFCURVE",
"849 854 OFFCURVE",
"854 803 CURVE SMOOTH",
"856 780 OFFCURVE",
"844 686 OFFCURVE",
"818 523 CURVE SMOOTH",
"766 195 OFFCURVE",
"668 108 OFFCURVE",
"505 106 CURVE SMOOTH",
"327 103 OFFCURVE",
"354 277 OFFCURVE",
"394 526 CURVE SMOOTH",
"419 688 OFFCURVE",
"449 826 OFFCURVE",
"432 900 CURVE SMOOTH",
"423 937 OFFCURVE",
"402 958 OFFCURVE",
"362 958 CURVE SMOOTH",
"219 958 OFFCURVE",
"132 952 OFFCURVE",
"125 905 CURVE SMOOTH",
"118 860 OFFCURVE",
"213 859 OFFCURVE",
"228 815 CURVE SMOOTH",
"262 712 OFFCURVE",
"193 541 OFFCURVE",
"167 378 CURVE SMOOTH",
"131 146 OFFCURVE",
"165 -18 OFFCURVE",
"386 -17 CURVE SMOOTH"
);
}
);
width = 1203;
},
{
anchors = (
{
name = top;
position = "{712, 952}";
}
);
layerId = "5CBF0BAD-1756-4F16-9711-93DC239D102B";
paths = (
{
closed = 1;
nodes = (
"597 -19 OFFCURVE",
"708 177 OFFCURVE",
"758 177 CURVE SMOOTH",
"782 177 OFFCURVE",
"777 95 OFFCURVE",
"786 71 CURVE SMOOTH",
"805 22 OFFCURVE",
"875 -5 OFFCURVE",
"949 -5 CURVE SMOOTH",
"1018 -5 OFFCURVE",
"1110 67 OFFCURVE",
"1110 121 CURVE SMOOTH",
"1110 168 OFFCURVE",
"1088 198 OFFCURVE",
"1065 235 CURVE SMOOTH",
"1046 266 OFFCURVE",
"1041 331 OFFCURVE",
"1041 412 CURVE SMOOTH",
"1041 551 OFFCURVE",
"1102 718 OFFCURVE",
"1102 778 CURVE SMOOTH",
"1102 849 OFFCURVE",
"1041 903 OFFCURVE",
"968 903 CURVE SMOOTH",
"865 903 OFFCURVE",
"823 856 OFFCURVE",
"823 806 CURVE SMOOTH",
"823 767 OFFCURVE",
"843 730 OFFCURVE",
"845 680 CURVE SMOOTH",
"848 617 OFFCURVE",
"834 549 OFFCURVE",
"823 500 CURVE SMOOTH",
"773 277 OFFCURVE",
"624 171 OFFCURVE",
"544 171 CURVE SMOOTH",
"457 171 OFFCURVE",
"451 223 OFFCURVE",
"451 322 CURVE SMOOTH",
"451 506 OFFCURVE",
"520 680 OFFCURVE",
"520 785 CURVE SMOOTH",
"520 844 OFFCURVE",
"493 910 OFFCURVE",
"425 910 CURVE SMOOTH",
"276 910 OFFCURVE",
"161 854 OFFCURVE",
"161 785 CURVE SMOOTH",
"161 742 OFFCURVE",
"244 757 OFFCURVE",
"261 730 CURVE SMOOTH",
"291 681 OFFCURVE",
"204 376 OFFCURVE",
"206 214 CURVE SMOOTH",
"208 82 OFFCURVE",
"261 -19 OFFCURVE",
"408 -19 CURVE SMOOTH"
);
}
);
width = 1249;
}
);
note = uni0075;
unicode = 0075;
},
{
glyphname = v;
layers = (
{
layerId = "92A672BF-229C-4BEC-8D25-4DDBB2A38145";
paths = (
{
closed = 1;
nodes = (
"505 -12 OFFCURVE",
"546 22 OFFCURVE",
"591 89 CURVE SMOOTH",
"607 113 OFFCURVE",
"984 768 OFFCURVE",
"993 780 CURVE SMOOTH",
"1027 828 OFFCURVE",
"1135 872 OFFCURVE",
"1141 915 CURVE SMOOTH",
"1146 944 OFFCURVE",
"1102 954 OFFCURVE",
"1001 954 CURVE SMOOTH",
"882 954 OFFCURVE",
"821 942 OFFCURVE",
"817 918 CURVE SMOOTH",
"814 901 OFFCURVE",
"873 832 OFFCURVE",
"867 795 CURVE SMOOTH",
"854 708 OFFCURVE",
"773 548 OFFCURVE",
"624 314 CURVE SMOOTH",
"586 253 OFFCURVE",
"564 223 OFFCURVE",
"559 223 CURVE SMOOTH",
"547 223 OFFCURVE",
"537 240 OFFCURVE",
"527 273 CURVE SMOOTH",
"511 327 OFFCURVE",
"423 786 OFFCURVE",
"429 828 CURVE SMOOTH",
"432 846 OFFCURVE",
"452 874 OFFCURVE",
"489 911 CURVE",
"495 950 OFFCURVE",
"461 950 OFFCURVE",
"328 952 CURVE SMOOTH",
"180 952 OFFCURVE",
"104 940 OFFCURVE",
"100 916 CURVE SMOOTH",
"94 877 OFFCURVE",
"192 833 OFFCURVE",
"214 776 CURVE SMOOTH",
"282 596 OFFCURVE",
"331 233 OFFCURVE",
"377 96 CURVE SMOOTH",
"401 24 OFFCURVE",
"431 -12 OFFCURVE",
"468 -12 CURVE SMOOTH"
);
}
);
width = 1096;
},
{
layerId = "5CBF0BAD-1756-4F16-9711-93DC239D102B";
paths = (
{
closed = 1;
nodes = (
"550 -18 OFFCURVE",
"588 2 OFFCURVE",
"649 73 CURVE SMOOTH",
"814 264 OFFCURVE",
"907 383 OFFCURVE",
"1044 623 CURVE SMOOTH",
"1096 713 OFFCURVE",
"1142 775 OFFCURVE",
"1142 842 CURVE SMOOTH",
"1142 880 OFFCURVE",
"1113 936 OFFCURVE",
"1020 935 CURVE SMOOTH",
"866 934 OFFCURVE",
"811 888 OFFCURVE",
"811 831 CURVE SMOOTH",
"811 786 OFFCURVE",
"840 688 OFFCURVE",
"840 636 CURVE SMOOTH",
"840 591 OFFCURVE",
"801 515 OFFCURVE",
"712 358 CURVE SMOOTH",
"688 316 OFFCURVE",
"614 246 OFFCURVE",
"606 246 CURVE SMOOTH",
"599 246 OFFCURVE",
"582 315 OFFCURVE",
"572 373 CURVE SMOOTH",
"548 511 OFFCURVE",
"533 636 OFFCURVE",
"541 764 CURVE SMOOTH",
"543 802 OFFCURVE",
"553 819 OFFCURVE",
"553 850 CURVE SMOOTH",
"553 899 OFFCURVE",
"500 935 OFFCURVE",
"428 932 CURVE SMOOTH",
"223 923 OFFCURVE",
"134 841 OFFCURVE",
"134 790 CURVE SMOOTH",
"134 728 OFFCURVE",
"240 718 OFFCURVE",
"265 700 CURVE SMOOTH",
"296 677 OFFCURVE",
"356 246 OFFCURVE",
"396 70 CURVE SMOOTH",
"405 30 OFFCURVE",
"445 -18 OFFCURVE",
"491 -18 CURVE SMOOTH"
);
}
);
width = 1151;
}
);
note = uni0076;
unicode = 0076;
},
{
glyphname = w;
layers = (
{
layerId = "92A672BF-229C-4BEC-8D25-4DDBB2A38145";
paths = (
{
closed = 1;
nodes = (
"1077 19 OFFCURVE",
"1113 40 OFFCURVE",
"1144 83 CURVE SMOOTH",
"1219 185 OFFCURVE",
"1415 622 OFFCURVE",
"1501 763 CURVE SMOOTH",
"1530 810 OFFCURVE",
"1597 883 OFFCURVE",
"1602 915 CURVE SMOOTH",
"1605 935 OFFCURVE",
"1577 948 OFFCURVE",
"1515 948 CURVE SMOOTH",
"1415 948 OFFCURVE",
"1361 925 OFFCURVE",
"1354 879 CURVE SMOOTH",
"1348 844 OFFCURVE",
"1368 817 OFFCURVE",
"1361 774 CURVE SMOOTH",
"1345 670 OFFCURVE",
"1183 304 OFFCURVE",
"1117 304 CURVE SMOOTH",
"1067 304 OFFCURVE",
"992 638 OFFCURVE",
"1007 704 CURVE SMOOTH",
"1015 740 OFFCURVE",
"1029 790 OFFCURVE",
"1036 826 CURVE SMOOTH",
"1055 912 OFFCURVE",
"988 932 OFFCURVE",
"905 932 CURVE SMOOTH",
"839 932 OFFCURVE",
"739 891 OFFCURVE",
"730 840 CURVE SMOOTH",
"728 825 OFFCURVE",
"743 776 OFFCURVE",
"728 678 CURVE SMOOTH",
"707 549 OFFCURVE",
"578 292 OFFCURVE",
"534 292 CURVE SMOOTH",
"479 292 OFFCURVE",
"409 637 OFFCURVE",
"434 793 CURVE SMOOTH",
"438 811 OFFCURVE",
"443 830 OFFCURVE",
"447 848 CURVE SMOOTH",
"461 938 OFFCURVE",
"398 961 OFFCURVE",
"278 961 CURVE SMOOTH",
"212 961 OFFCURVE",
"156 961 OFFCURVE",
"145 894 CURVE SMOOTH",
"143 883 OFFCURVE",
"151 861 OFFCURVE",
"167 826 CURVE SMOOTH",
"282 582 OFFCURVE",
"271 346 OFFCURVE",
"337 134 CURVE SMOOTH",
"358 63 OFFCURVE",
"388 28 OFFCURVE",
"426 28 CURVE SMOOTH",
"454 28 OFFCURVE",
"486 54 OFFCURVE",
"523 106 CURVE SMOOTH",
"542 133 OFFCURVE",
"805 592 OFFCURVE",
"822 592 CURVE SMOOTH",
"849 592 OFFCURVE",
"944 155 OFFCURVE",
"966 98 CURVE SMOOTH",
"986 45 OFFCURVE",
"1010 19 OFFCURVE",
"1037 19 CURVE SMOOTH"
);
}
);
width = 1611;
},
{
layerId = "5CBF0BAD-1756-4F16-9711-93DC239D102B";
paths = (
{
closed = 1;
nodes = (
"1111 -7 OFFCURVE",
"1163 42 OFFCURVE",
"1220 103 CURVE SMOOTH",
"1278 166 OFFCURVE",
"1481 555 OFFCURVE",
"1530 644 CURVE SMOOTH",
"1549 680 OFFCURVE",
"1592 739 OFFCURVE",
"1592 790 CURVE SMOOTH",
"1592 842 OFFCURVE",
"1559 907 OFFCURVE",
"1490 907 CURVE SMOOTH",
"1407 906 OFFCURVE",
"1321 862 OFFCURVE",
"1321 789 CURVE SMOOTH",
"1323 753 OFFCURVE",
"1324 688 OFFCURVE",
"1324 652 CURVE SMOOTH",
"1324 541 OFFCURVE",
"1200 330 OFFCURVE",
"1156 330 CURVE SMOOTH",
"1117 330 OFFCURVE",
"1086 469 OFFCURVE",
"1086 605 CURVE SMOOTH",
"1086 631 OFFCURVE",
"1086 722 OFFCURVE",
"1086 739 CURVE SMOOTH",
"1086 826 OFFCURVE",
"1067 887 OFFCURVE",
"955 887 CURVE SMOOTH",
"839 887 OFFCURVE",
"774 826 OFFCURVE",
"774 747 CURVE SMOOTH",
"774 679 OFFCURVE",
"752 578 OFFCURVE",
"743 541 CURVE SMOOTH",
"719 447 OFFCURVE",
"656 307 OFFCURVE",
"612 307 CURVE SMOOTH",
"566 307 OFFCURVE",
"541 484 OFFCURVE",
"548 644 CURVE SMOOTH",
"552 735 OFFCURVE",
"566 745 OFFCURVE",
"564 798 CURVE SMOOTH",
"562 855 OFFCURVE",
"514 907 OFFCURVE",
"393 907 CURVE SMOOTH",
"254 907 OFFCURVE",
"189 877 OFFCURVE",
"189 806 CURVE SMOOTH",
"189 724 OFFCURVE",
"300 585 OFFCURVE",
"325 461 CURVE SMOOTH",
"343 370 OFFCURVE",
"358 194 OFFCURVE",
"374 147 CURVE SMOOTH",
"394 87 OFFCURVE",
"425 42 OFFCURVE",
"471 42 CURVE SMOOTH",
"517 42 OFFCURVE",
"583 88 OFFCURVE",
"616 124 CURVE SMOOTH",
"660 173 OFFCURVE",
"827 414 OFFCURVE",
"844 414 CURVE SMOOTH",
"864 414 OFFCURVE",
"931 132 OFFCURVE",
"947 101 CURVE SMOOTH",
"975 49 OFFCURVE",
"1016 -7 OFFCURVE",
"1052 -7 CURVE SMOOTH"
);
}
);
width = 1651;
}
);
note = uni0077;
unicode = 0077;
},
{
glyphname = x;
layers = (
{
layerId = "92A672BF-229C-4BEC-8D25-4DDBB2A38145";
paths = (
{
closed = 1;
nodes = (
"238 -5 OFFCURVE",
"303 0 OFFCURVE",
"307 28 CURVE SMOOTH",
"311 51 OFFCURVE",
"274 65 OFFCURVE",
"279 97 CURVE SMOOTH",
"290 167 OFFCURVE",
"464 344 OFFCURVE",
"498 344 CURVE SMOOTH",
"523 344 OFFCURVE",
"636 132 OFFCURVE",
"629 91 CURVE SMOOTH",
"626 70 OFFCURVE",
"590 56 OFFCURVE",
"587 36 CURVE SMOOTH",
"583 13 OFFCURVE",
"626 2 OFFCURVE",
"714 2 CURVE SMOOTH",
"890 2 OFFCURVE",
"979 15 OFFCURVE",
"983 40 CURVE SMOOTH",
"986 56 OFFCURVE",
"878 131 OFFCURVE",
"849 174 CURVE SMOOTH",
"727 349 OFFCURVE",
"669 458 OFFCURVE",
"676 499 CURVE SMOOTH",
"682 540 OFFCURVE",
"761 633 OFFCURVE",
"911 779 CURVE SMOOTH",
"954 821 OFFCURVE",
"1093 874 OFFCURVE",
"1099 907 CURVE SMOOTH",
"1103 936 OFFCURVE",
"1054 950 OFFCURVE",
"952 950 CURVE SMOOTH",
"850 950 OFFCURVE",
"796 937 OFFCURVE",
"792 912 CURVE SMOOTH",
"789 893 OFFCURVE",
"816 864 OFFCURVE",
"813 848 CURVE SMOOTH",
"805 796 OFFCURVE",
"655 627 OFFCURVE",
"609 627 CURVE SMOOTH",
"585 627 OFFCURVE",
"483 814 OFFCURVE",
"490 858 CURVE SMOOTH",
"493 879 OFFCURVE",
"524 899 OFFCURVE",
"527 918 CURVE SMOOTH",
"532 950 OFFCURVE",
"503 952 OFFCURVE",
"402 952 CURVE SMOOTH",
"232 952 OFFCURVE",
"145 936 OFFCURVE",
"140 905 CURVE SMOOTH",
"136 879 OFFCURVE",
"244 818 OFFCURVE",
"275 774 CURVE SMOOTH",
"385 615 OFFCURVE",
"436 514 OFFCURVE",
"430 471 CURVE SMOOTH",
"423 428 OFFCURVE",
"335 326 OFFCURVE",
"167 166 CURVE SMOOTH",
"124 124 OFFCURVE",
"-9 69 OFFCURVE",
"-14 36 CURVE SMOOTH",
"-19 9 OFFCURVE",
"36 -5 OFFCURVE",
"149 -5 CURVE SMOOTH"
);
}
);
width = 1105;
},
{
layerId = "5CBF0BAD-1756-4F16-9711-93DC239D102B";
paths = (
{
closed = 1;
nodes = (
"371 88 OFFCURVE",
"399 141 OFFCURVE",
"417 177 CURVE SMOOTH",
"444 231 OFFCURVE",
"492 301 OFFCURVE",
"526 301 CURVE SMOOTH",
"547 301 OFFCURVE",
"586 228 OFFCURVE",
"620 148 CURVE SMOOTH",
"627 131 OFFCURVE",
"641 94 OFFCURVE",
"648 69 CURVE SMOOTH",
"663 13 OFFCURVE",
"686 0 OFFCURVE",
"806 0 CURVE SMOOTH",
"907 0 OFFCURVE",
"1028 61 OFFCURVE",
"1028 107 CURVE SMOOTH",
"1028 139 OFFCURVE",
"878 186 OFFCURVE",
"852 232 CURVE SMOOTH",
"771 376 OFFCURVE",
"754 445 OFFCURVE",
"754 485 CURVE SMOOTH",
"754 520 OFFCURVE",
"803 585 OFFCURVE",
"907 665 CURVE SMOOTH",
"1018 750 OFFCURVE",
"1118 809 OFFCURVE",
"1118 854 CURVE SMOOTH",
"1118 892 OFFCURVE",
"1050 924 OFFCURVE",
"931 924 CURVE SMOOTH",
"852 924 OFFCURVE",
"810 918 OFFCURVE",
"810 881 CURVE SMOOTH",
"810 859 OFFCURVE",
"801 815 OFFCURVE",
"794 794 CURVE SMOOTH",
"771 723 OFFCURVE",
"718 626 OFFCURVE",
"675 626 CURVE SMOOTH",
"641 626 OFFCURVE",
"604 733 OFFCURVE",
"586 788 CURVE SMOOTH",
"577 814 OFFCURVE",
"575 841 OFFCURVE",
"575 862 CURVE SMOOTH",
"575 894 OFFCURVE",
"552 914 OFFCURVE",
"475 914 CURVE SMOOTH",
"285 914 OFFCURVE",
"191 835 OFFCURVE",
"191 794 CURVE SMOOTH",
"191 759 OFFCURVE",
"304 746 OFFCURVE",
"347 709 CURVE SMOOTH",
"401 663 OFFCURVE",
"464 558 OFFCURVE",
"464 459 CURVE SMOOTH",
"464 406 OFFCURVE",
"400 344 OFFCURVE",
"272 231 CURVE SMOOTH",
"214 180 OFFCURVE",
"70 146 OFFCURVE",
"70 74 CURVE SMOOTH",
"70 44 OFFCURVE",
"100 -8 OFFCURVE",
"208 -8 CURVE SMOOTH",
"309 -8 OFFCURVE",
"371 0 OFFCURVE",
"371 52 CURVE"
);
}
);
width = 1155;
}
);
note = uni0078;
unicode = 0078;
},
{
glyphname = y;
layers = (
{
anchors = (
{
name = top;
position = "{688, 932}";
}
);
layerId = "92A672BF-229C-4BEC-8D25-4DDBB2A38145";
paths = (
{
closed = 1;
nodes = (
"237 -438 OFFCURVE",
"322 -395 OFFCURVE",
"402 -297 CURVE SMOOTH",
"527 -143 OFFCURVE",
"686 161 OFFCURVE",
"1013 759 CURVE SMOOTH",
"1035 800 OFFCURVE",
"1142 889 OFFCURVE",
"1146 915 CURVE SMOOTH",
"1150 942 OFFCURVE",
"1112 956 OFFCURVE",
"1031 956 CURVE SMOOTH",
"902 956 OFFCURVE",
"849 953 OFFCURVE",
"845 928 CURVE SMOOTH",
"841 905 OFFCURVE",
"898 843 OFFCURVE",
"891 795 CURVE SMOOTH",
"882 742 OFFCURVE",
"641 243 OFFCURVE",
"599 243 CURVE SMOOTH",
"552 243 OFFCURVE",
"456 774 OFFCURVE",
"465 831 CURVE SMOOTH",
"468 852 OFFCURVE",
"502 889 OFFCURVE",
"504 906 CURVE SMOOTH",
"508 929 OFFCURVE",
"481 941 OFFCURVE",
"422 941 CURVE SMOOTH",
"272 941 OFFCURVE",
"194 920 OFFCURVE",
"187 878 CURVE SMOOTH",
"183 850 OFFCURVE",
"258 738 OFFCURVE",
"271 698 CURVE SMOOTH",
"321 542 OFFCURVE",
"464 40 OFFCURVE",
"458 0 CURVE SMOOTH",
"438 -128 OFFCURVE",
"317 -302 OFFCURVE",
"234 -302 CURVE SMOOTH",
"195 -302 OFFCURVE",
"167 -287 OFFCURVE",
"120 -287 CURVE SMOOTH",
"76 -287 OFFCURVE",
"50 -312 OFFCURVE",
"42 -362 CURVE SMOOTH",
"36 -395 OFFCURVE",
"82 -438 OFFCURVE",
"156 -438 CURVE SMOOTH"
);
}
);
width = 1104;
},
{
anchors = (
{
name = top;
position = "{669, 950}";
}
);
layerId = "5CBF0BAD-1756-4F16-9711-93DC239D102B";
paths = (
{
closed = 1;
nodes = (
"351 -457 OFFCURVE",
"463 -365 OFFCURVE",
"544 -266 CURVE SMOOTH",
"666 -117 OFFCURVE",
"959 431 OFFCURVE",
"1033 585 CURVE SMOOTH",
"1061 644 OFFCURVE",
"1131 758 OFFCURVE",
"1131 787 CURVE SMOOTH",
"1131 841 OFFCURVE",
"1131 931 OFFCURVE",
"1001 931 CURVE SMOOTH",
"941 931 OFFCURVE",
"833 890 OFFCURVE",
"833 838 CURVE SMOOTH",
"833 807 OFFCURVE",
"866 682 OFFCURVE",
"866 647 CURVE SMOOTH",
"866 505 OFFCURVE",
"718 267 OFFCURVE",
"676 267 CURVE SMOOTH",
"601 267 OFFCURVE",
"548 676 OFFCURVE",
"536 735 CURVE SMOOTH",
"527 779 OFFCURVE",
"536 804 OFFCURVE",
"539 854 CURVE SMOOTH",
"542 898 OFFCURVE",
"505 924 OFFCURVE",
"399 924 CURVE SMOOTH",
"312 924 OFFCURVE",
"151 832 OFFCURVE",
"151 799 CURVE SMOOTH",
"151 753 OFFCURVE",
"281 735 OFFCURVE",
"323 582 CURVE SMOOTH",
"371 406 OFFCURVE",
"475 105 OFFCURVE",
"475 -45 CURVE SMOOTH",
"475 -91 OFFCURVE",
"454 -134 OFFCURVE",
"417 -175 CURVE SMOOTH",
"378 -217 OFFCURVE",
"318 -249 OFFCURVE",
"256 -266 CURVE SMOOTH",
"166 -291 OFFCURVE",
"95 -319 OFFCURVE",
"95 -381 CURVE SMOOTH",
"95 -442 OFFCURVE",
"168 -457 OFFCURVE",
"247 -457 CURVE SMOOTH"
);
}
);
width = 1152;
}
);
note = uni0079;
unicode = 0079;
},
{
glyphname = z;
layers = (
{
anchors = (
{
name = top;
position = "{596, 949}";
}
);
layerId = "92A672BF-229C-4BEC-8D25-4DDBB2A38145";
paths = (
{
closed = 1;
nodes = (
"530 6 OFFCURVE",
"269 4 OFFCURVE",
"424 4 CURVE SMOOTH",
"578 0 OFFCURVE",
"724 -3 OFFCURVE",
"726 -3 CURVE SMOOTH",
"812 -3 OFFCURVE",
"836 72 OFFCURVE",
"854 189 CURVE SMOOTH",
"863 244 OFFCURVE",
"863 268 OFFCURVE",
"829 268 CURVE SMOOTH",
"807 268 OFFCURVE",
"703 140 OFFCURVE",
"656 117 CURVE SMOOTH",
"624 101 OFFCURVE",
"503 91 OFFCURVE",
"407 90 CURVE SMOOTH",
"338 89 OFFCURVE",
"282 93 OFFCURVE",
"284 104 CURVE SMOOTH",
"293 162 OFFCURVE",
"927 841 OFFCURVE",
"938 912 CURVE SMOOTH",
"942 938 OFFCURVE",
"923 951 OFFCURVE",
"881 951 CURVE SMOOTH",
"748 951 OFFCURVE",
"870 950 OFFCURVE",
"509 950 CURVE SMOOTH",
"487 950 OFFCURVE",
"443 951 OFFCURVE",
"262 957 CURVE SMOOTH",
"195 957 OFFCURVE",
"172 890 OFFCURVE",
"157 794 CURVE SMOOTH",
"147 730 OFFCURVE",
"154 698 OFFCURVE",
"179 698 CURVE SMOOTH",
"205 698 OFFCURVE",
"302 821 OFFCURVE",
"349 842 CURVE SMOOTH",
"379 855 OFFCURVE",
"472 863 OFFCURVE",
"552 862 CURVE SMOOTH",
"623 862 OFFCURVE",
"683 854 OFFCURVE",
"680 838 CURVE SMOOTH",
"668 764 OFFCURVE",
"47 162 OFFCURVE",
"28 43 CURVE SMOOTH",
"24 16 OFFCURVE",
"53 2 OFFCURVE",
"116 2 CURVE SMOOTH"
);
}
);
width = 983;
},
{
anchors = (
{
name = top;
position = "{648, 963}";
}
);
layerId = "5CBF0BAD-1756-4F16-9711-93DC239D102B";
paths = (
{
closed = 1;
nodes = (
"200 -10 OFFCURVE",
"249 16 OFFCURVE",
"334 16 CURVE SMOOTH",
"446 16 OFFCURVE",
"636 -36 OFFCURVE",
"748 -36 CURVE SMOOTH",
"794 -36 OFFCURVE",
"891 36 OFFCURVE",
"891 158 CURVE SMOOTH",
"891 212 OFFCURVE",
"891 251 OFFCURVE",
"866 251 CURVE SMOOTH",
"823 251 OFFCURVE",
"774 211 OFFCURVE",
"709 187 CURVE SMOOTH",
"670 171 OFFCURVE",
"574 191 OFFCURVE",
"509 191 CURVE SMOOTH",
"444 191 OFFCURVE",
"389 178 OFFCURVE",
"389 191 CURVE SMOOTH",
"389 228 OFFCURVE",
"975 782 OFFCURVE",
"975 868 CURVE SMOOTH",
"975 914 OFFCURVE",
"954 925 OFFCURVE",
"917 925 CURVE SMOOTH",
"887 925 OFFCURVE",
"839 907 OFFCURVE",
"749 907 CURVE SMOOTH",
"622 907 OFFCURVE",
"429 932 OFFCURVE",
"302 933 CURVE SMOOTH",
"236 933 OFFCURVE",
"180 847 OFFCURVE",
"180 753 CURVE SMOOTH",
"180 688 OFFCURVE",
"180 638 OFFCURVE",
"217 638 CURVE SMOOTH",
"285 638 OFFCURVE",
"264 687 OFFCURVE",
"344 717 CURVE SMOOTH",
"368 726 OFFCURVE",
"489 733 OFFCURVE",
"539 733 CURVE SMOOTH",
"623 733 OFFCURVE",
"650 733 OFFCURVE",
"650 715 CURVE SMOOTH",
"650 677 OFFCURVE",
"72 149 OFFCURVE",
"72 50 CURVE SMOOTH",
"72 16 OFFCURVE",
"91 -10 OFFCURVE",
"129 -10 CURVE SMOOTH"
);
}
);
width = 996;
}
);
note = uni007A;
unicode = 007A;
},
{
glyphname = ordfeminine;
layers = (
{
layerId = "92A672BF-229C-4BEC-8D25-4DDBB2A38145";
paths = (
{
closed = 1;
nodes = (
"422 725 OFFCURVE",
"472 831 OFFCURVE",
"494 830 CURVE SMOOTH",
"512 829 OFFCURVE",
"552 735 OFFCURVE",
"597 735 CURVE SMOOTH",
"742 735 OFFCURVE",
"792 787 OFFCURVE",
"792 838 CURVE SMOOTH",
"792 863 OFFCURVE",
"764 873 OFFCURVE",
"747 872 CURVE SMOOTH",
"726 871 OFFCURVE",
"681 872 OFFCURVE",
"681 901 CURVE SMOOTH",
"681 1032 OFFCURVE",
"741 1204 OFFCURVE",
"741 1276 CURVE SMOOTH",
"741 1311 OFFCURVE",
"728 1328 OFFCURVE",
"694 1326 CURVE SMOOTH",
"673 1325 OFFCURVE",
"662 1319 OFFCURVE",
"637 1319 CURVE SMOOTH",
"612 1319 OFFCURVE",
"567 1347 OFFCURVE",
"534 1347 CURVE SMOOTH",
"417 1347 OFFCURVE",
"347 1307 OFFCURVE",
"292 1265 CURVE SMOOTH",
"251 1234 OFFCURVE",
"196 1165 OFFCURVE",
"171 1116 CURVE SMOOTH",
"146 1067 OFFCURVE",
"129 1006 OFFCURVE",
"129 930 CURVE SMOOTH",
"129 825 OFFCURVE",
"193 725 OFFCURVE",
"290 725 CURVE SMOOTH"
);
},
{
closed = 1;
nodes = (
"311 838 OFFCURVE",
"290 942 OFFCURVE",
"290 986 CURVE SMOOTH",
"290 1073 OFFCURVE",
"362 1246 OFFCURVE",
"491 1246 CURVE SMOOTH",
"541 1246 OFFCURVE",
"560 1227 OFFCURVE",
"560 1188 CURVE SMOOTH",
"560 1014 OFFCURVE",
"495 838 OFFCURVE",
"351 838 CURVE SMOOTH"
);
}
);
width = 827;
},
{
layerId = "5CBF0BAD-1756-4F16-9711-93DC239D102B";
paths = (
{
closed = 1;
nodes = (
"433 725 OFFCURVE",
"483 831 OFFCURVE",
"505 830 CURVE SMOOTH",
"523 829 OFFCURVE",
"563 735 OFFCURVE",
"608 735 CURVE SMOOTH",
"753 735 OFFCURVE",
"803 787 OFFCURVE",
"803 838 CURVE SMOOTH",
"803 863 OFFCURVE",
"775 873 OFFCURVE",
"758 872 CURVE SMOOTH",
"737 871 OFFCURVE",
"692 872 OFFCURVE",
"692 901 CURVE SMOOTH",
"692 1032 OFFCURVE",
"752 1204 OFFCURVE",
"752 1276 CURVE SMOOTH",
"752 1311 OFFCURVE",
"739 1328 OFFCURVE",
"705 1326 CURVE SMOOTH",
"684 1325 OFFCURVE",
"673 1319 OFFCURVE",
"648 1319 CURVE SMOOTH",
"623 1319 OFFCURVE",
"578 1347 OFFCURVE",
"545 1347 CURVE SMOOTH",
"428 1347 OFFCURVE",
"358 1307 OFFCURVE",
"303 1265 CURVE SMOOTH",
"262 1234 OFFCURVE",
"207 1165 OFFCURVE",
"182 1116 CURVE SMOOTH",
"157 1067 OFFCURVE",
"140 1006 OFFCURVE",
"140 930 CURVE SMOOTH",
"140 825 OFFCURVE",
"204 725 OFFCURVE",
"301 725 CURVE SMOOTH"
);
},
{
closed = 1;
nodes = (
"322 838 OFFCURVE",
"301 942 OFFCURVE",
"301 986 CURVE SMOOTH",
"301 1073 OFFCURVE",
"373 1246 OFFCURVE",
"502 1246 CURVE SMOOTH",
"552 1246 OFFCURVE",
"571 1227 OFFCURVE",
"571 1188 CURVE SMOOTH",
"571 1014 OFFCURVE",
"506 838 OFFCURVE",
"362 838 CURVE SMOOTH"
);
}
);
width = 861;
}
);
note = uni00AA;
unicode = 00AA;
},
{
glyphname = ordmasculine;
layers = (
{
layerId = "92A672BF-229C-4BEC-8D25-4DDBB2A38145";
paths = (
{
closed = 1;
nodes = (
"659 714 OFFCURVE",
"828 873 OFFCURVE",
"832 1059 CURVE SMOOTH",
"836 1258 OFFCURVE",
"758 1367 OFFCURVE",
"563 1368 CURVE",
"419 1368 OFFCURVE",
"186 1259 OFFCURVE",
"186 1005 CURVE SMOOTH",
"186 811 OFFCURVE",
"267 714 OFFCURVE",
"444 714 CURVE SMOOTH"
);
},
{
closed = 1;
nodes = (
"419 822 OFFCURVE",
"376 887 OFFCURVE",
"373 999 CURVE",
"373 1189 OFFCURVE",
"469 1259 OFFCURVE",
"539 1259 CURVE SMOOTH",
"610 1259 OFFCURVE",
"649 1255 OFFCURVE",
"649 1038 CURVE SMOOTH",
"649 934 OFFCURVE",
"557 822 OFFCURVE",
"482 822 CURVE SMOOTH"
);
}
);
width = 853;
},
{
layerId = "5CBF0BAD-1756-4F16-9711-93DC239D102B";
paths = (
{
closed = 1;
nodes = (
"659 714 OFFCURVE",
"828 873 OFFCURVE",
"832 1059 CURVE SMOOTH",
"836 1258 OFFCURVE",
"758 1367 OFFCURVE",
"563 1368 CURVE",
"419 1368 OFFCURVE",
"186 1259 OFFCURVE",
"186 1005 CURVE SMOOTH",
"186 811 OFFCURVE",
"267 714 OFFCURVE",
"444 714 CURVE SMOOTH"
);
},
{
closed = 1;
nodes = (
"419 822 OFFCURVE",
"376 887 OFFCURVE",
"373 999 CURVE",
"373 1189 OFFCURVE",
"469 1259 OFFCURVE",
"539 1259 CURVE SMOOTH",
"610 1259 OFFCURVE",
"649 1255 OFFCURVE",
"649 1038 CURVE SMOOTH",
"649 934 OFFCURVE",
"557 822 OFFCURVE",
"482 822 CURVE SMOOTH"
);
}
);
width = 873;
}
);
note = uni00BA;
unicode = 00BA;
},
{
glyphname = zero;
layers = (
{
layerId = "92A672BF-229C-4BEC-8D25-4DDBB2A38145";
paths = (
{
closed = 1;
nodes = (
"812 -19 OFFCURVE",
"1122 466 OFFCURVE",
"1122 938 OFFCURVE",
"915 1211 OFFCURVE",
"474 1211 OFFCURVE",
"148 763 OFFCURVE",
"148 222 OFFCURVE",
"375 -14 OFFCURVE",
"533 -16 QCURVE SMOOTH"
);
},
{
closed = 1;
nodes = (
"428 76 OFFCURVE",
"321 267 OFFCURVE",
"321 720 OFFCURVE",
"552 1112 OFFCURVE",
"844 1112 OFFCURVE",
"947 901 OFFCURVE",
"947 432 OFFCURVE",
"690 76 OFFCURVE",
"551 76 QCURVE SMOOTH"
);
}
);
width = 1204;
},
{
layerId = "5CBF0BAD-1756-4F16-9711-93DC239D102B";
paths = (
{
closed = 1;
nodes = (
"822 -19 OFFCURVE",
"1147 486 OFFCURVE",
"1147 1018 OFFCURVE",
"965 1297 OFFCURVE",
"494 1297 OFFCURVE",
"148 763 OFFCURVE",
"148 222 OFFCURVE",
"325 -14 OFFCURVE",
"533 -16 QCURVE SMOOTH"
);
},
{
closed = 1;
nodes = (
"458 103 OFFCURVE",
"380 267 OFFCURVE",
"380 650 OFFCURVE",
"572 1154 OFFCURVE",
"824 1154 OFFCURVE",
"917 951 OFFCURVE",
"917 602 OFFCURVE",
"730 103 OFFCURVE",
"551 103 QCURVE SMOOTH"
);
}
);
width = 1204;
}
);
note = uni0030;
unicode = 0030;
},
{
glyphname = one;
layers = (
{
layerId = "92A672BF-229C-4BEC-8D25-4DDBB2A38145";
paths = (
{
closed = 1;
nodes = (
"593 -1 OFFCURVE",
"623 1 OFFCURVE",
"630 44 CURVE SMOOTH",
"636 84 OFFCURVE",
"546 136 OFFCURVE",
"509 212 CURVE SMOOTH",
"494 242 OFFCURVE",
"519 379 OFFCURVE",
"555 608 CURVE SMOOTH",
"594 835 OFFCURVE",
"656 1081 OFFCURVE",
"665 1151 CURVE SMOOTH",
"676 1230 OFFCURVE",
"663 1266 OFFCURVE",
"621 1266 CURVE SMOOTH",
"519 1266 OFFCURVE",
"228 1157 OFFCURVE",
"220 1104 CURVE SMOOTH",
"216 1081 OFFCURVE",
"248 1070 OFFCURVE",
"316 1070 CURVE SMOOTH",
"372 1070 OFFCURVE",
"398 1054 OFFCURVE",
"399 982 CURVE SMOOTH",
"400 945 OFFCURVE",
"384 820 OFFCURVE",
"350 606 CURVE SMOOTH",
"316 391 OFFCURVE",
"291 261 OFFCURVE",
"197 150 CURVE SMOOTH",
"151 97 OFFCURVE",
"88 79 OFFCURVE",
"83 45 CURVE SMOOTH",
"78 15 OFFCURVE",
"164 0 OFFCURVE",
"341 0 CURVE SMOOTH"
);
}
);
width = 854;
},
{
layerId = "5CBF0BAD-1756-4F16-9711-93DC239D102B";
paths = (
{
closed = 1;
nodes = (
"600 1 OFFCURVE",
"741 -14 OFFCURVE",
"752 57 CURVE SMOOTH",
"768 158 OFFCURVE",
"640 155 OFFCURVE",
"622 260 CURVE SMOOTH",
"618 283 OFFCURVE",
"636 418 OFFCURVE",
"675 664 CURVE SMOOTH",
"708 874 OFFCURVE",
"700 817 OFFCURVE",
"757 1137 CURVE SMOOTH",
"782 1277 OFFCURVE",
"804 1343 OFFCURVE",
"719 1343 CURVE SMOOTH",
"614 1343 OFFCURVE",
"276 1229 OFFCURVE",
"260 1137 CURVE SMOOTH",
"257 1120 OFFCURVE",
"294 1107 OFFCURVE",
"335 1093 CURVE SMOOTH",
"379 1078 OFFCURVE",
"430 1060 OFFCURVE",
"435 1036 CURVE SMOOTH",
"445 989 OFFCURVE",
"424 790 OFFCURVE",
"392 604 CURVE SMOOTH",
"365 448 OFFCURVE",
"336 302 OFFCURVE",
"317 260 CURVE SMOOTH",
"299 221 OFFCURVE",
"127 84 OFFCURVE",
"124 65 CURVE SMOOTH",
"114 0 OFFCURVE",
"128 -2 OFFCURVE",
"425 0 CURVE SMOOTH"
);
}
);
width = 923;
}
);
note = uni0031;
unicode = 0031;
},
